<svg xmlns="http://www.w3.org/2000/svg" viewBox="0 0 623.37 305.46"><defs><style>.cls-1,.cls-4,.cls-5{fill:none;}.cls-2{fill:#a7a9ac;}.cls-3{fill:#ad1e4a;}.cls-4,.cls-5{stroke:#ac1e4b;stroke-width:4px;}.cls-5{stroke-linecap:round;}</style></defs><g id="globus"><path class="cls-1" d="M595.3,98.5c-4.57,1.15-9.12,2.18-13.68,3.1,7.49,26.72,7.89,56.38.81,87.88q-1.54,6.89-3.64,13.47a293.48,293.48,0,0,0,29.87-7.31A142.79,142.79,0,0,0,595.3,98.5Z" transform="translate(-29.05 -14.01)"/><path class="cls-1" d="M439.13,30.7a138.48,138.48,0,0,0-40,18.64A142.4,142.4,0,0,0,378.81,66q6.1,3.63,12.45,6.93A147.78,147.78,0,0,1,439.13,30.7Z" transform="translate(-29.05 -14.01)"/><path class="cls-1" d="M497,27.41a134,134,0,0,0-45.39.41A145.1,145.1,0,0,0,394,74.3,273.22,273.22,0,0,0,442.21,93C457.65,65.28,477.63,42.57,497,27.41Z" transform="translate(-29.05 -14.01)"/><path class="cls-1" d="M469.09,286.25a210.83,210.83,0,0,1-21.9,20.19,134.06,134.06,0,0,0,26.34,2.4,154.82,154.82,0,0,0,39.1-20.41A369.6,369.6,0,0,1,469.09,286.25Z" transform="translate(-29.05 -14.01)"/><path class="cls-1" d="M558.8,54.55a147.12,147.12,0,0,1,22,44.16c4.35-.87,8.69-1.85,13-2.93q-1.89-3.39-4-6.69A137.58,137.58,0,0,0,558.8,54.55Z" transform="translate(-29.05 -14.01)"/><path class="cls-1" d="M545.23,287.5c.52-.32,1-.66,1.53-1-9.33,1-19.08,1.62-29,1.84A163,163,0,0,1,483,308.43,136.33,136.33,0,0,0,545.23,287.5Z" transform="translate(-29.05 -14.01)"/><path class="cls-1" d="M501,28.13c-19.58,14.8-40,37.61-55.78,65.75A296.18,296.18,0,0,0,523,104.23l2.94,0c-4.11-28.6-13-55.35-24.14-75.91Z" transform="translate(-29.05 -14.01)"/><path class="cls-1" d="M363.73,142.77a162.4,162.4,0,0,0-3.65,25.67,391.17,391.17,0,0,0,54.53,24.3,208.22,208.22,0,0,1,3.4-33.61,219.78,219.78,0,0,1,22.74-63.38,276.05,276.05,0,0,1-48.55-19C379.07,95.26,369.43,117.41,363.73,142.77Z" transform="translate(-29.05 -14.01)"/><path class="cls-1" d="M431,279.3a192.42,192.42,0,0,0,11.17,26.09l.67.16.48.1a202.89,202.89,0,0,0,22-19.83c-9.1-1.12-17.86-2.6-26-4.43C436.67,280.78,433.87,280.08,431,279.3Z" transform="translate(-29.05 -14.01)"/><path class="cls-1" d="M443.7,96.58A217,217,0,0,0,421,159.69a206,206,0,0,0-3.38,34.08,265.2,265.2,0,0,0,27.57,7.92,318.28,318.28,0,0,0,70,7.29,194.72,194.72,0,0,0,7.95-25c6.07-24.94,6.53-51.52,3.21-76.78l-3.36,0A299.32,299.32,0,0,1,443.7,96.58Z" transform="translate(-29.05 -14.01)"/><path class="cls-1" d="M417.48,275.49H390.35q4.38,6.27,9.17,11.87a133.12,133.12,0,0,0,38.82,17.08,200.25,200.25,0,0,1-10.83-26.11c-3.27-.94-6.63-2-10-3.1Z" transform="translate(-29.05 -14.01)"/><path class="cls-1" d="M390.8,281.23c-1.39-1.87-2.74-3.79-4.07-5.74h-2.91Q387.21,278.46,390.8,281.23Z" transform="translate(-29.05 -14.01)"/><path class="cls-1" d="M339.6,137.06a148,148,0,0,0-2.86,17.69c6.55,4.18,13.4,8.24,20.44,12.11a165.14,165.14,0,0,1,3.62-24.75c5.75-25.61,15.47-48,28.69-66.75q-6.56-3.42-12.85-7.19A144.07,144.07,0,0,0,339.6,137.06Z" transform="translate(-29.05 -14.01)"/><path class="cls-1" d="M526.06,184.7A197.92,197.92,0,0,1,518.41,209a346.09,346.09,0,0,0,57-5.38c1.56-4.79,2.93-9.71,4.06-14.75,7-31.07,6.57-60.32-.87-86.64a291.32,291.32,0,0,1-49.28,5C532.67,132.69,532.18,159.52,526.06,184.7Z" transform="translate(-29.05 -14.01)"/><path class="cls-1" d="M505.6,29.1c10.75,20.63,19.33,47,23.34,75.08a288.08,288.08,0,0,0,48.83-4.9A144.64,144.64,0,0,0,550,48.15,134.22,134.22,0,0,0,505.6,29.1Z" transform="translate(-29.05 -14.01)"/><path class="cls-2" d="M399.52,287.36q3.47,4,7.11,7.72A136.45,136.45,0,0,0,440.17,308c-.62-1.17-1.23-2.36-1.83-3.56A133.12,133.12,0,0,1,399.52,287.36Z" transform="translate(-29.05 -14.01)"/><path class="cls-2" d="M399.09,49.34a138.48,138.48,0,0,1,40-18.64q5.61-3.11,11.53-5.77a140.47,140.47,0,0,0-53.25,21.93,144.4,144.4,0,0,0-21.26,17.52c.88.54,1.77,1.07,2.66,1.59A142.4,142.4,0,0,1,399.09,49.34Z" transform="translate(-29.05 -14.01)"/><path class="cls-2" d="M340,213.49h3.15a143.47,143.47,0,0,1-6.65-55.37l-2.85-1.83A146.35,146.35,0,0,0,340,213.49Z" transform="translate(-29.05 -14.01)"/><path class="cls-2" d="M497,27.41c1-.79,2-1.56,3-2.32a1.59,1.59,0,0,1-.13-.22,136.89,136.89,0,0,0-37-1.61c-3.85,1.38-7.6,2.91-11.26,4.56A134,134,0,0,1,497,27.41Z" transform="translate(-29.05 -14.01)"/><path class="cls-2" d="M545.23,287.5A136.33,136.33,0,0,1,483,308.43q-4.5,1.88-9,3.4A138.88,138.88,0,0,0,546.84,290q3.27-2.09,6.42-4.32c-2.14.28-4.31.55-6.5.79C546.25,286.84,545.75,287.18,545.23,287.5Z" transform="translate(-29.05 -14.01)"/><path class="cls-2" d="M442.18,305.39l.43.81.72-.55-.48-.1Z" transform="translate(-29.05 -14.01)"/><path class="cls-2" d="M447.19,306.44c-1.05.84-2.09,1.65-3.13,2.43a136.87,136.87,0,0,0,20.33,2.73q4.55-1.19,9.14-2.76A134.06,134.06,0,0,1,447.19,306.44Z" transform="translate(-29.05 -14.01)"/><path class="cls-2" d="M383.82,275.49h-4.49a138.15,138.15,0,0,0,18.23,14.18q-3.46-4-6.76-8.44Q387.22,278.47,383.82,275.49Z" transform="translate(-29.05 -14.01)"/><path class="cls-2" d="M339.6,137.06a144.07,144.07,0,0,1,37-68.89c-.89-.53-1.77-1-2.64-1.59a147.13,147.13,0,0,0-37.33,69.82,149.49,149.49,0,0,0-2.74,16.53l2.81,1.82A148,148,0,0,1,339.6,137.06Z" transform="translate(-29.05 -14.01)"/><path class="cls-2" d="M552.12,282.85c2.09-.27,4.16-.56,6.19-.87a144.4,144.4,0,0,0,35.58-40.24h-3.52A141.51,141.51,0,0,1,552.12,282.85Z" transform="translate(-29.05 -14.01)"/><path class="cls-2" d="M589.83,89.09q2.08,3.3,4,6.69l3-.76c-1.4-2.54-2.87-5.06-4.43-7.53A139.83,139.83,0,0,0,552,45.9q3.57,4.23,6.79,8.65A137.58,137.58,0,0,1,589.83,89.09Z" transform="translate(-29.05 -14.01)"/><path class="cls-2" d="M603.71,213.49h3.17a153.88,153.88,0,0,0,4.32-15.38l0-.13-3.32,1Q606.16,206.4,603.71,213.49Z" transform="translate(-29.05 -14.01)"/><path class="cls-2" d="M608.66,195.64c1.1-.33,2.19-.68,3.28-1a149.73,149.73,0,0,0,2.95-29.46,144.68,144.68,0,0,0-16.62-67.42l-3,.77A142.79,142.79,0,0,1,608.66,195.64Z" transform="translate(-29.05 -14.01)"/><path class="cls-2" d="M501.79,28.3l-.3-.57-.53.4Z" transform="translate(-29.05 -14.01)"/><path class="cls-2" d="M505.6,29.1a134.22,134.22,0,0,1,44.37,19q-3.36-4-7-7.82A137.19,137.19,0,0,0,505.68,26l-1.46-.3-.3.21C504.49,27,505.05,28,505.6,29.1Z" transform="translate(-29.05 -14.01)"/><path class="cls-2" d="M521.8,285.25c-1.33,1.06-2.68,2.09-4,3.1,9.91-.22,19.66-.83,29-1.84,2.19-.24,4.36-.51,6.5-.79,4.39-.58,8.67-1.25,12.8-2a1.5,1.5,0,1,0-.55-2.95c-2.35.44-4.76.85-7.2,1.23-2,.31-4.1.6-6.19.87C542.45,284.1,532.23,284.9,521.8,285.25Z" transform="translate(-29.05 -14.01)"/><path class="cls-2" d="M512.63,288.43q2.08-1.49,4.14-3.05a366.63,366.63,0,0,1-45.13-1.87c-.85.93-1.7,1.84-2.55,2.74A369.6,369.6,0,0,0,512.63,288.43Z" transform="translate(-29.05 -14.01)"/><path class="cls-2" d="M439.38,281.39c8.13,1.83,16.89,3.31,26,4.43.86-.9,1.73-1.8,2.59-2.71A270.53,270.53,0,0,1,440,278.46c-3.24-.73-6.66-1.61-10.19-2.6.38,1.15.77,2.3,1.17,3.44C433.87,280.08,436.67,280.78,439.38,281.39Z" transform="translate(-29.05 -14.01)"/><path class="cls-2" d="M427.51,278.33q-.58-1.72-1.14-3.48c-2.9-.87-5.88-1.82-8.89-2.82v3.2C420.88,276.34,424.24,277.39,427.51,278.33Z" transform="translate(-29.05 -14.01)"/><path class="cls-2" d="M336.74,154.75l-2.81-1.82c-2.23-1.45-4.41-2.92-6.55-4.39a1.5,1.5,0,1,0-1.71,2.46q3.87,2.69,7.93,5.29l2.85,1.83c6.59,4.17,13.47,8.2,20.54,12.06.05-1.11.12-2.21.19-3.32C350.14,163,343.29,158.93,336.74,154.75Z" transform="translate(-29.05 -14.01)"/><path class="cls-2" d="M445.15,201.69a265.2,265.2,0,0,1-27.57-7.92c0,1,0,2.1,0,3.15a266.22,266.22,0,0,0,26.95,7.7A320.67,320.67,0,0,0,514,212c.4-1,.81-2,1.2-3A318.28,318.28,0,0,1,445.15,201.69Z" transform="translate(-29.05 -14.01)"/><path class="cls-2" d="M360.08,168.44c-.07,1.11-.13,2.21-.17,3.31a393.75,393.75,0,0,0,54.64,24.15c0-1.06,0-2.11.06-3.16A391.17,391.17,0,0,1,360.08,168.44Z" transform="translate(-29.05 -14.01)"/><path class="cls-2" d="M620.54,193.32a1.49,1.49,0,0,0-1.91-.92c-2.2.76-4.44,1.5-6.69,2.21-1.09.35-2.18.7-3.28,1A293.48,293.48,0,0,1,578.79,203c-.34,1.09-.7,2.18-1.06,3.26A300.79,300.79,0,0,0,607.91,199l3.32-1c2.83-.88,5.63-1.79,8.39-2.75A1.5,1.5,0,0,0,620.54,193.32Z" transform="translate(-29.05 -14.01)"/><path class="cls-2" d="M518.41,209c-.39,1-.78,2-1.18,3a350.92,350.92,0,0,0,57.12-5.15c.37-1.07.74-2.15,1.09-3.24A346.09,346.09,0,0,1,518.41,209Z" transform="translate(-29.05 -14.01)"/><path class="cls-2" d="M501,28.13l.53-.4c-.49-.9-1-1.76-1.48-2.64-1,.76-2,1.53-3,2.32C477.63,42.57,457.65,65.28,442.21,93c1,.28,2,.57,3,.84C460.93,65.74,481.38,42.93,501,28.13Z" transform="translate(-29.05 -14.01)"/><path class="cls-2" d="M421,159.69A217,217,0,0,1,443.7,96.58l-2.95-.83A219.78,219.78,0,0,0,418,159.13a208.22,208.22,0,0,0-3.4,33.61c0,1-.05,2.1-.06,3.16-.06,5.82.1,11.7.47,17.59h3q-.52-8.31-.47-16.57c0-1,0-2.1,0-3.15A206,206,0,0,1,421,159.69Z" transform="translate(-29.05 -14.01)"/><path class="cls-2" d="M446.45,318.77a1.5,1.5,0,0,0,2.53-1.62q-2.57-4-4.93-8.27c-.81.62-1.62,1.21-2.43,1.8Q443.95,314.87,446.45,318.77Z" transform="translate(-29.05 -14.01)"/><path class="cls-2" d="M442.18,305.39A192.42,192.42,0,0,1,431,279.3c-.4-1.14-.79-2.29-1.17-3.44a244.5,244.5,0,0,1-8.5-34.12h-3a248.43,248.43,0,0,0,8.05,33.11q.56,1.75,1.14,3.48a200.25,200.25,0,0,0,10.83,26.11c.6,1.2,1.21,2.39,1.83,3.56v0c.81-.6,1.62-1.2,2.43-1.82Z" transform="translate(-29.05 -14.01)"/><path class="cls-2" d="M504.22,25.74c1.64-1.18,3.28-2.31,4.9-3.37a1.5,1.5,0,0,0-1.63-2.51c-1.67,1.08-3.36,2.25-5.05,3.46.5.87,1,1.73,1.48,2.63Z" transform="translate(-29.05 -14.01)"/><path class="cls-2" d="M469.09,286.25c.85-.9,1.7-1.81,2.55-2.74a247.32,247.32,0,0,0,30.88-41.77h-3.47A244.6,244.6,0,0,1,468,283.11c-.86.91-1.73,1.81-2.59,2.71a202.89,202.89,0,0,1-22,19.83l-.72.55c-.81.62-1.62,1.22-2.43,1.82-1.66,1.21-3.31,2.39-4.94,3.49a1.5,1.5,0,1,0,1.67,2.49c1.56-1.05,3.13-2.17,4.71-3.32.81-.59,1.62-1.18,2.43-1.8h0c1-.78,2.08-1.59,3.13-2.43A210.83,210.83,0,0,0,469.09,286.25Z" transform="translate(-29.05 -14.01)"/><path class="cls-2" d="M526.06,184.7c6.12-25.18,6.61-52,3.29-77.53l-3,0c3.32,25.26,2.86,51.84-3.21,76.78a194.72,194.72,0,0,1-7.95,25c-.39,1-.8,2-1.2,3l-.63,1.52h3.24l.63-1.53c.4-1,.79-2,1.18-3A197.92,197.92,0,0,0,526.06,184.7Z" transform="translate(-29.05 -14.01)"/><path class="cls-2" d="M501.49,27.73l.3.57c11.11,20.56,20,47.31,24.14,75.91,1,0,2,0,3,0-4-28.1-12.59-54.45-23.34-75.08C505.05,28,504.49,27,503.92,26s-1-1.76-1.48-2.63c-1.73-3-3.5-5.93-5.32-8.65a1.5,1.5,0,0,0-2.49,1.67c1.79,2.68,3.54,5.54,5.25,8.53a1.59,1.59,0,0,0,.13.22C500.5,26,501,26.83,501.49,27.73Z" transform="translate(-29.05 -14.01)"/><path class="cls-2" d="M363.73,142.77c5.7-25.36,15.34-47.51,28.47-66-.91-.46-1.81-.93-2.71-1.4-13.22,18.74-22.94,41.14-28.69,66.75a165.14,165.14,0,0,0-3.62,24.75c-.07,1.11-.14,2.21-.19,3.32a169.24,169.24,0,0,0,3.47,43.31h3.05a166.61,166.61,0,0,1-3.6-41.74c0-1.1.1-2.2.17-3.31A162.4,162.4,0,0,1,363.73,142.77Z" transform="translate(-29.05 -14.01)"/><path class="cls-2" d="M391.26,72.9c.9.47,1.8.94,2.71,1.4a145.1,145.1,0,0,1,57.61-46.48c3.66-1.65,7.41-3.18,11.26-4.56a163.22,163.22,0,0,1,16.82-5.05,1.5,1.5,0,0,0-.71-2.92,164.63,164.63,0,0,0-28.29,9.64q-5.93,2.66-11.53,5.77A147.78,147.78,0,0,0,391.26,72.9Z" transform="translate(-29.05 -14.01)"/><path class="cls-2" d="M390.35,275.49h-3.62c1.33,1.95,2.68,3.87,4.07,5.74q3.29,4.39,6.76,8.44a132.52,132.52,0,0,0,21.88,20.46,1.5,1.5,0,0,0,1.77-2.42,122.87,122.87,0,0,1-14.58-12.63q-3.64-3.66-7.11-7.72Q394.74,281.77,390.35,275.49Z" transform="translate(-29.05 -14.01)"/><path class="cls-2" d="M517.77,288.35c1.35-1,2.7-2,4-3.1a175.63,175.63,0,0,0,39-43.51h-3.54a172.28,172.28,0,0,1-40.47,43.64q-2.06,1.56-4.14,3.05a154.82,154.82,0,0,1-39.1,20.41q-4.59,1.57-9.14,2.76c-2.49.65-5,1.22-7.42,1.69a1.5,1.5,0,0,0,.56,2.95,124,124,0,0,0,16.5-4.41q4.47-1.51,9-3.4A163,163,0,0,0,517.77,288.35Z" transform="translate(-29.05 -14.01)"/><path class="cls-2" d="M582.43,189.48c7.08-31.5,6.68-61.16-.81-87.88l-3,.58c7.44,26.32,7.85,55.57.87,86.64-1.13,5-2.5,10-4.06,14.75-.35,1.09-.72,2.17-1.09,3.24-.79,2.26-1.62,4.48-2.5,6.68h3.22q1.39-3.59,2.66-7.28c.36-1.08.72-2.17,1.06-3.26Q580.88,196.37,582.43,189.48Z" transform="translate(-29.05 -14.01)"/><path class="cls-2" d="M577.77,99.28c1-.18,2-.37,3-.57a147.12,147.12,0,0,0-22-44.16q-3.22-4.42-6.79-8.65a164.59,164.59,0,0,0-22.1-21.61A1.5,1.5,0,0,0,528,26.63a161.66,161.66,0,0,1,14.91,13.7q3.69,3.81,7,7.82A144.64,144.64,0,0,1,577.77,99.28Z" transform="translate(-29.05 -14.01)"/><path class="cls-2" d="M389.49,75.36c.9.47,1.8.94,2.71,1.4a276.05,276.05,0,0,0,48.55,19l2.95.83A299.32,299.32,0,0,0,523,107.23l3.36,0,3,0a291.32,291.32,0,0,0,49.28-5l3-.58c4.56-.92,9.11-1.95,13.68-3.1l3-.77c2.74-.72,5.48-1.47,8.24-2.27a1.5,1.5,0,1,0-.84-2.88c-3,.87-5.92,1.67-8.87,2.44l-3,.76c-4.36,1.08-8.7,2.06-13,2.93-1,.2-2,.39-3,.57a288.08,288.08,0,0,1-48.83,4.9c-1,0-2,0-3,0l-2.94,0a296.18,296.18,0,0,1-77.81-10.35c-1-.27-2-.56-3-.84A273.22,273.22,0,0,1,394,74.3c-.91-.46-1.81-.93-2.71-1.4q-6.35-3.3-12.45-6.93c-.89-.52-1.78-1-2.66-1.59q-4.32-2.64-8.51-5.45a1.5,1.5,0,0,0-1.67,2.5q3.94,2.64,8,5.15c.87.54,1.75,1.06,2.64,1.59Q382.92,71.94,389.49,75.36Z" transform="translate(-29.05 -14.01)"/></g><g id="schriftzug"><path class="cls-2" d="M39.66,233.11a3.69,3.69,0,0,1-1.37,1.32,5.76,5.76,0,0,1-1.91.66,14.51,14.51,0,0,1-2.2.17H29.8V220h5a9.33,9.33,0,0,1,1.84.18,4.67,4.67,0,0,1,1.59.62,3.22,3.22,0,0,1,1.13,1.16,3.55,3.55,0,0,1,.43,1.82,3.32,3.32,0,0,1-.8,2.32,4.1,4.1,0,0,1-2.17,1.21,4.4,4.4,0,0,1,2.41,1.18,3.21,3.21,0,0,1,1,2.46A4.21,4.21,0,0,1,39.66,233.11ZM37,222.89a2.2,2.2,0,0,0-.69-.7,2.92,2.92,0,0,0-1-.38,5.13,5.13,0,0,0-1.12-.11h-2v4.87h1.66a5.77,5.77,0,0,0,1.25-.13,3.24,3.24,0,0,0,1.08-.41,2.19,2.19,0,0,0,.76-.78,2.49,2.49,0,0,0,.29-1.25A2.07,2.07,0,0,0,37,222.89Zm.26,6.61a2.4,2.4,0,0,0-.93-.83,4,4,0,0,0-1.28-.4,9.7,9.7,0,0,0-1.42-.11h-1.4v5.38h1.61a8.73,8.73,0,0,0,1.34-.1,3.83,3.83,0,0,0,1.21-.4,2.47,2.47,0,0,0,.88-.82,2.3,2.3,0,0,0,.35-1.31A2.5,2.5,0,0,0,37.26,229.5Z" transform="translate(-29.05 -14.01)"/><path class="cls-2" d="M50.42,235l-.07-1.91a4,4,0,0,1-3.69,2.16,4.32,4.32,0,0,1-1.8-.33,3,3,0,0,1-1.17-.91,3.44,3.44,0,0,1-.65-1.39,7.55,7.55,0,0,1-.2-1.77v-7.07h2.28v6.57a8.5,8.5,0,0,0,.08,1.14,3.09,3.09,0,0,0,.32,1,1.76,1.76,0,0,0,.69.69,2.37,2.37,0,0,0,1.18.26,2.54,2.54,0,0,0,1.33-.32,2.64,2.64,0,0,0,.85-.81,3.84,3.84,0,0,0,.46-1.14,6.33,6.33,0,0,0,.13-1.31v-6.08h2.29v8.64q0,.65,0,1.29t.09,1.29Z" transform="translate(-29.05 -14.01)"/><path class="cls-2" d="M63,235.26v-6.62a8.5,8.5,0,0,0-.08-1.14,3,3,0,0,0-.32-1,1.8,1.8,0,0,0-.69-.68,2.41,2.41,0,0,0-1.19-.26,2.74,2.74,0,0,0-1.34.31,2.51,2.51,0,0,0-.86.82,3.35,3.35,0,0,0-.46,1.15,6.26,6.26,0,0,0-.14,1.31v6.1h-2.3V226.6c0-.43,0-.87,0-1.29s0-.86-.09-1.29h2.14l.07,1.93a4,4,0,0,1,3.71-2.16,4.46,4.46,0,0,1,1.8.32,2.82,2.82,0,0,1,1.19.88,3.58,3.58,0,0,1,.65,1.39,7,7,0,0,1,.21,1.77v7.11Z" transform="translate(-29.05 -14.01)"/><path class="cls-2" d="M76.2,235l-.14-1.87a3.53,3.53,0,0,1-1.47,1.6,4.32,4.32,0,0,1-2.14.52,4.47,4.47,0,0,1-2.2-.5,4.22,4.22,0,0,1-1.47-1.31A5.28,5.28,0,0,1,68,231.6a8.87,8.87,0,0,1-.25-2.13,8.73,8.73,0,0,1,.25-2.12,5.21,5.21,0,0,1,.82-1.82,4.4,4.4,0,0,1,1.47-1.27,4.75,4.75,0,0,1,2.21-.47,4.07,4.07,0,0,1,2,.55,3.19,3.19,0,0,1,1.41,1.58v-7.19h2.3v12.89c0,.64,0,1.23,0,1.78s.05,1.08.08,1.61Zm-.36-6.86a4.36,4.36,0,0,0-.49-1.29,2.83,2.83,0,0,0-.9-1,2.46,2.46,0,0,0-1.39-.37,2.44,2.44,0,0,0-2.31,1.29,3.88,3.88,0,0,0-.44,1.28,8.34,8.34,0,0,0,0,2.76,4.48,4.48,0,0,0,.45,1.29,2.73,2.73,0,0,0,.88,1,2.51,2.51,0,0,0,1.43.38,2.4,2.4,0,0,0,1.39-.39,3.12,3.12,0,0,0,.9-1,4,4,0,0,0,.48-1.29,6.48,6.48,0,0,0,.14-1.36A6.32,6.32,0,0,0,75.84,228.15Z" transform="translate(-29.05 -14.01)"/><path class="cls-2" d="M83,230.13a3.9,3.9,0,0,0,.24,1.39,3.17,3.17,0,0,0,.7,1.12,3.44,3.44,0,0,0,1.12.75,3.92,3.92,0,0,0,1.49.27,7.76,7.76,0,0,0,1.71-.2,6,6,0,0,0,1.61-.6l.14,1.78a9.08,9.08,0,0,1-1.88.47,13.21,13.21,0,0,1-2,.15,6.6,6.6,0,0,1-2.46-.42A4.46,4.46,0,0,1,82,233.65a4.71,4.71,0,0,1-1-1.83,7.79,7.79,0,0,1-.34-2.35,6.54,6.54,0,0,1,.37-2.16,5.87,5.87,0,0,1,1-1.81,4.84,4.84,0,0,1,3.79-1.71,5,5,0,0,1,2.18.44,4.15,4.15,0,0,1,1.49,1.22,5.13,5.13,0,0,1,.85,1.81,8.75,8.75,0,0,1,.26,2.21v.66Zm5.28-2.58a3.38,3.38,0,0,0-.42-1.08,2.36,2.36,0,0,0-.79-.78,2.25,2.25,0,0,0-1.23-.31,2.38,2.38,0,0,0-1.27.33,2.72,2.72,0,0,0-.89.83,3.8,3.8,0,0,0-.53,1.09,4,4,0,0,0-.17,1.1h5.43A5.33,5.33,0,0,0,88.29,227.55Z" transform="translate(-29.05 -14.01)"/><path class="cls-2" d="M99.77,233.43a3.24,3.24,0,0,1-1,1,4.48,4.48,0,0,1-1.41.6,6.68,6.68,0,0,1-1.6.2,11.75,11.75,0,0,1-1.78-.13,9.62,9.62,0,0,1-1.74-.43l.14-1.85a6.07,6.07,0,0,0,1.54.57,7.29,7.29,0,0,0,1.61.18,3.32,3.32,0,0,0,.81-.1,2.62,2.62,0,0,0,.77-.29,1.84,1.84,0,0,0,.57-.5,1.27,1.27,0,0,0,.22-.74,1.3,1.3,0,0,0-.42-1,3.87,3.87,0,0,0-1-.66,14.51,14.51,0,0,0-1.37-.52,7.37,7.37,0,0,1-1.37-.6,3.42,3.42,0,0,1-1.05-.91,2.27,2.27,0,0,1-.41-1.39,2.47,2.47,0,0,1,.4-1.44,3.05,3.05,0,0,1,1-1A4.48,4.48,0,0,1,95,224a7.21,7.21,0,0,1,1.52-.16,9.32,9.32,0,0,1,1.57.13,8.25,8.25,0,0,1,1.52.38l-.13,1.7a6.86,6.86,0,0,0-1.37-.4,7,7,0,0,0-1.4-.15,5.12,5.12,0,0,0-.78.06,2.76,2.76,0,0,0-.72.23,1.34,1.34,0,0,0-.54.45,1.2,1.2,0,0,0-.21.74.9.9,0,0,0,.41.77,5.11,5.11,0,0,0,1,.55c.42.17.88.34,1.37.51a7,7,0,0,1,1.37.67,3.42,3.42,0,0,1,1,1,2.56,2.56,0,0,1,.42,1.51A2.78,2.78,0,0,1,99.77,233.43Z" transform="translate(-29.05 -14.01)"/><path class="cls-2" d="M107.7,235.26h-2.84l-3.76-11.47h2.45l2.8,9.57,2.79-9.57h2.34Z" transform="translate(-29.05 -14.01)"/><path class="cls-2" d="M114.91,230.13a3.9,3.9,0,0,0,.24,1.39,3.17,3.17,0,0,0,.7,1.12,3.44,3.44,0,0,0,1.12.75,3.92,3.92,0,0,0,1.49.27,7.76,7.76,0,0,0,1.71-.2,6,6,0,0,0,1.61-.6l.14,1.78a9.08,9.08,0,0,1-1.88.47,13.21,13.21,0,0,1-2,.15,6.56,6.56,0,0,1-2.46-.42,4.5,4.5,0,0,1-1.74-1.19,4.82,4.82,0,0,1-1-1.83,7.49,7.49,0,0,1-.34-2.35,6.54,6.54,0,0,1,.37-2.16,5.67,5.67,0,0,1,1-1.81,4.84,4.84,0,0,1,3.79-1.71,5,5,0,0,1,2.18.44,4.15,4.15,0,0,1,1.49,1.22,5.13,5.13,0,0,1,.85,1.81,8.75,8.75,0,0,1,.26,2.21v.66Zm5.28-2.58a3.38,3.38,0,0,0-.42-1.08,2.36,2.36,0,0,0-.79-.78,2.25,2.25,0,0,0-1.23-.31,2.38,2.38,0,0,0-1.27.33,2.72,2.72,0,0,0-.89.83,3.55,3.55,0,0,0-.53,1.09,4,4,0,0,0-.17,1.1h5.43A5.33,5.33,0,0,0,120.19,227.55Z" transform="translate(-29.05 -14.01)"/><path class="cls-2" d="M131,226.05a1.62,1.62,0,0,0-.46-.11,3.64,3.64,0,0,0-.48,0,2.36,2.36,0,0,0-1.4.39,2.81,2.81,0,0,0-.87,1,4.65,4.65,0,0,0-.45,1.3,8.07,8.07,0,0,0-.12,1.36v5.33h-2.28V226.6c0-.43,0-.87,0-1.29s0-.86-.09-1.29H127l.07,2.15a4.14,4.14,0,0,1,.48-.87,3.88,3.88,0,0,1,.69-.77,3.71,3.71,0,0,1,.9-.54,2.79,2.79,0,0,1,1-.2h.48a3,3,0,0,1,.48.08Z" transform="translate(-29.05 -14.01)"/><path class="cls-2" d="M137.81,235.16a7.14,7.14,0,0,1-1.1.1,3.23,3.23,0,0,1-1.47-.29,2.07,2.07,0,0,1-.87-.81,3.2,3.2,0,0,1-.42-1.22,8.89,8.89,0,0,1-.11-1.5v-6h-2.11v-1.66h2.11v-2.47l2.28-.76v3.23h2.56v1.66h-2.56v6.22a4.94,4.94,0,0,0,0,.68,1.46,1.46,0,0,0,.22.56,1.11,1.11,0,0,0,.44.39,1.47,1.47,0,0,0,.71.15,3,3,0,0,0,1.26-.28l.11,1.7A7.71,7.71,0,0,1,137.81,235.16Z" transform="translate(-29.05 -14.01)"/><path class="cls-2" d="M147.06,226.05a1.47,1.47,0,0,0-.46-.11,3.64,3.64,0,0,0-.48,0,2.33,2.33,0,0,0-1.39.39,2.62,2.62,0,0,0-.87,1,4.09,4.09,0,0,0-.45,1.3,8.11,8.11,0,0,0-.13,1.36v5.33H141V226.6c0-.43,0-.87,0-1.29s0-.86-.09-1.29H143l.07,2.15a4.14,4.14,0,0,1,.48-.87,3.93,3.93,0,0,1,.7-.77,3.85,3.85,0,0,1,.89-.54,2.84,2.84,0,0,1,1.05-.2h.48a3,3,0,0,1,.48.08Z" transform="translate(-29.05 -14.01)"/><path class="cls-2" d="M150.45,230.13a3.9,3.9,0,0,0,.24,1.39,3.17,3.17,0,0,0,.7,1.12,3.44,3.44,0,0,0,1.12.75,3.92,3.92,0,0,0,1.49.27,7.76,7.76,0,0,0,1.71-.2,6,6,0,0,0,1.61-.6l.14,1.78a9.08,9.08,0,0,1-1.88.47,13.21,13.21,0,0,1-2,.15,6.56,6.56,0,0,1-2.46-.42,4.5,4.5,0,0,1-1.74-1.19,4.82,4.82,0,0,1-1-1.83,7.49,7.49,0,0,1-.34-2.35,6.54,6.54,0,0,1,.37-2.16,5.67,5.67,0,0,1,1-1.81,4.84,4.84,0,0,1,3.79-1.71,5,5,0,0,1,2.18.44,4.15,4.15,0,0,1,1.49,1.22,5.13,5.13,0,0,1,.85,1.81,8.75,8.75,0,0,1,.26,2.21v.66Zm5.28-2.58a3.38,3.38,0,0,0-.42-1.08,2.36,2.36,0,0,0-.79-.78,2.25,2.25,0,0,0-1.23-.31,2.38,2.38,0,0,0-1.27.33,2.72,2.72,0,0,0-.89.83,3.55,3.55,0,0,0-.53,1.09,4,4,0,0,0-.17,1.1h5.43A5.33,5.33,0,0,0,155.73,227.55Z" transform="translate(-29.05 -14.01)"/><path class="cls-2" d="M165.29,235.16a7.14,7.14,0,0,1-1.1.1,3.23,3.23,0,0,1-1.47-.29,2.07,2.07,0,0,1-.87-.81,3.2,3.2,0,0,1-.42-1.22,8.89,8.89,0,0,1-.11-1.5v-6h-2.11v-1.66h2.11v-2.47l2.28-.76v3.23h2.56v1.66H163.6v6.22a4.94,4.94,0,0,0,.05.68,1.46,1.46,0,0,0,.22.56,1.11,1.11,0,0,0,.44.39,1.47,1.47,0,0,0,.71.15,3,3,0,0,0,1.26-.28l.11,1.7A7.71,7.71,0,0,1,165.29,235.16Z" transform="translate(-29.05 -14.01)"/><path class="cls-2" d="M176,235l-.07-1.91a4,4,0,0,1-3.69,2.16,4.32,4.32,0,0,1-1.8-.33,3,3,0,0,1-1.17-.91,3.44,3.44,0,0,1-.65-1.39,7.55,7.55,0,0,1-.2-1.77v-7.07h2.28v6.57a7.11,7.11,0,0,0,.09,1.14,2.87,2.87,0,0,0,.32,1,1.8,1.8,0,0,0,.68.69,2.37,2.37,0,0,0,1.18.26,2.54,2.54,0,0,0,1.33-.32,2.64,2.64,0,0,0,.85-.81,3.59,3.59,0,0,0,.46-1.14,6.33,6.33,0,0,0,.13-1.31v-6.08H178v8.64c0,.43,0,.86,0,1.29s0,.86.09,1.29Z" transform="translate(-29.05 -14.01)"/><path class="cls-2" d="M188.57,235.26v-6.62a8.5,8.5,0,0,0-.08-1.14,2.81,2.81,0,0,0-.32-1,1.8,1.8,0,0,0-.69-.68,2.37,2.37,0,0,0-1.18-.26,2.75,2.75,0,0,0-1.35.31,2.51,2.51,0,0,0-.86.82,3.56,3.56,0,0,0-.46,1.15,6.26,6.26,0,0,0-.14,1.31v6.1H181.2V226.6c0-.43,0-.87,0-1.29s0-.86-.09-1.29h2.14l.07,1.93a4,4,0,0,1,3.71-2.16,4.46,4.46,0,0,1,1.8.32A2.82,2.82,0,0,1,190,225a3.74,3.74,0,0,1,.66,1.39,7.55,7.55,0,0,1,.2,1.77v7.11Z" transform="translate(-29.05 -14.01)"/><path class="cls-2" d="M202.37,238.72a5.68,5.68,0,0,1-4.28,1.48,11.7,11.7,0,0,1-2-.17,13.64,13.64,0,0,1-1.94-.46l.14-1.95a7.81,7.81,0,0,0,1.64.61,7.68,7.68,0,0,0,1.78.22,4.71,4.71,0,0,0,1.69-.28,2.93,2.93,0,0,0,1.84-2,5.57,5.57,0,0,0,.21-1.59v-1.35a3.92,3.92,0,0,1-1.51,1.46,4.18,4.18,0,0,1-2,.53,4.31,4.31,0,0,1-2.14-.5,4.4,4.4,0,0,1-1.45-1.29,5.42,5.42,0,0,1-.81-1.81,8.38,8.38,0,0,1-.25-2.07,9.14,9.14,0,0,1,.25-2.17,5.2,5.2,0,0,1,.83-1.85,4.42,4.42,0,0,1,1.45-1.3,4.53,4.53,0,0,1,2.18-.48,4.45,4.45,0,0,1,2.12.5,3.58,3.58,0,0,1,1.48,1.57V224h2.19v10.51A5.86,5.86,0,0,1,202.37,238.72Zm-.93-10.49a4.44,4.44,0,0,0-.49-1.32,2.77,2.77,0,0,0-.9-1,2.45,2.45,0,0,0-1.39-.38,2.56,2.56,0,0,0-1.45.37,2.7,2.7,0,0,0-.88,1,4.11,4.11,0,0,0-.44,1.32,10,10,0,0,0-.11,1.42,8,8,0,0,0,.12,1.35,4.29,4.29,0,0,0,.45,1.26,2.58,2.58,0,0,0,.87.93,2.56,2.56,0,0,0,1.42.36,2.46,2.46,0,0,0,1.39-.37,3,3,0,0,0,.9-.94,4.08,4.08,0,0,0,.49-1.26,6.1,6.1,0,0,0,.15-1.33A7.39,7.39,0,0,0,201.44,228.23Z" transform="translate(-29.05 -14.01)"/><path class="cls-2" d="M220,235l-.14-1.87a3.53,3.53,0,0,1-1.47,1.6,4.32,4.32,0,0,1-2.14.52,4.47,4.47,0,0,1-2.2-.5,4.22,4.22,0,0,1-1.47-1.31,5.28,5.28,0,0,1-.83-1.85,8.87,8.87,0,0,1-.25-2.13,8.73,8.73,0,0,1,.25-2.12,5.21,5.21,0,0,1,.82-1.82,4.4,4.4,0,0,1,1.47-1.27,4.75,4.75,0,0,1,2.21-.47,4.07,4.07,0,0,1,2.05.55,3.19,3.19,0,0,1,1.41,1.58v-7.19H222v12.89c0,.64,0,1.23,0,1.78s0,1.08.08,1.61Zm-.36-6.86a4.36,4.36,0,0,0-.49-1.29,2.76,2.76,0,0,0-.91-1,2.41,2.41,0,0,0-1.38-.37,2.44,2.44,0,0,0-2.31,1.29,3.88,3.88,0,0,0-.44,1.28,8.34,8.34,0,0,0,0,2.76,4.2,4.2,0,0,0,.45,1.29,2.73,2.73,0,0,0,.88,1,2.51,2.51,0,0,0,1.43.38,2.4,2.4,0,0,0,1.39-.39,3.12,3.12,0,0,0,.9-1,4,4,0,0,0,.48-1.29,6.48,6.48,0,0,0,.14-1.36A6.32,6.32,0,0,0,219.65,228.15Z" transform="translate(-29.05 -14.01)"/><path class="cls-2" d="M226.82,230.13a3.9,3.9,0,0,0,.24,1.39,3.17,3.17,0,0,0,.7,1.12,3.44,3.44,0,0,0,1.12.75,3.92,3.92,0,0,0,1.49.27,7.76,7.76,0,0,0,1.71-.2,6,6,0,0,0,1.61-.6l.14,1.78a9.08,9.08,0,0,1-1.88.47,13.21,13.21,0,0,1-1.95.15,6.56,6.56,0,0,1-2.46-.42,4.58,4.58,0,0,1-1.74-1.19,4.82,4.82,0,0,1-1-1.83,7.79,7.79,0,0,1-.34-2.35,6.54,6.54,0,0,1,.37-2.16,5.67,5.67,0,0,1,1-1.81,4.84,4.84,0,0,1,3.79-1.71,5,5,0,0,1,2.18.44,4.15,4.15,0,0,1,1.49,1.22,5.13,5.13,0,0,1,.85,1.81,8.75,8.75,0,0,1,.26,2.21v.66Zm5.28-2.58a3.38,3.38,0,0,0-.42-1.08,2.36,2.36,0,0,0-.79-.78,2.25,2.25,0,0,0-1.23-.31,2.38,2.38,0,0,0-1.27.33,2.72,2.72,0,0,0-.89.83,3.55,3.55,0,0,0-.53,1.09,4,4,0,0,0-.17,1.1h5.43A5.33,5.33,0,0,0,232.1,227.55Z" transform="translate(-29.05 -14.01)"/><path class="cls-2" d="M242.9,226.05a1.62,1.62,0,0,0-.46-.11,3.64,3.64,0,0,0-.48,0,2.36,2.36,0,0,0-1.4.39,2.62,2.62,0,0,0-.87,1,4.65,4.65,0,0,0-.45,1.3,8.07,8.07,0,0,0-.12,1.36v5.33h-2.28V226.6c0-.43,0-.87,0-1.29s0-.86-.09-1.29h2.14l.06,2.15a4.71,4.71,0,0,1,.49-.87,3.88,3.88,0,0,1,.69-.77,3.71,3.71,0,0,1,.9-.54,2.79,2.79,0,0,1,1-.2h.48a3,3,0,0,1,.48.08Z" transform="translate(-29.05 -14.01)"/><path class="cls-2" d="M265,235.26V221.77l-5,13.49h-2.26l-5-13.49v13.49h-2.25V220h3.76l4.72,12.55L263.6,220h3.78v15.28Z" transform="translate(-29.05 -14.01)"/><path class="cls-2" d="M272.41,230.13a3.9,3.9,0,0,0,.24,1.39,3.32,3.32,0,0,0,.7,1.12,3.55,3.55,0,0,0,1.12.75,4,4,0,0,0,1.49.27,7.76,7.76,0,0,0,1.71-.2,5.74,5.74,0,0,0,1.61-.6l.14,1.78a9.08,9.08,0,0,1-1.88.47,13.18,13.18,0,0,1-1.94.15,6.62,6.62,0,0,1-2.47-.42,4.54,4.54,0,0,1-1.73-1.19,4.84,4.84,0,0,1-1-1.83,7.8,7.8,0,0,1-.33-2.35,6.29,6.29,0,0,1,.37-2.16,5.65,5.65,0,0,1,1-1.81,4.88,4.88,0,0,1,3.79-1.71,5.06,5.06,0,0,1,2.19.44,4.24,4.24,0,0,1,1.49,1.22,5.11,5.11,0,0,1,.84,1.81,8.75,8.75,0,0,1,.27,2.21v.66Zm5.28-2.58a3.38,3.38,0,0,0-.42-1.08,2.36,2.36,0,0,0-.79-.78,2.23,2.23,0,0,0-1.22-.31,2.41,2.41,0,0,0-1.28.33,2.82,2.82,0,0,0-.89.83,3.8,3.8,0,0,0-.53,1.09,4,4,0,0,0-.17,1.1h5.43A5.33,5.33,0,0,0,277.69,227.55Z" transform="translate(-29.05 -14.01)"/><path class="cls-2" d="M290.22,235l-.14-1.87a3.53,3.53,0,0,1-1.47,1.6,4.32,4.32,0,0,1-2.14.52,4.47,4.47,0,0,1-2.2-.5,4.22,4.22,0,0,1-1.47-1.31,5.28,5.28,0,0,1-.83-1.85,8.87,8.87,0,0,1-.25-2.13,8.73,8.73,0,0,1,.25-2.12,5.21,5.21,0,0,1,.82-1.82,4.4,4.4,0,0,1,1.47-1.27,4.75,4.75,0,0,1,2.21-.47,4.1,4.1,0,0,1,2,.55,3.19,3.19,0,0,1,1.41,1.58v-7.19h2.3v12.89c0,.64,0,1.23,0,1.78s.05,1.08.08,1.61Zm-.36-6.86a4.36,4.36,0,0,0-.49-1.29,2.76,2.76,0,0,0-.91-1,2.41,2.41,0,0,0-1.38-.37,2.44,2.44,0,0,0-2.31,1.29,3.88,3.88,0,0,0-.44,1.28,8.34,8.34,0,0,0,0,2.76,4.2,4.2,0,0,0,.45,1.29,2.73,2.73,0,0,0,.88,1,2.51,2.51,0,0,0,1.43.38,2.4,2.4,0,0,0,1.39-.39,3.12,3.12,0,0,0,.9-1,4,4,0,0,0,.48-1.29,6.48,6.48,0,0,0,.14-1.36A6.32,6.32,0,0,0,289.86,228.15Z" transform="translate(-29.05 -14.01)"/><path class="cls-2" d="M295.37,221.45v-2.22h2.28v2.22Zm0,13.81V223.81h2.28v11.45Z" transform="translate(-29.05 -14.01)"/><path class="cls-2" d="M299.89,235.26V233.4l6.37-8h-6.11v-1.66h8.68v1.86l-6.35,7.95h6.39v1.66Z" transform="translate(-29.05 -14.01)"/><path class="cls-2" d="M311.13,221.45v-2.22h2.28v2.22Zm0,13.81V223.81h2.28v11.45Z" transform="translate(-29.05 -14.01)"/><path class="cls-2" d="M323.93,235.26v-6.62a8.5,8.5,0,0,0-.08-1.14,2.81,2.81,0,0,0-.32-1,1.8,1.8,0,0,0-.69-.68,2.37,2.37,0,0,0-1.18-.26,2.75,2.75,0,0,0-1.35.31,2.51,2.51,0,0,0-.86.82,3.56,3.56,0,0,0-.46,1.15,6.26,6.26,0,0,0-.14,1.31v6.1h-2.29V226.6c0-.43,0-.87,0-1.29s0-.86-.09-1.29h2.14l.07,1.93a4,4,0,0,1,3.71-2.16,4.46,4.46,0,0,1,1.8.32,2.82,2.82,0,0,1,1.19.88,3.58,3.58,0,0,1,.65,1.39,7,7,0,0,1,.21,1.77v7.11Z" transform="translate(-29.05 -14.01)"/><path class="cls-2" d="M336.09,233.43a3.31,3.31,0,0,1-1,1,4.64,4.64,0,0,1-1.42.6,6.68,6.68,0,0,1-1.6.2,11.75,11.75,0,0,1-1.78-.13,9.62,9.62,0,0,1-1.74-.43l.14-1.85a6.07,6.07,0,0,0,1.54.57,7.36,7.36,0,0,0,1.61.18,3.46,3.46,0,0,0,.82-.1,2.73,2.73,0,0,0,.77-.29,1.7,1.7,0,0,0,.56-.5,1.2,1.2,0,0,0,.22-.74,1.3,1.3,0,0,0-.42-1,3.87,3.87,0,0,0-1-.66,13.53,13.53,0,0,0-1.37-.52,7.37,7.37,0,0,1-1.37-.6,3.27,3.27,0,0,1-1-.91,2.21,2.21,0,0,1-.42-1.39,2.47,2.47,0,0,1,.41-1.44,3,3,0,0,1,1-1,4.57,4.57,0,0,1,1.39-.54,7.23,7.23,0,0,1,1.53-.16,9.21,9.21,0,0,1,1.56.13,8.56,8.56,0,0,1,1.53.38l-.14,1.7a6.76,6.76,0,0,0-1.36-.4,7.21,7.21,0,0,0-1.41-.15,5.12,5.12,0,0,0-.78.06,2.76,2.76,0,0,0-.72.23,1.48,1.48,0,0,0-.54.45,1.2,1.2,0,0,0-.21.74.89.89,0,0,0,.42.77,4.76,4.76,0,0,0,1,.55c.42.17.88.34,1.37.51a7,7,0,0,1,1.37.67,3.58,3.58,0,0,1,1.05,1,2.64,2.64,0,0,1,.41,1.51A2.78,2.78,0,0,1,336.09,233.43Z" transform="translate(-29.05 -14.01)"/><path class="cls-2" d="M343.63,235.16a7.14,7.14,0,0,1-1.1.1,3.26,3.26,0,0,1-1.47-.29,2.07,2.07,0,0,1-.87-.81,3.38,3.38,0,0,1-.42-1.22,8.89,8.89,0,0,1-.11-1.5v-6h-2.11v-1.66h2.11v-2.47l2.28-.76v3.23h2.56v1.66h-2.56v6.22a3.74,3.74,0,0,0,.06.68,1.31,1.31,0,0,0,.21.56,1.11,1.11,0,0,0,.44.39,1.47,1.47,0,0,0,.71.15,3,3,0,0,0,1.26-.28l.11,1.7A7.38,7.38,0,0,1,343.63,235.16Z" transform="translate(-29.05 -14.01)"/><path class="cls-2" d="M354.34,235l-.07-1.91a3.93,3.93,0,0,1-3.69,2.16,4.35,4.35,0,0,1-1.8-.33,3,3,0,0,1-1.17-.91,3.44,3.44,0,0,1-.65-1.39,7.57,7.57,0,0,1-.19-1.77v-7.07h2.28v6.57a7.12,7.12,0,0,0,.08,1.14,2.87,2.87,0,0,0,.32,1,1.8,1.8,0,0,0,.68.69,2.4,2.4,0,0,0,1.18.26,2.45,2.45,0,0,0,2.18-1.13,3.59,3.59,0,0,0,.46-1.14,6.33,6.33,0,0,0,.14-1.31v-6.08h2.29v8.64c0,.43,0,.86,0,1.29s0,.86.09,1.29Z" transform="translate(-29.05 -14.01)"/><path class="cls-2" d="M367.32,235l-.14-1.87a3.53,3.53,0,0,1-1.47,1.6,4.32,4.32,0,0,1-2.14.52,4.47,4.47,0,0,1-2.2-.5,4.22,4.22,0,0,1-1.47-1.31,5.46,5.46,0,0,1-.83-1.85,8.87,8.87,0,0,1-.25-2.13,8.73,8.73,0,0,1,.25-2.12,5.05,5.05,0,0,1,.83-1.82,4.27,4.27,0,0,1,1.46-1.27,4.78,4.78,0,0,1,2.21-.47,4.07,4.07,0,0,1,2.05.55,3.19,3.19,0,0,1,1.41,1.58v-7.19h2.3v12.89c0,.64,0,1.23,0,1.78s.05,1.08.08,1.61Zm-.36-6.86a4.36,4.36,0,0,0-.49-1.29,2.83,2.83,0,0,0-.9-1,2.46,2.46,0,0,0-1.39-.37,2.44,2.44,0,0,0-2.31,1.29,3.88,3.88,0,0,0-.44,1.28,9.38,9.38,0,0,0-.11,1.38,8.22,8.22,0,0,0,.12,1.38,4.48,4.48,0,0,0,.45,1.29,2.73,2.73,0,0,0,.88,1,2.54,2.54,0,0,0,1.43.38,2.37,2.37,0,0,0,1.39-.39,3.16,3.16,0,0,0,.91-1,4.52,4.52,0,0,0,.48-1.29,7.19,7.19,0,0,0,.13-1.36A6.32,6.32,0,0,0,367,228.15Z" transform="translate(-29.05 -14.01)"/><path class="cls-2" d="M372.48,221.45v-2.22h2.28v2.22Zm0,13.81V223.81h2.28v11.45Z" transform="translate(-29.05 -14.01)"/><path class="cls-2" d="M379.56,230.13a3.9,3.9,0,0,0,.24,1.39,3.17,3.17,0,0,0,.7,1.12,3.44,3.44,0,0,0,1.12.75,3.92,3.92,0,0,0,1.49.27,7.76,7.76,0,0,0,1.71-.2,6,6,0,0,0,1.61-.6l.14,1.78a9.08,9.08,0,0,1-1.88.47,13.21,13.21,0,0,1-1.95.15,6.56,6.56,0,0,1-2.46-.42,4.58,4.58,0,0,1-1.74-1.19,4.82,4.82,0,0,1-1-1.83,7.79,7.79,0,0,1-.34-2.35,6.54,6.54,0,0,1,.37-2.16,5.67,5.67,0,0,1,1-1.81,4.84,4.84,0,0,1,3.79-1.71,5,5,0,0,1,2.18.44,4.15,4.15,0,0,1,1.49,1.22,5.13,5.13,0,0,1,.85,1.81,8.75,8.75,0,0,1,.26,2.21v.66Zm5.28-2.58a3.38,3.38,0,0,0-.42-1.08,2.36,2.36,0,0,0-.79-.78,2.25,2.25,0,0,0-1.23-.31,2.38,2.38,0,0,0-1.27.33,2.72,2.72,0,0,0-.89.83,3.8,3.8,0,0,0-.53,1.09,4,4,0,0,0-.17,1.1H385A5.33,5.33,0,0,0,384.84,227.55Z" transform="translate(-29.05 -14.01)"/><path class="cls-2" d="M395.64,226.05a1.54,1.54,0,0,0-.46-.11,3.64,3.64,0,0,0-.48,0,2.36,2.36,0,0,0-1.4.39,2.71,2.71,0,0,0-.87,1,4.65,4.65,0,0,0-.45,1.3,8.07,8.07,0,0,0-.12,1.36v5.33h-2.28V226.6c0-.43,0-.87,0-1.29s-.05-.86-.09-1.29h2.14l.07,2.15a4.14,4.14,0,0,1,.48-.87,3.88,3.88,0,0,1,.69-.77,3.71,3.71,0,0,1,.9-.54,2.79,2.79,0,0,1,1-.2h.48a2.83,2.83,0,0,1,.48.08Z" transform="translate(-29.05 -14.01)"/><path class="cls-2" d="M399,230.13a3.7,3.7,0,0,0,.25,1.39,3.29,3.29,0,0,0,.69,1.12,3.49,3.49,0,0,0,1.13.75,3.86,3.86,0,0,0,1.48.27,7.76,7.76,0,0,0,1.71-.2,5.94,5.94,0,0,0,1.62-.6l.13,1.78a9,9,0,0,1-1.87.47,13.42,13.42,0,0,1-2,.15,6.62,6.62,0,0,1-2.47-.42,4.54,4.54,0,0,1-1.73-1.19,5,5,0,0,1-1-1.83,7.8,7.8,0,0,1-.33-2.35,6.29,6.29,0,0,1,.37-2.16,5.49,5.49,0,0,1,1-1.81,4.71,4.71,0,0,1,1.63-1.25,4.88,4.88,0,0,1,2.15-.46,5,5,0,0,1,2.19.44,4.24,4.24,0,0,1,1.49,1.22,4.94,4.94,0,0,1,.84,1.81,8.75,8.75,0,0,1,.27,2.21v.66Zm5.29-2.58a3.64,3.64,0,0,0-.43-1.08,2.36,2.36,0,0,0-.79-.78,2.21,2.21,0,0,0-1.22-.31,2.35,2.35,0,0,0-1.27.33,2.86,2.86,0,0,0-.9.83,3.77,3.77,0,0,0-.52,1.09,3.71,3.71,0,0,0-.18,1.1h5.43A6,6,0,0,0,404.31,227.55Z" transform="translate(-29.05 -14.01)"/><path class="cls-2" d="M416.42,235.26v-6.62a8.5,8.5,0,0,0-.08-1.14,2.81,2.81,0,0,0-.32-1,1.8,1.8,0,0,0-.69-.68,2.37,2.37,0,0,0-1.18-.26,2.75,2.75,0,0,0-1.35.31,2.6,2.6,0,0,0-.86.82,3.56,3.56,0,0,0-.46,1.15,6.26,6.26,0,0,0-.14,1.31v6.1h-2.29V226.6c0-.43,0-.87,0-1.29s0-.86-.09-1.29h2.14l.07,1.93a4,4,0,0,1,3.71-2.16,4.39,4.39,0,0,1,1.8.32,2.76,2.76,0,0,1,1.19.88,3.74,3.74,0,0,1,.66,1.39,7.55,7.55,0,0,1,.2,1.77v7.11Z" transform="translate(-29.05 -14.01)"/><path class="cls-2" d="M429.63,235l-.14-1.87a3.53,3.53,0,0,1-1.47,1.6,4.32,4.32,0,0,1-2.14.52,4.47,4.47,0,0,1-2.2-.5,4.22,4.22,0,0,1-1.47-1.31,5.46,5.46,0,0,1-.83-1.85,8.87,8.87,0,0,1-.25-2.13,8.73,8.73,0,0,1,.25-2.12,5.05,5.05,0,0,1,.83-1.82,4.21,4.21,0,0,1,1.47-1.27,4.71,4.71,0,0,1,2.2-.47,4.07,4.07,0,0,1,2.05.55,3.19,3.19,0,0,1,1.41,1.58v-7.19h2.3v12.89c0,.64,0,1.23,0,1.78s.05,1.08.08,1.61Zm-.36-6.86a4.1,4.1,0,0,0-.49-1.29,2.83,2.83,0,0,0-.9-1,2.46,2.46,0,0,0-1.39-.37,2.44,2.44,0,0,0-2.31,1.29,3.88,3.88,0,0,0-.44,1.28,9.38,9.38,0,0,0-.11,1.38,7.31,7.31,0,0,0,.13,1.38,4.19,4.19,0,0,0,.44,1.29,2.83,2.83,0,0,0,.88,1,2.55,2.55,0,0,0,1.44.38,2.36,2.36,0,0,0,1.38-.39,3.16,3.16,0,0,0,.91-1,4.52,4.52,0,0,0,.48-1.29,7.19,7.19,0,0,0,.13-1.36A6.32,6.32,0,0,0,429.27,228.15Z" transform="translate(-29.05 -14.01)"/><path class="cls-2" d="M436.44,230.13a3.9,3.9,0,0,0,.24,1.39,3.32,3.32,0,0,0,.7,1.12,3.55,3.55,0,0,0,1.12.75,4,4,0,0,0,1.49.27,7.76,7.76,0,0,0,1.71-.2,5.86,5.86,0,0,0,1.61-.6l.14,1.78a8.92,8.92,0,0,1-1.88.47,13.18,13.18,0,0,1-1.94.15,6.62,6.62,0,0,1-2.47-.42,4.54,4.54,0,0,1-1.73-1.19,4.84,4.84,0,0,1-1-1.83,7.8,7.8,0,0,1-.33-2.35,6.53,6.53,0,0,1,.36-2.16,5.87,5.87,0,0,1,1-1.81,4.84,4.84,0,0,1,3.79-1.71,5.06,5.06,0,0,1,2.19.44,4.12,4.12,0,0,1,1.48,1.22,4.8,4.8,0,0,1,.85,1.81,8.75,8.75,0,0,1,.27,2.21v.66Zm5.28-2.58a3.38,3.38,0,0,0-.42-1.08,2.36,2.36,0,0,0-.79-.78,2.25,2.25,0,0,0-1.23-.31,2.4,2.4,0,0,0-1.27.33,2.93,2.93,0,0,0-.89.83,3.8,3.8,0,0,0-.53,1.09,4,4,0,0,0-.17,1.1h5.43A5.33,5.33,0,0,0,441.72,227.55Z" transform="translate(-29.05 -14.01)"/><path class="cls-2" d="M453.84,235.26v-6.62a8.5,8.5,0,0,0-.08-1.14,3,3,0,0,0-.32-1,1.8,1.8,0,0,0-.69-.68,2.4,2.4,0,0,0-1.18-.26,2.75,2.75,0,0,0-1.35.31,2.51,2.51,0,0,0-.86.82,3.35,3.35,0,0,0-.46,1.15,6.26,6.26,0,0,0-.14,1.31v6.1h-2.3V226.6c0-.43,0-.87,0-1.29s0-.86-.09-1.29h2.14l.07,1.93a4,4,0,0,1,3.71-2.16,4.46,4.46,0,0,1,1.8.32,2.82,2.82,0,0,1,1.19.88,3.58,3.58,0,0,1,.65,1.39,7,7,0,0,1,.21,1.77v7.11Z" transform="translate(-29.05 -14.01)"/><path class="cls-2" d="M464.55,221.45v-2.22h2.29v2.22Zm0,13.81V223.81h2.29v11.45Z" transform="translate(-29.05 -14.01)"/><path class="cls-2" d="M477.36,235.26v-6.62a8.5,8.5,0,0,0-.08-1.14,2.82,2.82,0,0,0-.33-1,1.85,1.85,0,0,0-.68-.68,2.41,2.41,0,0,0-1.19-.26,2.74,2.74,0,0,0-1.34.31,2.51,2.51,0,0,0-.86.82,3.35,3.35,0,0,0-.46,1.15,6.26,6.26,0,0,0-.14,1.31v6.1H470V226.6c0-.43,0-.87,0-1.29s0-.86-.09-1.29H472l.07,1.93a4,4,0,0,1,3.71-2.16,4.46,4.46,0,0,1,1.8.32,2.88,2.88,0,0,1,1.19.88,3.72,3.72,0,0,1,.65,1.39,7,7,0,0,1,.21,1.77v7.11Z" transform="translate(-29.05 -14.01)"/><path class="cls-2" d="M500.2,231.07a6.15,6.15,0,0,1-1.74,2.37,7.21,7.21,0,0,1-2.69,1.37,12.4,12.4,0,0,1-3.44.45h-4V220H493a8,8,0,0,1,5.75,1.93,7.49,7.49,0,0,1,2.05,5.72A8.59,8.59,0,0,1,500.2,231.07Zm-2.36-5.82a5,5,0,0,0-1-1.83,4.43,4.43,0,0,0-1.7-1.19,6.23,6.23,0,0,0-2.34-.41h-1.94v11.59h1.26a6.75,6.75,0,0,0,4.53-1.36q1.59-1.37,1.59-4.42A7.43,7.43,0,0,0,497.84,225.25Z" transform="translate(-29.05 -14.01)"/><path class="cls-2" d="M505.12,230.13a3.9,3.9,0,0,0,.24,1.39,3.17,3.17,0,0,0,.7,1.12,3.44,3.44,0,0,0,1.12.75,3.92,3.92,0,0,0,1.49.27,7.61,7.61,0,0,0,1.7-.2,5.94,5.94,0,0,0,1.62-.6l.14,1.78a9.08,9.08,0,0,1-1.88.47,13.21,13.21,0,0,1-1.95.15,6.53,6.53,0,0,1-2.46-.42,4.5,4.5,0,0,1-1.74-1.19,4.82,4.82,0,0,1-1-1.83,7.49,7.49,0,0,1-.34-2.35,6.29,6.29,0,0,1,.37-2.16,5.67,5.67,0,0,1,1-1.81,4.83,4.83,0,0,1,3.78-1.71,5,5,0,0,1,2.19.44,4.15,4.15,0,0,1,1.49,1.22,5.13,5.13,0,0,1,.85,1.81,9.23,9.23,0,0,1,.26,2.21v.66Zm5.28-2.58a3.38,3.38,0,0,0-.42-1.08,2.36,2.36,0,0,0-.79-.78,2.25,2.25,0,0,0-1.23-.31,2.38,2.38,0,0,0-1.27.33,2.72,2.72,0,0,0-.89.83,3.55,3.55,0,0,0-.53,1.09,4,4,0,0,0-.17,1.1h5.43A6,6,0,0,0,510.4,227.55Z" transform="translate(-29.05 -14.01)"/><path class="cls-2" d="M522.65,235l-.07-1.91a3.93,3.93,0,0,1-3.69,2.16,4.3,4.3,0,0,1-1.79-.33,3.05,3.05,0,0,1-1.18-.91,3.58,3.58,0,0,1-.65-1.39,7.57,7.57,0,0,1-.19-1.77v-7.07h2.28v6.57a8.5,8.5,0,0,0,.08,1.14,2.87,2.87,0,0,0,.32,1,1.76,1.76,0,0,0,.69.69,2.37,2.37,0,0,0,1.18.26,2.53,2.53,0,0,0,1.32-.32,2.45,2.45,0,0,0,.85-.81,3.37,3.37,0,0,0,.46-1.14,6.33,6.33,0,0,0,.14-1.31v-6.08h2.29v8.64c0,.43,0,.86,0,1.29s0,.86.09,1.29Z" transform="translate(-29.05 -14.01)"/><path class="cls-2" d="M532.67,235.16a7.14,7.14,0,0,1-1.1.1,3.3,3.3,0,0,1-1.48-.29,2.19,2.19,0,0,1-.87-.81,3.38,3.38,0,0,1-.41-1.22,8.85,8.85,0,0,1-.12-1.5v-6h-2.1v-1.66h2.1v-2.47l2.28-.76v3.23h2.57v1.66H531v6.22a3.74,3.74,0,0,0,.06.68,1.46,1.46,0,0,0,.22.56,1.08,1.08,0,0,0,.43.39,1.49,1.49,0,0,0,.71.15,3,3,0,0,0,1.26-.28l.12,1.7A7.71,7.71,0,0,1,532.67,235.16Z" transform="translate(-29.05 -14.01)"/><path class="cls-2" d="M542.6,233.43a3.31,3.31,0,0,1-1,1,4.64,4.64,0,0,1-1.42.6,6.68,6.68,0,0,1-1.6.2,11.75,11.75,0,0,1-1.78-.13,9.62,9.62,0,0,1-1.74-.43l.14-1.85a6.07,6.07,0,0,0,1.54.57,7.36,7.36,0,0,0,1.61.18,3.46,3.46,0,0,0,.82-.1,2.73,2.73,0,0,0,.77-.29,1.8,1.8,0,0,0,.56-.5,1.27,1.27,0,0,0,.22-.74,1.3,1.3,0,0,0-.42-1,3.87,3.87,0,0,0-1-.66,13.53,13.53,0,0,0-1.37-.52,7.37,7.37,0,0,1-1.37-.6,3.42,3.42,0,0,1-1-.91,2.27,2.27,0,0,1-.41-1.39,2.47,2.47,0,0,1,.4-1.44,3.15,3.15,0,0,1,1-1,4.48,4.48,0,0,1,1.39-.54,7.21,7.21,0,0,1,1.52-.16,9.24,9.24,0,0,1,1.57.13,8.56,8.56,0,0,1,1.53.38l-.14,1.7a6.76,6.76,0,0,0-1.36-.4,7.21,7.21,0,0,0-1.41-.15,5.12,5.12,0,0,0-.78.06,2.76,2.76,0,0,0-.72.23,1.41,1.41,0,0,0-.54.45,1.2,1.2,0,0,0-.21.74.89.89,0,0,0,.42.77,4.76,4.76,0,0,0,1,.55c.42.17.88.34,1.37.51a7,7,0,0,1,1.37.67,3.58,3.58,0,0,1,1.05,1,2.64,2.64,0,0,1,.41,1.51A2.78,2.78,0,0,1,542.6,233.43Z" transform="translate(-29.05 -14.01)"/><path class="cls-2" d="M552,235.15a11.87,11.87,0,0,1-1.58.11,6.66,6.66,0,0,1-2.43-.43,5.16,5.16,0,0,1-1.82-1.2,5.22,5.22,0,0,1-1.13-1.84,6.46,6.46,0,0,1-.4-2.32,6.14,6.14,0,0,1,.42-2.32,5.06,5.06,0,0,1,1.19-1.8,5.31,5.31,0,0,1,1.87-1.15,6.85,6.85,0,0,1,2.41-.41,9.42,9.42,0,0,1,3,.48l-.13,1.83a8.88,8.88,0,0,0-1.16-.42,4.68,4.68,0,0,0-1.23-.17,4.31,4.31,0,0,0-1.66.3,3.48,3.48,0,0,0-1.21.83,3.64,3.64,0,0,0-.75,1.26,5.06,5.06,0,0,0,0,3.11,3.75,3.75,0,0,0,.73,1.29,3.3,3.3,0,0,0,1.19.88,3.78,3.78,0,0,0,1.62.33,6.13,6.13,0,0,0,2.5-.53l.11,1.82A7.37,7.37,0,0,1,552,235.15Z" transform="translate(-29.05 -14.01)"/><path class="cls-2" d="M563.16,235.26v-6.62a8.53,8.53,0,0,0-.08-1.15,2.76,2.76,0,0,0-.32-1,1.8,1.8,0,0,0-.69-.68,2.41,2.41,0,0,0-1.19-.26,2.43,2.43,0,0,0-2.2,1.13,3.36,3.36,0,0,0-.47,1.15,5.54,5.54,0,0,0-.14,1.29v6.12h-2.28V218.73h2.28v7.19a3.62,3.62,0,0,1,1.43-1.6,4.14,4.14,0,0,1,2.12-.53,4.2,4.2,0,0,1,1.75.33,3.06,3.06,0,0,1,1.19.9,3.6,3.6,0,0,1,.68,1.37,7.4,7.4,0,0,1,.2,1.76v7.11Z" transform="translate(-29.05 -14.01)"/><path class="cls-2" d="M568.59,235.26V218.73h2.28v16.53Z" transform="translate(-29.05 -14.01)"/><path class="cls-2" d="M580.64,235l-.07-1.74a3.73,3.73,0,0,1-1.52,1.45,4.41,4.41,0,0,1-2.09.53,5.38,5.38,0,0,1-1.47-.19,3.56,3.56,0,0,1-1.21-.57,2.86,2.86,0,0,1-.83-1,2.94,2.94,0,0,1-.31-1.41,3.19,3.19,0,0,1,.49-1.82,3.64,3.64,0,0,1,1.35-1.19,6.23,6.23,0,0,1,2-.65,13.25,13.25,0,0,1,2.4-.2h.55a5.24,5.24,0,0,1,.58,0v-.45a2.41,2.41,0,0,0-.64-1.8,2.7,2.7,0,0,0-2-.63,7.26,7.26,0,0,0-1.73.22,6.12,6.12,0,0,0-1.65.7l-.13-1.76a11,11,0,0,1,1.82-.53,8.81,8.81,0,0,1,1.9-.22,5.38,5.38,0,0,1,3.44,1,3.87,3.87,0,0,1,1.21,3.2v4.6c0,.47,0,.9,0,1.29s.06.77.1,1.16Zm-.16-5.36h-.36c-.46,0-1,0-1.52.06a5.77,5.77,0,0,0-1.53.29,3,3,0,0,0-1.18.7,1.71,1.71,0,0,0-.47,1.26,1.45,1.45,0,0,0,.64,1.29,2.75,2.75,0,0,0,1.49.4,3.22,3.22,0,0,0,1.39-.27,2.47,2.47,0,0,0,.9-.76,3.06,3.06,0,0,0,.5-1.08,6.09,6.09,0,0,0,.14-1.3Z" transform="translate(-29.05 -14.01)"/><path class="cls-2" d="M593.23,235.26v-6.62a8.5,8.5,0,0,0-.08-1.14,2.81,2.81,0,0,0-.32-1,1.8,1.8,0,0,0-.69-.68,2.41,2.41,0,0,0-1.19-.26,2.74,2.74,0,0,0-1.34.31,2.51,2.51,0,0,0-.86.82,3.35,3.35,0,0,0-.46,1.15,6.26,6.26,0,0,0-.14,1.31v6.1h-2.3V226.6c0-.43,0-.87,0-1.29s-.05-.86-.09-1.29h2.14L588,226a4,4,0,0,1,3.71-2.16,4.46,4.46,0,0,1,1.8.32,2.82,2.82,0,0,1,1.19.88,3.58,3.58,0,0,1,.65,1.39,7,7,0,0,1,.21,1.77v7.11Z" transform="translate(-29.05 -14.01)"/><path class="cls-2" d="M606.44,235l-.14-1.87a3.53,3.53,0,0,1-1.47,1.6,4.32,4.32,0,0,1-2.14.52,4.47,4.47,0,0,1-2.2-.5,4.22,4.22,0,0,1-1.47-1.31,5.28,5.28,0,0,1-.83-1.85,8.87,8.87,0,0,1-.25-2.13,8.73,8.73,0,0,1,.25-2.12,5.05,5.05,0,0,1,.83-1.82,4.27,4.27,0,0,1,1.46-1.27,4.75,4.75,0,0,1,2.21-.47,4.07,4.07,0,0,1,2,.55,3.19,3.19,0,0,1,1.41,1.58v-7.19h2.3v12.89c0,.64,0,1.23,0,1.78s0,1.08.08,1.61Zm-.36-6.86a4.36,4.36,0,0,0-.49-1.29,2.76,2.76,0,0,0-.91-1,2.41,2.41,0,0,0-1.38-.37,2.44,2.44,0,0,0-2.31,1.29,3.88,3.88,0,0,0-.44,1.28,8.34,8.34,0,0,0,0,2.76,4.2,4.2,0,0,0,.45,1.29,2.73,2.73,0,0,0,.88,1,2.54,2.54,0,0,0,1.43.38,2.4,2.4,0,0,0,1.39-.39,3.12,3.12,0,0,0,.9-1,4,4,0,0,0,.48-1.29,7.22,7.22,0,0,0,.14-1.36A6.32,6.32,0,0,0,606.08,228.15Z" transform="translate(-29.05 -14.01)"/><path class="cls-2" d="M618.54,230.13a3.9,3.9,0,0,0,.24,1.39,3.17,3.17,0,0,0,.7,1.12,3.44,3.44,0,0,0,1.12.75,3.92,3.92,0,0,0,1.49.27,7.76,7.76,0,0,0,1.71-.2,5.86,5.86,0,0,0,1.61-.6l.14,1.78a9.08,9.08,0,0,1-1.88.47,13.21,13.21,0,0,1-1.95.15,6.56,6.56,0,0,1-2.46-.42,4.58,4.58,0,0,1-1.74-1.19,4.82,4.82,0,0,1-1-1.83,7.8,7.8,0,0,1-.33-2.35,6.53,6.53,0,0,1,.36-2.16,5.67,5.67,0,0,1,1-1.81,4.84,4.84,0,0,1,3.79-1.71,5,5,0,0,1,2.18.44,4.15,4.15,0,0,1,1.49,1.22,5.13,5.13,0,0,1,.85,1.81,8.75,8.75,0,0,1,.26,2.21v.66Zm5.28-2.58a3.38,3.38,0,0,0-.42-1.08,2.36,2.36,0,0,0-.79-.78,2.25,2.25,0,0,0-1.23-.31,2.38,2.38,0,0,0-1.27.33,2.72,2.72,0,0,0-.89.83,3.8,3.8,0,0,0-.53,1.09,4,4,0,0,0-.17,1.1H624A5.33,5.33,0,0,0,623.82,227.55Z" transform="translate(-29.05 -14.01)"/><path class="cls-2" d="M629,235.26v-2.38h2.44v2.38Z" transform="translate(-29.05 -14.01)"/><path class="cls-2" d="M640.57,235.26h-2.81L632.1,220h2.66l4.48,12.87L643.78,220h2.52Z" transform="translate(-29.05 -14.01)"/><path class="cls-2" d="M646.14,235.26v-2.38h2.44v2.38Z" transform="translate(-29.05 -14.01)"/><path class="cls-2" d="M39.73,267a15,15,0,0,1-2.6.22,10.19,10.19,0,0,1-3.32-.52,7.09,7.09,0,0,1-2.54-1.51,6.79,6.79,0,0,1-1.64-2.41,8.37,8.37,0,0,1-.58-3.2,7.72,7.72,0,0,1,.61-3.12,6.81,6.81,0,0,1,1.7-2.41,7.77,7.77,0,0,1,2.57-1.56,9.11,9.11,0,0,1,3.24-.55,16,16,0,0,1,2.23.16,9.44,9.44,0,0,1,2.17.55l-.14,2a6.4,6.4,0,0,0-1.9-.66,10.63,10.63,0,0,0-2-.19,6.75,6.75,0,0,0-2.44.42,5.16,5.16,0,0,0-1.84,1.18,5.07,5.07,0,0,0-1.16,1.81,6.38,6.38,0,0,0-.4,2.32,7,7,0,0,0,.36,2.28,5.17,5.17,0,0,0,1,1.81,4.58,4.58,0,0,0,1.71,1.19,6.09,6.09,0,0,0,2.38.43,9.69,9.69,0,0,0,1.42-.1,6.37,6.37,0,0,0,1.37-.33v-4H37.2v-1.75h5v7.22A14.08,14.08,0,0,1,39.73,267Z" transform="translate(-29.05 -14.01)"/><path class="cls-2" d="M46.83,262.13a3.9,3.9,0,0,0,.24,1.39,3.17,3.17,0,0,0,.7,1.12,3.44,3.44,0,0,0,1.12.75,3.92,3.92,0,0,0,1.49.27,7.76,7.76,0,0,0,1.71-.2,6,6,0,0,0,1.61-.6l.14,1.78a9.08,9.08,0,0,1-1.88.47,13.21,13.21,0,0,1-2,.15,6.56,6.56,0,0,1-2.46-.42,4.5,4.5,0,0,1-1.74-1.19,4.82,4.82,0,0,1-1-1.83,7.49,7.49,0,0,1-.34-2.35,6.54,6.54,0,0,1,.37-2.16,5.67,5.67,0,0,1,1-1.81,4.84,4.84,0,0,1,3.79-1.71,5,5,0,0,1,2.18.44,4.15,4.15,0,0,1,1.49,1.22,5.13,5.13,0,0,1,.85,1.81,8.75,8.75,0,0,1,.26,2.21v.66Zm5.28-2.58a3.38,3.38,0,0,0-.42-1.08,2.36,2.36,0,0,0-.79-.78,2.25,2.25,0,0,0-1.23-.31,2.38,2.38,0,0,0-1.27.33,2.72,2.72,0,0,0-.89.83,3.55,3.55,0,0,0-.53,1.09,4,4,0,0,0-.17,1.1h5.43A5.33,5.33,0,0,0,52.11,259.55Z" transform="translate(-29.05 -14.01)"/><path class="cls-2" d="M62.91,258.05a1.62,1.62,0,0,0-.46-.11,3.64,3.64,0,0,0-.48,0,2.36,2.36,0,0,0-1.4.39,2.62,2.62,0,0,0-.87,1,4.65,4.65,0,0,0-.45,1.3,8.07,8.07,0,0,0-.12,1.36v5.33H56.85V258.6c0-.43,0-.87,0-1.29s0-.86-.09-1.29h2.14l.07,2.15a4.14,4.14,0,0,1,.48-.87,3.88,3.88,0,0,1,.69-.77A3.71,3.71,0,0,1,61,256a2.79,2.79,0,0,1,1-.2h.48a3,3,0,0,1,.48.08Z" transform="translate(-29.05 -14.01)"/><path class="cls-2" d="M78.66,267.26v-7.2a4.82,4.82,0,0,0-.09-1,2.15,2.15,0,0,0-.32-.79,1.76,1.76,0,0,0-.63-.54,2.28,2.28,0,0,0-1-.2,2.23,2.23,0,0,0-1.2.31,2.55,2.55,0,0,0-.78.82,3.76,3.76,0,0,0-.43,1.15,5.54,5.54,0,0,0-.14,1.29v6.12H71.79v-7.2a4.82,4.82,0,0,0-.09-1,2.34,2.34,0,0,0-.32-.79,1.85,1.85,0,0,0-.63-.54,2.28,2.28,0,0,0-1-.2,2.18,2.18,0,0,0-1.18.31,2.58,2.58,0,0,0-.79.82,3.54,3.54,0,0,0-.45,1.15,6.14,6.14,0,0,0-.13,1.29v6.12H64.91V258.6c0-.43,0-.87,0-1.29s0-.86-.09-1.29h2.14L67,258a3.68,3.68,0,0,1,3.49-2.16,4,4,0,0,1,1.24.18,3.65,3.65,0,0,1,1,.51,2.93,2.93,0,0,1,.71.74,3.39,3.39,0,0,1,.41.91,3.06,3.06,0,0,1,.57-1,3.9,3.9,0,0,1,.83-.74,3.72,3.72,0,0,1,1-.47,3.67,3.67,0,0,1,1.08-.16,4.1,4.1,0,0,1,1.61.29,3,3,0,0,1,1.12.82,3.63,3.63,0,0,1,.67,1.26,5.86,5.86,0,0,1,.21,1.61v7.49Z" transform="translate(-29.05 -14.01)"/><path class="cls-2" d="M90.75,267l-.07-1.74a3.73,3.73,0,0,1-1.52,1.45,4.38,4.38,0,0,1-2.09.53,5.38,5.38,0,0,1-1.47-.19,3.56,3.56,0,0,1-1.21-.57,2.86,2.86,0,0,1-.83-1,2.94,2.94,0,0,1-.31-1.41,3.19,3.19,0,0,1,.49-1.82,3.64,3.64,0,0,1,1.35-1.19,6.23,6.23,0,0,1,2-.65,13.25,13.25,0,0,1,2.4-.2H90a5,5,0,0,1,.57,0v-.45A2.4,2.4,0,0,0,90,258a2.7,2.7,0,0,0-2-.63,7.26,7.26,0,0,0-1.73.22,6,6,0,0,0-1.65.7l-.13-1.76a11,11,0,0,1,1.82-.53,8.79,8.79,0,0,1,1.89-.22,5.39,5.39,0,0,1,3.45,1,3.87,3.87,0,0,1,1.21,3.2v4.6c0,.47,0,.9,0,1.29s.06.77.1,1.16Zm-.16-5.36h-.36c-.46,0-1,0-1.51.06a5.76,5.76,0,0,0-1.54.29,3,3,0,0,0-1.18.7,1.71,1.71,0,0,0-.47,1.26,1.45,1.45,0,0,0,.64,1.29,2.75,2.75,0,0,0,1.49.4,3.22,3.22,0,0,0,1.39-.27,2.47,2.47,0,0,0,.9-.76,2.88,2.88,0,0,0,.49-1.08,5.51,5.51,0,0,0,.15-1.3Z" transform="translate(-29.05 -14.01)"/><path class="cls-2" d="M103.34,267.26v-6.62a8.5,8.5,0,0,0-.08-1.14,3,3,0,0,0-.32-1,1.8,1.8,0,0,0-.69-.68,2.41,2.41,0,0,0-1.19-.26,2.74,2.74,0,0,0-1.34.31,2.51,2.51,0,0,0-.86.82,3.35,3.35,0,0,0-.46,1.15,6.26,6.26,0,0,0-.14,1.31v6.1H96V258.6c0-.43,0-.87,0-1.29s0-.86-.09-1.29H98l.07,1.93a4,4,0,0,1,3.71-2.16,4.46,4.46,0,0,1,1.8.32,2.82,2.82,0,0,1,1.19.88,3.58,3.58,0,0,1,.65,1.39,7,7,0,0,1,.21,1.77v7.11Z" transform="translate(-29.05 -14.01)"/><path class="cls-2" d="M130,267.26V253.77l-5,13.49h-2.27l-5-13.49v13.49h-2.25V252h3.76l4.72,12.55L128.61,252h3.78v15.28Z" transform="translate(-29.05 -14.01)"/><path class="cls-2" d="M137.42,262.13a3.9,3.9,0,0,0,.24,1.39,3.17,3.17,0,0,0,.7,1.12,3.44,3.44,0,0,0,1.12.75,3.92,3.92,0,0,0,1.49.27,7.76,7.76,0,0,0,1.71-.2,6,6,0,0,0,1.61-.6l.14,1.78a9.08,9.08,0,0,1-1.88.47,13.21,13.21,0,0,1-2,.15,6.6,6.6,0,0,1-2.46-.42,4.46,4.46,0,0,1-1.73-1.19,4.71,4.71,0,0,1-1-1.83,7.79,7.79,0,0,1-.34-2.35,6.54,6.54,0,0,1,.37-2.16,5.87,5.87,0,0,1,1-1.81,4.84,4.84,0,0,1,3.79-1.71,5,5,0,0,1,2.18.44,4.15,4.15,0,0,1,1.49,1.22,5.13,5.13,0,0,1,.85,1.81,8.75,8.75,0,0,1,.26,2.21v.66Zm5.28-2.58a3.38,3.38,0,0,0-.42-1.08,2.36,2.36,0,0,0-.79-.78,2.25,2.25,0,0,0-1.23-.31,2.38,2.38,0,0,0-1.27.33,2.72,2.72,0,0,0-.89.83,3.8,3.8,0,0,0-.53,1.09,4,4,0,0,0-.17,1.1h5.43A5.33,5.33,0,0,0,142.7,259.55Z" transform="translate(-29.05 -14.01)"/><path class="cls-2" d="M155.22,267l-.13-1.87a3.64,3.64,0,0,1-1.47,1.6,4.32,4.32,0,0,1-2.14.52,4.54,4.54,0,0,1-2.21-.5,4.4,4.4,0,0,1-1.47-1.31,5.26,5.26,0,0,1-.82-1.85,8.87,8.87,0,0,1-.26-2.13,8.73,8.73,0,0,1,.26-2.12,5,5,0,0,1,.82-1.82,4.21,4.21,0,0,1,1.47-1.27,4.74,4.74,0,0,1,2.2-.47,4.11,4.11,0,0,1,2.06.55,3.19,3.19,0,0,1,1.41,1.58v-7.19h2.29v12.89c0,.64,0,1.23,0,1.78s0,1.08.08,1.61Zm-.35-6.86a4.36,4.36,0,0,0-.49-1.29,2.76,2.76,0,0,0-.91-.95,2.41,2.41,0,0,0-1.38-.37,2.62,2.62,0,0,0-1.45.36,2.77,2.77,0,0,0-.87.93,3.87,3.87,0,0,0-.43,1.28,7.68,7.68,0,0,0,0,2.76,4,4,0,0,0,.45,1.29,2.64,2.64,0,0,0,.88,1,2.51,2.51,0,0,0,1.43.38,2.4,2.4,0,0,0,1.39-.39,3.12,3.12,0,0,0,.9-1,4,4,0,0,0,.48-1.29,7.22,7.22,0,0,0,.14-1.36A6.32,6.32,0,0,0,154.87,260.15Z" transform="translate(-29.05 -14.01)"/><path class="cls-2" d="M160.38,253.45v-2.22h2.28v2.22Zm0,13.81V255.81h2.28v11.45Z" transform="translate(-29.05 -14.01)"/><path class="cls-2" d="M172.45,267.15a11.9,11.9,0,0,1-1.59.11,6.57,6.57,0,0,1-2.42-.43,5.16,5.16,0,0,1-1.82-1.2,5.25,5.25,0,0,1-1.14-1.84,6.68,6.68,0,0,1-.39-2.32,6.14,6.14,0,0,1,.42-2.32,4.93,4.93,0,0,1,1.19-1.8,5.26,5.26,0,0,1,1.86-1.15,6.9,6.9,0,0,1,2.42-.41,9.42,9.42,0,0,1,3,.48l-.14,1.83a8.24,8.24,0,0,0-1.15-.42,4.74,4.74,0,0,0-1.23-.17,4.28,4.28,0,0,0-1.66.3,3.39,3.39,0,0,0-1.21.83,3.64,3.64,0,0,0-.75,1.26,4.64,4.64,0,0,0-.25,1.56,4.89,4.89,0,0,0,.24,1.55,3.9,3.9,0,0,0,.72,1.29,3.39,3.39,0,0,0,1.19.88,3.86,3.86,0,0,0,1.63.33,6.17,6.17,0,0,0,2.5-.53l.11,1.82A7.52,7.52,0,0,1,172.45,267.15Z" transform="translate(-29.05 -14.01)"/><path class="cls-2" d="M182.9,267l-.07-1.74a3.73,3.73,0,0,1-1.52,1.45,4.41,4.41,0,0,1-2.09.53,5.46,5.46,0,0,1-1.48-.19,3.51,3.51,0,0,1-1.2-.57,2.86,2.86,0,0,1-.83-1,2.94,2.94,0,0,1-.31-1.41,3.19,3.19,0,0,1,.49-1.82,3.69,3.69,0,0,1,1.34-1.19,6.38,6.38,0,0,1,2-.65,13.25,13.25,0,0,1,2.4-.2h.55a5.06,5.06,0,0,1,.57,0v-.45a2.4,2.4,0,0,0-.63-1.8,2.7,2.7,0,0,0-2-.63,7.34,7.34,0,0,0-1.74.22,6.06,6.06,0,0,0-1.64.7l-.14-1.76a11.39,11.39,0,0,1,1.83-.53,8.79,8.79,0,0,1,1.89-.22,5.36,5.36,0,0,1,3.44,1A3.84,3.84,0,0,1,185,260v4.6c0,.47,0,.9,0,1.29s.05.77.1,1.16Zm-.16-5.36h-.37c-.45,0-1,0-1.51.06a5.69,5.69,0,0,0-1.53.29,2.94,2.94,0,0,0-1.18.7,1.71,1.71,0,0,0-.47,1.26,1.43,1.43,0,0,0,.64,1.29,2.72,2.72,0,0,0,1.49.4,3.22,3.22,0,0,0,1.39-.27,2.47,2.47,0,0,0,.9-.76,3,3,0,0,0,.49-1.08,5.51,5.51,0,0,0,.15-1.3Z" transform="translate(-29.05 -14.01)"/><path class="cls-2" d="M188.11,267.26V250.73h2.28v16.53Z" transform="translate(-29.05 -14.01)"/><path class="cls-2" d="M208.69,264.85a4.18,4.18,0,0,1-1.23,1.35,5.49,5.49,0,0,1-1.77.79,8,8,0,0,1-2.08.27,14.73,14.73,0,0,1-2.1-.15,10.23,10.23,0,0,1-2-.51l.12-2.13a6.8,6.8,0,0,0,1.86.71,9.52,9.52,0,0,0,2,.2,5.17,5.17,0,0,0,1.19-.13,3,3,0,0,0,1-.43,2.14,2.14,0,0,0,1-1.89,1.47,1.47,0,0,0-.24-.83,2.66,2.66,0,0,0-.64-.66,7.09,7.09,0,0,0-.89-.56c-.32-.17-.64-.33-1-.47l-1.56-.76a9.85,9.85,0,0,1-1.16-.63,4.78,4.78,0,0,1-.94-.77,3.29,3.29,0,0,1-.63-1,3.34,3.34,0,0,1-.23-1.27,3.31,3.31,0,0,1,.5-1.84,4.12,4.12,0,0,1,1.31-1.25,5.88,5.88,0,0,1,1.79-.71,8.81,8.81,0,0,1,2-.22,14.22,14.22,0,0,1,1.73.11,10.72,10.72,0,0,1,1.68.37l-.13,2a5.67,5.67,0,0,0-1.56-.48,10.46,10.46,0,0,0-1.63-.14,6.94,6.94,0,0,0-1.11.1,3.71,3.71,0,0,0-1,.34,2.12,2.12,0,0,0-.74.65,1.68,1.68,0,0,0-.29,1,1.31,1.31,0,0,0,.21.74,2.23,2.23,0,0,0,.52.59,3.71,3.71,0,0,0,.75.48l.83.41,1.63.75a13,13,0,0,1,1.29.66,4.93,4.93,0,0,1,1.07.83,3.83,3.83,0,0,1,.72,1.09,3.64,3.64,0,0,1,.26,1.42A3.76,3.76,0,0,1,208.69,264.85Z" transform="translate(-29.05 -14.01)"/><path class="cls-2" d="M216.54,267.16a7.14,7.14,0,0,1-1.1.1A3.23,3.23,0,0,1,214,267a2.07,2.07,0,0,1-.87-.81,3.2,3.2,0,0,1-.42-1.22,8.89,8.89,0,0,1-.11-1.5v-6h-2.11v-1.66h2.11v-2.47l2.28-.76v3.23h2.56v1.66h-2.56v6.22a4.94,4.94,0,0,0,.05.68,1.46,1.46,0,0,0,.22.56,1.11,1.11,0,0,0,.44.39,1.47,1.47,0,0,0,.71.15,3,3,0,0,0,1.26-.28l.11,1.7A7.71,7.71,0,0,1,216.54,267.16Z" transform="translate(-29.05 -14.01)"/><path class="cls-2" d="M227.25,267l-.07-1.91a4,4,0,0,1-3.69,2.16,4.32,4.32,0,0,1-1.8-.33,3,3,0,0,1-1.17-.91,3.44,3.44,0,0,1-.65-1.39,7.55,7.55,0,0,1-.2-1.77v-7.07H222v6.57a7.11,7.11,0,0,0,.09,1.14,2.87,2.87,0,0,0,.32,1,1.8,1.8,0,0,0,.68.69,2.37,2.37,0,0,0,1.18.26,2.54,2.54,0,0,0,1.33-.32,2.64,2.64,0,0,0,.85-.81,3.59,3.59,0,0,0,.46-1.14,6.33,6.33,0,0,0,.13-1.31v-6.08h2.3v8.64c0,.43,0,.86,0,1.29s0,.86.09,1.29Z" transform="translate(-29.05 -14.01)"/><path class="cls-2" d="M240.23,267l-.14-1.87a3.53,3.53,0,0,1-1.47,1.6,4.32,4.32,0,0,1-2.14.52,4.47,4.47,0,0,1-2.2-.5,4.22,4.22,0,0,1-1.47-1.31,5.28,5.28,0,0,1-.83-1.85,8.87,8.87,0,0,1-.25-2.13,8.73,8.73,0,0,1,.25-2.12,5.05,5.05,0,0,1,.83-1.82,4.27,4.27,0,0,1,1.46-1.27,4.78,4.78,0,0,1,2.21-.47,4.07,4.07,0,0,1,2.05.55,3.19,3.19,0,0,1,1.41,1.58v-7.19h2.3v12.89c0,.64,0,1.23,0,1.78s0,1.08.08,1.61Zm-.36-6.86a4.36,4.36,0,0,0-.49-1.29,2.83,2.83,0,0,0-.9-.95,2.46,2.46,0,0,0-1.39-.37,2.44,2.44,0,0,0-2.31,1.29,3.88,3.88,0,0,0-.44,1.28,9.38,9.38,0,0,0-.11,1.38,8.22,8.22,0,0,0,.12,1.38,4.48,4.48,0,0,0,.45,1.29,2.73,2.73,0,0,0,.88,1,2.54,2.54,0,0,0,1.43.38,2.4,2.4,0,0,0,1.39-.39,3.12,3.12,0,0,0,.9-1,4,4,0,0,0,.48-1.29,6.48,6.48,0,0,0,.14-1.36A6.32,6.32,0,0,0,239.87,260.15Z" transform="translate(-29.05 -14.01)"/><path class="cls-2" d="M247,262.13a3.9,3.9,0,0,0,.24,1.39,3.17,3.17,0,0,0,.7,1.12,3.44,3.44,0,0,0,1.12.75,3.92,3.92,0,0,0,1.49.27,7.76,7.76,0,0,0,1.71-.2,6,6,0,0,0,1.61-.6l.14,1.78a9.08,9.08,0,0,1-1.88.47,13.21,13.21,0,0,1-1.95.15,6.6,6.6,0,0,1-2.46-.42,4.46,4.46,0,0,1-1.73-1.19,4.71,4.71,0,0,1-1-1.83,7.79,7.79,0,0,1-.34-2.35,6.54,6.54,0,0,1,.37-2.16,5.87,5.87,0,0,1,1-1.81,4.84,4.84,0,0,1,3.79-1.71,5,5,0,0,1,2.18.44,4.15,4.15,0,0,1,1.49,1.22,5.13,5.13,0,0,1,.85,1.81,8.75,8.75,0,0,1,.26,2.21v.66Zm5.28-2.58a3.38,3.38,0,0,0-.42-1.08,2.36,2.36,0,0,0-.79-.78,2.25,2.25,0,0,0-1.23-.31,2.38,2.38,0,0,0-1.27.33,2.72,2.72,0,0,0-.89.83,3.8,3.8,0,0,0-.53,1.09,4,4,0,0,0-.17,1.1h5.43A5.33,5.33,0,0,0,252.32,259.55Z" transform="translate(-29.05 -14.01)"/><path class="cls-2" d="M264.44,267.26v-6.62a8.5,8.5,0,0,0-.08-1.14,3,3,0,0,0-.32-1,2,2,0,0,0-.69-.68,2.41,2.41,0,0,0-1.19-.26,2.74,2.74,0,0,0-1.34.31,2.51,2.51,0,0,0-.86.82,3.35,3.35,0,0,0-.46,1.15,6.26,6.26,0,0,0-.14,1.31v6.1h-2.3V258.6c0-.43,0-.87,0-1.29s-.05-.86-.09-1.29h2.14l.07,1.93a4,4,0,0,1,3.71-2.16,4.46,4.46,0,0,1,1.8.32,2.88,2.88,0,0,1,1.19.88,3.72,3.72,0,0,1,.65,1.39,7,7,0,0,1,.21,1.77v7.11Z" transform="translate(-29.05 -14.01)"/><path class="cls-2" d="M274.41,267.16a7.14,7.14,0,0,1-1.1.1,3.3,3.3,0,0,1-1.48-.29,2.19,2.19,0,0,1-.87-.81,3.38,3.38,0,0,1-.41-1.22,8.85,8.85,0,0,1-.12-1.5v-6h-2.1v-1.66h2.1v-2.47l2.28-.76v3.23h2.57v1.66h-2.57v6.22a3.74,3.74,0,0,0,.06.68,1.46,1.46,0,0,0,.22.56,1.15,1.15,0,0,0,.43.39,1.49,1.49,0,0,0,.71.15,3,3,0,0,0,1.26-.28l.12,1.7A7.71,7.71,0,0,1,274.41,267.16Z" transform="translate(-29.05 -14.01)"/><path class="cls-2" d="M284.34,265.43a3.31,3.31,0,0,1-1,1,4.64,4.64,0,0,1-1.42.6,6.68,6.68,0,0,1-1.6.2,11.75,11.75,0,0,1-1.78-.13,9.62,9.62,0,0,1-1.74-.43l.14-1.85a6.07,6.07,0,0,0,1.54.57,7.36,7.36,0,0,0,1.61.18,3.32,3.32,0,0,0,.81-.1,2.68,2.68,0,0,0,.78-.29,1.92,1.92,0,0,0,.56-.5,1.27,1.27,0,0,0,.22-.74,1.3,1.3,0,0,0-.42-1,3.87,3.87,0,0,0-1-.66,13.53,13.53,0,0,0-1.37-.52,7.37,7.37,0,0,1-1.37-.6,3.42,3.42,0,0,1-1.05-.91,2.27,2.27,0,0,1-.41-1.39,2.54,2.54,0,0,1,.4-1.44,3.05,3.05,0,0,1,1-1,4.48,4.48,0,0,1,1.39-.54,7.21,7.21,0,0,1,1.52-.16,9.24,9.24,0,0,1,1.57.13,8.56,8.56,0,0,1,1.53.38l-.14,1.7a6.76,6.76,0,0,0-1.36-.4,7.21,7.21,0,0,0-1.41-.15,5.12,5.12,0,0,0-.78.06,2.76,2.76,0,0,0-.72.23,1.48,1.48,0,0,0-.54.45,1.2,1.2,0,0,0-.21.74.89.89,0,0,0,.42.77,4.76,4.76,0,0,0,1,.55c.42.17.88.34,1.37.51a7,7,0,0,1,1.37.67,3.42,3.42,0,0,1,1,1,2.56,2.56,0,0,1,.42,1.51A2.78,2.78,0,0,1,284.34,265.43Z" transform="translate(-29.05 -14.01)"/><path class="cls-2" d="M288,256h-1.69l1.33-5.28H290Z" transform="translate(-29.05 -14.01)"/><path class="cls-2" d="M310.87,267.26l-1.47-4h-7.08l-1.51,4h-2.43l6-15.28h3.14l6,15.28Zm-5-13.52-2.93,7.67h5.84Z" transform="translate(-29.05 -14.01)"/><path class="cls-2" d="M321.82,265.43a3.2,3.2,0,0,1-1,1,4.48,4.48,0,0,1-1.41.6,6.74,6.74,0,0,1-1.6.2,11.88,11.88,0,0,1-1.79-.13,9.31,9.31,0,0,1-1.73-.43l.14-1.85a6.07,6.07,0,0,0,1.54.57,7.29,7.29,0,0,0,1.61.18,3.32,3.32,0,0,0,.81-.1,2.73,2.73,0,0,0,.77-.29,1.7,1.7,0,0,0,.56-.5,1.2,1.2,0,0,0,.22-.74,1.29,1.29,0,0,0-.41-1,4.1,4.1,0,0,0-1-.66,13.33,13.33,0,0,0-1.36-.52,7.09,7.09,0,0,1-1.37-.6,3.42,3.42,0,0,1-1.05-.91,2.21,2.21,0,0,1-.41-1.39,2.47,2.47,0,0,1,.4-1.44,3.05,3.05,0,0,1,1-1,4.38,4.38,0,0,1,1.39-.54,7.21,7.21,0,0,1,1.52-.16,9.32,9.32,0,0,1,1.57.13,8.45,8.45,0,0,1,1.52.38l-.13,1.7a6.86,6.86,0,0,0-1.37-.4,7.05,7.05,0,0,0-1.41-.15,5.12,5.12,0,0,0-.78.06,2.76,2.76,0,0,0-.72.23,1.48,1.48,0,0,0-.54.45,1.27,1.27,0,0,0-.2.74.9.9,0,0,0,.41.77,5.11,5.11,0,0,0,1,.55c.42.17.88.34,1.37.51a6.88,6.88,0,0,1,1.36.67,3.46,3.46,0,0,1,1.05,1,2.56,2.56,0,0,1,.41,1.51A2.78,2.78,0,0,1,321.82,265.43Z" transform="translate(-29.05 -14.01)"/><path class="cls-2" d="M331.28,265.43a3.31,3.31,0,0,1-1,1,4.54,4.54,0,0,1-1.42.6,6.6,6.6,0,0,1-1.59.2,11.88,11.88,0,0,1-1.79-.13,9.31,9.31,0,0,1-1.73-.43l.13-1.85a6.22,6.22,0,0,0,1.54.57,7.43,7.43,0,0,0,1.61.18,3.4,3.4,0,0,0,.82-.1,2.73,2.73,0,0,0,.77-.29,1.7,1.7,0,0,0,.56-.5,1.2,1.2,0,0,0,.22-.74,1.33,1.33,0,0,0-.41-1,4.1,4.1,0,0,0-1.05-.66,13.53,13.53,0,0,0-1.37-.52,7.28,7.28,0,0,1-1.36-.6,3.21,3.21,0,0,1-1.05-.91,2.21,2.21,0,0,1-.41-1.39,2.47,2.47,0,0,1,.4-1.44,3.12,3.12,0,0,1,1-1,4.57,4.57,0,0,1,1.39-.54,7.3,7.3,0,0,1,1.53-.16,9.32,9.32,0,0,1,1.57.13,8.67,8.67,0,0,1,1.52.38L331,258a6.57,6.57,0,0,0-1.36-.4,7.21,7.21,0,0,0-1.41-.15,5.12,5.12,0,0,0-.78.06,2.76,2.76,0,0,0-.72.23,1.48,1.48,0,0,0-.54.45,1.2,1.2,0,0,0-.2.74.88.88,0,0,0,.41.77,4.86,4.86,0,0,0,1.05.55c.42.17.87.34,1.36.51a7,7,0,0,1,1.37.67,3.58,3.58,0,0,1,1.05,1,2.56,2.56,0,0,1,.41,1.51A2.78,2.78,0,0,1,331.28,265.43Z" transform="translate(-29.05 -14.01)"/><path class="cls-2" d="M344.23,263.78a5.17,5.17,0,0,1-1.09,1.84,5,5,0,0,1-1.78,1.21,7.05,7.05,0,0,1-4.85,0,4.89,4.89,0,0,1-1.78-1.21,5.45,5.45,0,0,1-1.08-1.84,7.08,7.08,0,0,1-.36-2.31,6.31,6.31,0,0,1,.4-2.3,5,5,0,0,1,2.92-3,6.2,6.2,0,0,1,2.33-.42,6.74,6.74,0,0,1,2.42.41,5,5,0,0,1,1.78,1.14,4.68,4.68,0,0,1,1.09,1.8,6.9,6.9,0,0,1,.37,2.33A6.83,6.83,0,0,1,344.23,263.78ZM341.94,260a3.86,3.86,0,0,0-.54-1.28,2.89,2.89,0,0,0-1-.9,2.83,2.83,0,0,0-1.49-.35,2.75,2.75,0,0,0-1.46.35,2.82,2.82,0,0,0-1,.91,4.07,4.07,0,0,0-.55,1.28,5.67,5.67,0,0,0-.17,1.41,6.15,6.15,0,0,0,.17,1.47,3.93,3.93,0,0,0,.55,1.29,3,3,0,0,0,1,.93,3.12,3.12,0,0,0,2.91,0,2.92,2.92,0,0,0,1-.92,4,4,0,0,0,.55-1.28,6.74,6.74,0,0,0,.17-1.49A6.87,6.87,0,0,0,341.94,260Z" transform="translate(-29.05 -14.01)"/><path class="cls-2" d="M353.69,267.15a11.64,11.64,0,0,1-1.58.11,6.66,6.66,0,0,1-2.43-.43,5.21,5.21,0,0,1-1.81-1.2,5.11,5.11,0,0,1-1.14-1.84,6.68,6.68,0,0,1-.39-2.32,6.14,6.14,0,0,1,.42-2.32,4.93,4.93,0,0,1,1.19-1.8,5.26,5.26,0,0,1,1.86-1.15,6.9,6.9,0,0,1,2.42-.41,9.42,9.42,0,0,1,3,.48l-.14,1.83a7.93,7.93,0,0,0-1.16-.42,4.6,4.6,0,0,0-1.22-.17,4.28,4.28,0,0,0-1.66.3,3.39,3.39,0,0,0-1.21.83,3.64,3.64,0,0,0-.75,1.26,4.64,4.64,0,0,0-.25,1.56,4.89,4.89,0,0,0,.24,1.55,3.9,3.9,0,0,0,.72,1.29,3.39,3.39,0,0,0,1.19.88,3.83,3.83,0,0,0,1.63.33,6.09,6.09,0,0,0,2.49-.53l.12,1.82A7.46,7.46,0,0,1,353.69,267.15Z" transform="translate(-29.05 -14.01)"/><path class="cls-2" d="M357.52,253.45v-2.22h2.28v2.22Zm0,13.81V255.81h2.28v11.45Z" transform="translate(-29.05 -14.01)"/><path class="cls-2" d="M369.58,267l-.07-1.74a3.8,3.8,0,0,1-1.52,1.45,4.42,4.42,0,0,1-2.1.53,5.38,5.38,0,0,1-1.47-.19,3.65,3.65,0,0,1-1.21-.57,2.83,2.83,0,0,1-.82-1,2.94,2.94,0,0,1-.31-1.41,3.19,3.19,0,0,1,.49-1.82,3.69,3.69,0,0,1,1.34-1.19,6.38,6.38,0,0,1,2-.65,13.06,13.06,0,0,1,2.39-.2h.56a5.06,5.06,0,0,1,.57,0v-.45a2.4,2.4,0,0,0-.63-1.8,2.73,2.73,0,0,0-2-.63,7.26,7.26,0,0,0-1.73.22,6.06,6.06,0,0,0-1.64.7l-.14-1.76a11.1,11.1,0,0,1,1.83-.53,8.79,8.79,0,0,1,1.89-.22,5.38,5.38,0,0,1,3.44,1,3.87,3.87,0,0,1,1.22,3.2v4.6q0,.71,0,1.29c0,.39.06.77.11,1.16Zm-.16-5.36h-.37c-.46,0-1,0-1.51.06A5.69,5.69,0,0,0,366,262a2.94,2.94,0,0,0-1.18.7,1.67,1.67,0,0,0-.47,1.26,1.43,1.43,0,0,0,.64,1.29,2.72,2.72,0,0,0,1.49.4,3.14,3.14,0,0,0,1.38-.27,2.43,2.43,0,0,0,.91-.76,3,3,0,0,0,.49-1.08,5.51,5.51,0,0,0,.15-1.3Z" transform="translate(-29.05 -14.01)"/><path class="cls-2" d="M379.61,267.16a7.14,7.14,0,0,1-1.1.1A3.3,3.3,0,0,1,377,267a2.19,2.19,0,0,1-.87-.81,3.38,3.38,0,0,1-.41-1.22,8.85,8.85,0,0,1-.12-1.5v-6h-2.11v-1.66h2.11v-2.47l2.28-.76v3.23h2.57v1.66h-2.57v6.22a3.74,3.74,0,0,0,.06.68,1.46,1.46,0,0,0,.22.56,1.08,1.08,0,0,0,.43.39,1.49,1.49,0,0,0,.71.15,3,3,0,0,0,1.26-.28l.12,1.7A7.71,7.71,0,0,1,379.61,267.16Z" transform="translate(-29.05 -14.01)"/><path class="cls-2" d="M382.8,253.45v-2.22h2.29v2.22Zm0,13.81V255.81h2.29v11.45Z" transform="translate(-29.05 -14.01)"/><path class="cls-2" d="M398.46,263.78a5.19,5.19,0,0,1-1.1,1.84,4.89,4.89,0,0,1-1.78,1.21,6.47,6.47,0,0,1-2.41.43,6.6,6.6,0,0,1-2.44-.43,4.85,4.85,0,0,1-1.77-1.21,5.3,5.3,0,0,1-1.08-1.84,6.83,6.83,0,0,1-.37-2.31,6.31,6.31,0,0,1,.41-2.3,5.05,5.05,0,0,1,1.13-1.8,5.27,5.27,0,0,1,1.79-1.16,6.16,6.16,0,0,1,2.33-.42,6.69,6.69,0,0,1,2.41.41,4.87,4.87,0,0,1,1.78,1.14,4.7,4.7,0,0,1,1.1,1.8,7.16,7.16,0,0,1,.37,2.33A7.08,7.08,0,0,1,398.46,263.78ZM396.17,260a3.86,3.86,0,0,0-.54-1.28,3.09,3.09,0,0,0-1-.9,2.86,2.86,0,0,0-1.49-.35,2.81,2.81,0,0,0-1.47.35,2.91,2.91,0,0,0-1,.91,4.31,4.31,0,0,0-.55,1.28,6.18,6.18,0,0,0-.17,1.41,6.7,6.7,0,0,0,.17,1.47,4.16,4.16,0,0,0,.55,1.29,3.08,3.08,0,0,0,1,.93,3.14,3.14,0,0,0,2.92,0,3,3,0,0,0,1-.92,3.79,3.79,0,0,0,.55-1.28,6.2,6.2,0,0,0,.18-1.49A6.87,6.87,0,0,0,396.17,260Z" transform="translate(-29.05 -14.01)"/><path class="cls-2" d="M408.66,267.26v-6.62a8.5,8.5,0,0,0-.08-1.14,3,3,0,0,0-.32-1,1.8,1.8,0,0,0-.69-.68,2.41,2.41,0,0,0-1.19-.26,2.74,2.74,0,0,0-1.34.31,2.51,2.51,0,0,0-.86.82,3.35,3.35,0,0,0-.46,1.15,6.26,6.26,0,0,0-.14,1.31v6.1h-2.3V258.6c0-.43,0-.87,0-1.29s-.05-.86-.09-1.29h2.14l.07,1.93a4,4,0,0,1,3.71-2.16,4.46,4.46,0,0,1,1.8.32,2.82,2.82,0,0,1,1.19.88,3.58,3.58,0,0,1,.65,1.39,7,7,0,0,1,.21,1.77v7.11Z" transform="translate(-29.05 -14.01)"/><path class="cls-3" d="M90.61,152.22A43.65,43.65,0,0,1,84.38,165a33.17,33.17,0,0,1-10.18,9.37A26.7,26.7,0,0,1,60.29,178q-7.56,0-11.35-3.45a18.15,18.15,0,0,1-5.24-8.38l-2.56,10.54H29.91L48.58,91.24h12.2l-7.93,36.39a25,25,0,0,1,8.84-7.84A25.61,25.61,0,0,1,73.83,117q6.35,0,10.13,2.4a17,17,0,0,1,5.73,5.74,19.34,19.34,0,0,1,2.5,7,43.14,43.14,0,0,1,.55,6.27A47.44,47.44,0,0,1,90.61,152.22ZM77.18,129.67Q74.61,126,68.52,126a14.76,14.76,0,0,0-9.27,3,26.23,26.23,0,0,0-6.59,7.49,35.81,35.81,0,0,0-4,9.57,38.18,38.18,0,0,0-1.28,9.22,22.73,22.73,0,0,0,.55,5.08,13.33,13.33,0,0,0,1.83,4.38,9.25,9.25,0,0,0,3.42,3.11A11.32,11.32,0,0,0,58.64,169a14.67,14.67,0,0,0,9.45-3.17A26.51,26.51,0,0,0,74.68,158a37.33,37.33,0,0,0,3.84-9.91,42.58,42.58,0,0,0,1.22-9.51A15.17,15.17,0,0,0,77.18,129.67Z" transform="translate(-29.05 -14.01)"/><path class="cls-3" d="M124.76,178H108.9l-7.2-61h12.81l4,51.12L143.91,117H157Z" transform="translate(-29.05 -14.01)"/><path class="cls-3" d="M249.42,134.86c-.16,1.08-.36,2.17-.61,3.29L240.23,178H227.76l8.3-38.76a24,24,0,0,0,.61-5.25q0-8-8.42-8a13.12,13.12,0,0,0-6.59,1.67,18.16,18.16,0,0,0-5.12,4.35,26.19,26.19,0,0,0-3.66,6,35.57,35.57,0,0,0-2.2,6.38L203.48,178H191.16l8.3-38.76a24,24,0,0,0,.61-5.25q0-4.17-2.2-6.08c-1.46-1.27-3.62-1.91-6.46-1.91a12.74,12.74,0,0,0-6.59,1.73,19.26,19.26,0,0,0-5.13,4.41A25,25,0,0,0,176.1,138a30.42,30.42,0,0,0-2,6.32L166.89,178H154.56l9.89-46q.72-3.47,1.34-6.88c.4-2.27.73-4.56,1-6.88h11.59l-1.83,10.41a28.77,28.77,0,0,1,9.15-8.67A24.5,24.5,0,0,1,198,117a15.23,15.23,0,0,1,9.89,3.36,12,12,0,0,1,4.39,9.33,29.43,29.43,0,0,1,9-9.15A22.23,22.23,0,0,1,233.62,117q7.09,0,11.57,3.71t4.48,10.88A21,21,0,0,1,249.42,134.86Z" transform="translate(-29.05 -14.01)"/><path class="cls-3" d="M310.77,158.62q-1.09,5.06-1.83,9.44c-.49,2.93-1,5.79-1.46,8.6H296.13l1.46-10a27.08,27.08,0,0,1-9.51,8.54A25.51,25.51,0,0,1,276.25,178a19.64,19.64,0,0,1-8.73-1.76,16.92,16.92,0,0,1-5.86-4.56,18.93,18.93,0,0,1-3.35-6.5,26.42,26.42,0,0,1-1.1-7.55A49.65,49.65,0,0,1,259.65,142,42.51,42.51,0,0,1,266.36,129a33.25,33.25,0,0,1,10.13-8.78A25.71,25.71,0,0,1,289.3,117a21.15,21.15,0,0,1,5.61.73,16.51,16.51,0,0,1,4.88,2.2,13.87,13.87,0,0,1,3.66,3.54,13.11,13.11,0,0,1,2.07,4.63L313.33,90h12.33Zm-8.9-24.22a12.84,12.84,0,0,0-1.83-4.33,9,9,0,0,0-3.42-3,11.4,11.4,0,0,0-5.3-1.1,15.27,15.27,0,0,0-9.58,3,24.93,24.93,0,0,0-6.53,7.61,36.9,36.9,0,0,0-3.78,9.8,42.58,42.58,0,0,0-1.22,9.51,21.94,21.94,0,0,0,.55,5,11.1,11.1,0,0,0,1.89,4.15,9.29,9.29,0,0,0,3.54,2.82,12.51,12.51,0,0,0,5.37,1,14.3,14.3,0,0,0,9.15-3.11,27.14,27.14,0,0,0,6.52-7.61,36.83,36.83,0,0,0,3.91-9.63,38.84,38.84,0,0,0,1.28-9.28A22,22,0,0,0,301.87,134.4Z" transform="translate(-29.05 -14.01)"/></g><g id="ekg"><path class="cls-4" d="M298.28,174.71h53.09s3.3-4.33,6.81-4.33,6.18,3.94,6.18,3.94h22.17l3.72,12.78,8.45-94.79L407.36,193l3.92-18.68h23.93S447,158.19,455,158.19s18.57,16.13,18.57,16.13h20.58" transform="translate(-29.05 -14.01)"/><path class="cls-5" d="M489.15,174.25h6.08s3.3-4.33,6.81-4.33,6.19,3.93,6.19,3.93H530.4l3.71,12.79,8.46-94.79,8.66,100.69,3.92-18.69h23.93s11.76-16.12,19.8-16.12,18.56,16.12,18.56,16.12h12.93" transform="translate(-29.05 -14.01)"/><line class="cls-5" x1="601.28" y1="159.79" x2="621.37" y2="159.79"/></g></svg>