<?xml version="1.0" encoding="utf-8"?>
<!-- Generator: Adobe Illustrator 24.1.0, SVG Export Plug-In . SVG Version: 6.00 Build 0)  -->
<svg version="1.1" id="Layer_1" xmlns="http://www.w3.org/2000/svg" xmlns:xlink="http://www.w3.org/1999/xlink" x="0px" y="0px"
	 viewBox="0 0 595.5 222.1" style="enable-background:new 0 0 595.5 222.1;" xml:space="preserve">
<style type="text/css">
	.st0{fill:#101441;}
	.st1{fill:#ED1171;}
</style>
<path class="st0" d="M585.9,3.6V92h9.6v23.1h-9.6v23.8h-33.8v-23.8h-40.1V92l29.2-88.4L585.9,3.6z M552.2,92V34.5L537.3,92H552.2z"
	/>
<path class="st1" d="M235.7,146.5v15.1c1.4-1.3,2.9-2.3,4.6-3c1.7-0.7,3.5-1,5.4-1c2.7-0.1,5.3,0.7,7.5,2.2c1.8,1.2,3.2,3,3.8,5.1
	c0.6,3.5,0.8,7.1,0.7,10.6v37.9h-16.7v-38.6c0.1-2.1-0.1-4.1-0.5-6.2c-0.5-1.2-1.8-1.7-3-1.2c-0.6,0.2-1,0.7-1.2,1.2
	c-0.5,1.8-0.6,3.7-0.5,5.6v39.2H219v-67L235.7,146.5z"/>
<path class="st1" d="M301.2,187h-21.6v11.9c-0.1,1.6,0.1,3.2,0.5,4.8c0.4,0.7,1.2,1.2,2.1,1.1c1.1,0.1,2.1-0.5,2.5-1.4
	c0.5-1.8,0.8-3.7,0.6-5.5v-7.2h15.8v4.1c0.1,2.6-0.1,5.2-0.6,7.8c-0.6,2.1-1.6,4.1-3,5.8c-1.6,2.1-3.6,3.7-6,4.6
	c-2.9,1.1-6,1.6-9.1,1.6c-3.2,0.1-6.4-0.5-9.4-1.5c-2.4-0.8-4.6-2.3-6.3-4.2c-1.5-1.7-2.5-3.7-3.1-5.9c-0.7-3.1-1-6.2-0.9-9.3v-16
	c0-4.8,0.6-8.6,1.9-11.4c1.3-2.8,3.6-5.1,6.4-6.4c3.2-1.5,6.7-2.3,10.2-2.2c4-0.2,8,0.8,11.6,2.7c2.9,1.6,5.1,4.1,6.4,7.1
	c1.2,2.9,1.8,7.1,1.8,12.4L301.2,187z M284.5,178v-4c0.1-1.8-0.1-3.7-0.5-5.5c-0.3-0.8-1-1.3-1.9-1.2c-1.2,0-1.9,0.4-2.1,1.1
	c-0.4,1.9-0.5,3.8-0.4,5.7v4H284.5z"/>
<path class="st1" d="M321.6,179.8h-15.7v-3.7c0-4.2,0.5-7.5,1.5-9.8c1.3-2.6,3.3-4.7,5.9-6.1c3-1.8,6.8-2.6,11.5-2.6
	c5.6,0,9.9,1,12.8,3c2.6,1.7,4.5,4.3,5.2,7.4c0.6,2.9,0.9,8.9,0.9,18v27.6h-16.3v-4.9c-1.8,3.7-5.6,6.1-9.7,5.9
	c-2.9,0-5.6-0.8-8-2.5c-2.4-1.6-3.7-5.2-3.7-10.8v-4.5c0-4.1,0.6-6.9,1.9-8.4s4.5-3.2,9.6-5.2c5.5-2.2,8.4-3.6,8.8-4.4
	c0.5-1.5,0.7-3,0.6-4.6c0-2.9-0.2-4.7-0.6-5.6c-0.4-0.8-1.2-1.4-2.1-1.3c-1.1,0-1.8,0.4-2.1,1.1c-0.4,1.9-0.5,3.8-0.4,5.7
	L321.6,179.8z M326.9,187.4c-2.7,2-4.2,3.6-4.6,4.9c-0.5,1.9-0.7,3.8-0.6,5.7c0,2.8,0.2,4.7,0.5,5.5c0.4,0.8,1.3,1.3,2.2,1.2
	c0.8,0.1,1.6-0.3,2-1c0.3-0.6,0.5-2.4,0.5-5.1L326.9,187.4z"/>
<path class="st1" d="M366.6,146.5v67h-17.2v-67H366.6z"/>
<path class="st1" d="M390.2,151.2v8.6h4.6v8.7h-4.5v29.4c0,3.6,0.2,5.6,0.6,6c0.4,0.4,1.9,0.6,4.6,0.6v8.9h-6.7
	c-2.7,0.1-5.5-0.1-8.1-0.5c-1.6-0.3-3.1-1.1-4.3-2.2c-1.2-1-2-2.4-2.3-3.9c-0.4-3.5-0.6-6.9-0.5-10.4v-27.8h-3.6v-8.7h3.6v-8.6
	L390.2,151.2z"/>
<path class="st1" d="M415.1,146.5v15.1c1.4-1.3,2.9-2.3,4.7-3c1.7-0.7,3.5-1,5.4-1c2.7-0.1,5.3,0.7,7.5,2.2c1.8,1.2,3.2,3,3.8,5.1
	c0.6,3.5,0.8,7.1,0.7,10.6v37.9h-16.7v-38.6c0.1-2.1-0.1-4.1-0.5-6.2c-0.5-1.2-1.8-1.7-3-1.2c-0.5,0.2-1,0.7-1.2,1.2
	c-0.5,1.8-0.6,3.7-0.5,5.6v39.2h-16.7v-67L415.1,146.5z"/>
<path class="st1" d="M479.8,179.3H464V173c0.1-1.5-0.1-3-0.5-4.5c-0.3-0.8-1.1-1.3-2-1.2c-0.8-0.1-1.6,0.3-1.9,1
	c-0.4,1.5-0.6,3.1-0.5,4.6v25.9c-0.1,1.5,0.2,3,0.7,4.4c0.4,0.9,1.2,1.5,2.2,1.5c1,0.1,2-0.6,2.3-1.5c0.5-1.9,0.7-3.8,0.6-5.8v-6.5
	h14.9c0,3.3-0.1,6.6-0.5,9.9c-0.4,2.4-1.3,4.7-2.8,6.7c-1.5,2.3-3.6,4.1-6.1,5.2c-2.9,1.3-6.1,1.9-9.3,1.8c-4.7,0-8.5-0.8-11.2-2.4
	c-2.7-1.5-4.7-3.9-5.9-6.8c-1.2-2.9-1.7-7-1.7-12.4v-15.6c0-4.7,0.5-8.2,1.4-10.6s2.9-4.5,6-6.3c3.4-2,7.3-2.9,11.2-2.8
	c3.9-0.1,7.8,0.8,11.2,2.8c2.8,1.5,5,4,6.2,7C479.2,170.1,479.8,174.1,479.8,179.3z"/>
<path class="st1" d="M499.6,179.8h-15.7v-3.7c0-4.2,0.5-7.5,1.5-9.8c1.3-2.6,3.3-4.7,5.9-6.1c3-1.8,6.8-2.6,11.5-2.6
	c5.7,0,9.9,1,12.8,3c2.6,1.7,4.5,4.3,5.2,7.4c0.6,2.9,0.9,8.9,0.9,18v27.6h-16.2v-4.9c-1.7,3.8-5.6,6.1-9.7,5.9
	c-2.9,0-5.6-0.8-8-2.5c-2.4-1.6-3.7-5.2-3.7-10.8v-4.5c0-4.1,0.6-6.9,1.9-8.4c1.3-1.5,4.5-3.2,9.6-5.2c5.5-2.2,8.4-3.6,8.8-4.4
	c0.5-1.5,0.7-3,0.6-4.6c0-2.9-0.2-4.7-0.6-5.6c-0.4-0.8-1.2-1.4-2.1-1.3c-1.1,0-1.8,0.4-2.1,1.1c-0.4,1.9-0.5,3.8-0.4,5.7
	L499.6,179.8z M504.9,187.4c-2.7,2-4.2,3.6-4.6,4.9c-0.5,1.9-0.7,3.8-0.6,5.7c0,2.8,0.2,4.7,0.6,5.5c0.4,0.8,1.3,1.3,2.2,1.2
	c0.8,0.1,1.6-0.3,2-1c0.3-0.6,0.5-2.4,0.5-5.1L504.9,187.4z"/>
<path class="st1" d="M544.1,158.6l-0.7,7.2c2.4-5.2,6-7.9,10.5-8.2v19.3c-3.1,0-5.3,0.4-6.7,1.2c-1.3,0.7-2.3,2-2.7,3.5
	c-0.4,3.4-0.6,6.8-0.5,10.2v21.7h-16.7v-54.9H544.1z"/>
<path class="st1" d="M595.5,187h-21.6v11.9c-0.1,1.6,0.1,3.2,0.5,4.8c0.4,0.7,1.2,1.2,2.1,1.1c1.1,0.1,2.1-0.5,2.5-1.4
	c0.5-1.8,0.8-3.7,0.6-5.5v-7.2h15.8v4.1c0.1,2.6-0.1,5.2-0.7,7.8c-0.6,2.1-1.6,4.1-3,5.8c-1.6,2.1-3.6,3.7-6,4.6
	c-2.9,1.1-6,1.6-9.1,1.6c-3.2,0.1-6.4-0.5-9.3-1.5c-2.4-0.8-4.6-2.3-6.3-4.2c-1.5-1.7-2.5-3.7-3.1-5.9c-0.7-3.1-1-6.2-0.9-9.3v-16
	c0-4.8,0.6-8.6,1.9-11.4c1.3-2.8,3.6-5.1,6.4-6.4c3.2-1.5,6.7-2.3,10.2-2.2c4-0.2,8,0.8,11.6,2.7c2.9,1.6,5.2,4,6.5,7
	c1.2,2.9,1.8,7.1,1.8,12.4L595.5,187z M578.8,178v-4c0.1-1.8-0.1-3.7-0.5-5.5c-0.3-0.8-1-1.3-1.9-1.2c-1.2,0-1.9,0.4-2.2,1.1
	c-0.4,1.9-0.5,3.8-0.4,5.7v4H578.8z"/>
<path class="st0" d="M240.8,66.7l-0.4,6.9c1.5-2.5,3.6-4.6,6.1-6.1c2.5-1.4,5.2-2.1,8.1-2c5.9,0,10.5,2.7,13.9,8.2
	c1.6-2.5,3.8-4.6,6.3-6.2c2.3-1.4,5-2,7.7-2c3.3-0.1,6.6,0.8,9.3,2.7c2.3,1.6,4,4,4.7,6.7c0.7,2.6,1,6.9,1,12.8v51.3h-21.4V91.8
	c0-6.2-0.2-10-0.6-11.4c-0.3-1.4-1.5-2.3-2.9-2.2c-1.4-0.1-2.7,0.8-3,2.2c-0.5,1.4-0.7,5.3-0.7,11.5v47.1h-21.4V93
	c0-7.1-0.2-11.3-0.5-12.7c-0.2-1.3-1.5-2.3-2.9-2.1c-1,0-1.9,0.4-2.5,1.1c-0.7,0.7-1.1,1.7-1.1,2.7c-0.1,1.1-0.1,3.3-0.1,6.8v50.1
	h-21.3V66.7H240.8z"/>
<path class="st0" d="M324.7,94.7H304v-4.8c0-5.6,0.6-9.9,1.9-12.9c1.3-3,3.9-5.7,7.8-8c3.9-2.3,8.9-3.5,15.1-3.5
	c7.4,0,13,1.3,16.8,3.9c3.8,2.6,6,5.8,6.8,9.6c0.8,3.8,1.1,11.7,1.1,23.6v36.2h-21.4v-6.4c-2.3,4.9-7.3,8-12.8,7.7
	c-3.8,0-7.5-1.1-10.6-3.2c-3.2-2.2-4.8-6.9-4.8-14.2v-5.9c0-5.4,0.9-9.1,2.6-11s5.9-4.2,12.7-6.9c7.2-2.8,11.1-4.7,11.6-5.7
	c0.5-1,0.8-3,0.8-6c0-3.8-0.3-6.2-0.8-7.4c-0.5-1.1-1.6-1.8-2.8-1.7c-1.5,0-2.4,0.5-2.8,1.4s-0.5,3.5-0.5,7.5V94.7z M331.7,104.6
	c-3.5,2.6-5.6,4.7-6.1,6.5c-0.6,2.4-0.9,5-0.8,7.5c0,3.7,0.2,6.2,0.7,7.2c0.5,1.1,1.7,1.8,2.9,1.6c1.1,0.2,2.1-0.4,2.7-1.3
	c0.4-0.9,0.6-3.1,0.6-6.7L331.7,104.6z"/>
<path class="st0" d="M384.3,57.1v11.4h5.9v11.4h-5.9v38.6c0,4.8,0.2,7.4,0.7,8s2.5,0.8,6.1,0.8V139h-8.9c-3.6,0.1-7.2-0.1-10.7-0.6
	c-2.1-0.4-4.1-1.4-5.6-2.9c-1.5-1.4-2.6-3.2-3-5.2c-0.4-1.9-0.6-6.5-0.6-13.7V79.9h-4.7V68.4h4.7V57.1H384.3z"/>
<path class="st0" d="M443.8,94H423v-8.4c0.1-2-0.1-4-0.7-5.9c-0.4-1-1.5-1.6-2.6-1.6c-1.1-0.1-2.1,0.4-2.6,1.4
	c-0.4,0.9-0.6,2.9-0.6,6.1v34.1c-0.1,2,0.2,4,1,5.8c0.5,1.2,1.6,1.9,2.9,1.9c1.3,0.1,2.6-0.7,3-2c0.5-1.3,0.8-3.9,0.8-7.6v-8.6h19.6
	c0,4.3-0.2,8.7-0.6,13c-0.5,3.2-1.8,6.2-3.6,8.9c-2,3-4.8,5.3-8,6.9c-3.9,1.7-8,2.4-12.2,2.3c-6.2,0-11.1-1.1-14.7-3.2
	c-3.5-2-6.2-5.1-7.7-8.9c-1.5-3.8-2.3-9.3-2.3-16.3V91.3c0-6.1,0.6-10.8,1.9-13.9s3.9-5.9,7.9-8.3c4.5-2.6,9.5-3.8,14.7-3.7
	c5.1-0.2,10.2,1.1,14.6,3.6c4.1,2.4,6.8,5.5,8.1,9.2C443,81.9,443.7,87.2,443.8,94z"/>
<path class="st0" d="M472.2,50.8v19.8c1.8-1.7,3.9-3,6.1-3.9c2.2-0.9,4.6-1.3,7-1.3c3.5-0.1,7,0.9,9.8,2.9c2.4,1.6,4.2,4,5,6.8
	c0.6,2.6,0.9,7.2,0.9,14v49.8h-22V88.1c0-4.2-0.2-6.9-0.6-8.1c-0.6-1.5-2.4-2.2-3.9-1.6c-0.7,0.3-1.3,0.9-1.6,1.6
	c-0.5,1.2-0.7,3.7-0.7,7.3v51.5h-22v-88H472.2z"/>
<path class="st1" d="M184,55.6c-22.6-22.5-59.2-22.5-81.7,0l-2,2l-2-2c-22.8-22.3-59.4-21.9-81.8,0.9c-22,22.4-22,58.3,0,80.8l2,2
	l52.1,52.1l0,0l12.1,12.1l0.2,0.2l5.2,5.2c6.8,6.7,17.7,6.7,24.5,0l4.8-4.8l0,0l12.7-12.6l0,0l52-52.1l2-2
	c22.6-22.5,22.7-59,0.3-81.6L184,55.6z"/>
<path class="st0" d="M113.5,97.8c-3.8-2.3-8.6-2.3-12.5,0c-2.1,1.2-3.8,3.1-4.9,5.3c-1.3,2.6-2.7,5-4.4,7.4l-19.2-19l-18.8,19
	c-1.7-2.3-3.2-4.8-4.5-7.3c-1.1-2.2-2.8-4-4.9-5.2c-3.9-2.2-8.6-2.1-12.5,0.2c-5.8,3.6-7.6,11.2-4.1,17c0.5,0.8,1.1,1.6,1.8,2.3
	c0.9,0.9,2,1.7,3.2,2.3c2.6,1.3,5,2.8,7.4,4.4l-18.5,18.7l51.8,51.9l18.5-18.7c-2.2-1.6-4.5-2.9-6.9-4.1c-1.2-0.6-2.3-1.3-3.2-2.3
	c-4.8-4.8-4.9-12.6-0.1-17.5c0.7-0.7,1.5-1.3,2.3-1.8c3.8-2.4,8.6-2.4,12.5-0.2c2.2,1.2,3.9,3,5,5.2c1.2,2.4,2.6,4.7,4.1,6.8
	l18.8-19l-19.1-19c2.3-1.7,4.8-3.2,7.3-4.5c1.2-0.6,2.2-1.4,3.2-2.3c4.8-4.9,4.8-12.8-0.1-17.6C115.1,98.9,114.3,98.3,113.5,97.8z"
	/>
</svg>
