<?xml version="1.0" encoding="UTF-8"?> <svg xmlns="http://www.w3.org/2000/svg" id="Layer_1" data-name="Layer 1" viewBox="0 0 744.4 141.73"><defs><style>.cls-1{fill:#ed0a71;}.cls-2{fill:#000943;}.cls-3{fill:#ed1171;stroke:#ed0a71;}.cls-3,.cls-4{stroke-miterlimit:2.05;stroke-width:0.5px;}.cls-4{fill:#151540;stroke:#15153f;}</style></defs><path class="cls-1" d="M25.49,47.5l-.33,6a15.38,15.38,0,0,1,5.29-5.32,13.76,13.76,0,0,1,7-1.78q7.65,0,12.05,7.1a17.11,17.11,0,0,1,5.43-5.32,13,13,0,0,1,6.71-1.78,13.12,13.12,0,0,1,8.05,2.37,10.37,10.37,0,0,1,4.09,5.78,49.4,49.4,0,0,1,.89,11.13v44.54H56.15V69.32c0-5.35-.18-8.67-.55-9.94a2.38,2.38,0,0,0-2.52-1.91,2.5,2.5,0,0,0-2.63,1.89c-.39,1.25-.59,4.58-.59,10v40.86H31.35V70.36q0-9.21-.45-11a2.27,2.27,0,0,0-2.48-1.84,2.88,2.88,0,0,0-2.18,1,3.85,3.85,0,0,0-1,2.37q-.09,1.39-.09,5.92v43.46H6.64V47.5Z"></path><path class="cls-1" d="M124.45,80H99.75V93.51q0,4.24.61,5.48a2.39,2.39,0,0,0,2.36,1.23,2.88,2.88,0,0,0,2.91-1.63q.74-1.64.73-6.31V84h18.09v4.63a41.35,41.35,0,0,1-.73,8.93,18.23,18.23,0,0,1-3.42,6.66,16.71,16.71,0,0,1-6.83,5.32,26.45,26.45,0,0,1-10.37,1.77,30.18,30.18,0,0,1-10.67-1.75,17.07,17.07,0,0,1-7.21-4.79,17.45,17.45,0,0,1-3.56-6.71,42.83,42.83,0,0,1-1-10.66V69.13q0-8.22,2.22-13a15.27,15.27,0,0,1,7.28-7.28,25.7,25.7,0,0,1,11.62-2.53q8,0,13.25,3a16.76,16.76,0,0,1,7.32,8.08q2.1,5,2.1,14.15Zm-19.13-10.2V65.17a23,23,0,0,0-.52-6.29,2,2,0,0,0-2.12-1.41q-2,0-2.46,1.2t-.47,6.5v4.58Z"></path><path class="cls-1" d="M174.1,33.7v76.48H155v-4.54a19.86,19.86,0,0,1-5.77,4.26,14.78,14.78,0,0,1-6.33,1.42,12.87,12.87,0,0,1-7.7-2.34,10.46,10.46,0,0,1-4.18-5.41,38.69,38.69,0,0,1-.92-10V64.22c0-4.82.31-8.23.92-10.25a10.18,10.18,0,0,1,4.23-5.31,13.5,13.5,0,0,1,7.89-2.3A15.59,15.59,0,0,1,155,51.48V33.7ZM155,63.28a12,12,0,0,0-.59-4.63,3,3,0,0,0-4.63-.12c-.4.71-.59,2.29-.59,4.75V94a14.37,14.37,0,0,0,.56,5,2.19,2.19,0,0,0,2.18,1.21,2.42,2.42,0,0,0,2.45-1.35c.41-.9.62-3.09.62-6.59Z"></path><path class="cls-1" d="M200.6,33.7v10H181v-10Zm0,13.8v62.68H181V47.5Z"></path><path class="cls-1" d="M246.42,67.53H229.51v-3.4c0-2.9-.16-4.74-.5-5.51s-1.15-1.15-2.47-1.15a2.81,2.81,0,0,0-2.41,1.06,5.22,5.22,0,0,0-.81,3.19,16.51,16.51,0,0,0,.4,4.23,6.81,6.81,0,0,0,2.41,3,52.12,52.12,0,0,0,8.25,4.67q8.31,4.07,10.91,7.66t2.6,10.44q0,7.65-2,11.55a13.2,13.2,0,0,1-6.63,6,27.2,27.2,0,0,1-11.22,2.1,30.94,30.94,0,0,1-12.45-2.27q-5.17-2.26-7.11-6.14t-1.94-11.72v-3h16.92v4q0,5.06.63,6.56a2.48,2.48,0,0,0,2.53,1.52,3.41,3.41,0,0,0,2.83-1c.54-.68.81-2.1.81-4.28q0-4.48-1-5.62t-11.1-6.7q-8.41-4.72-10.25-8.58A20.93,20.93,0,0,1,206,64.88q0-7.5,2-11.08a12.91,12.91,0,0,1,6.73-5.5,29.08,29.08,0,0,1,11-1.94A31.1,31.1,0,0,1,236.38,48a16.23,16.23,0,0,1,6.71,4.18A11.22,11.22,0,0,1,245.93,57a35.07,35.07,0,0,1,.49,6.94Z"></path><path class="cls-2" d="M441.09,67.28h-19.3V54.38q0-5.62-.62-7c-.41-.93-1.32-1.4-2.73-1.4-1.59,0-2.59.57-3,1.7s-.64,3.57-.64,7.33V89.46q0,5.42.64,7.06a2.75,2.75,0,0,0,2.89,1.65,2.7,2.7,0,0,0,2.81-1.65q.67-1.65.67-7.77V79.42h19.3v2.9q0,11.52-1.63,16.34t-7.2,8.45a24.7,24.7,0,0,1-13.73,3.62q-8.47,0-14-3.07a15,15,0,0,1-7.29-8.5q-1.78-5.43-1.78-16.34V61.13a95.87,95.87,0,0,1,.55-12,16.74,16.74,0,0,1,3.28-7.72,18.14,18.14,0,0,1,7.56-5.85A27.32,27.32,0,0,1,418,33.4q8.53,0,14.08,3.3c3.69,2.2,6.12,4.93,7.29,8.22s1.74,8.38,1.74,15.31Z"></path><path class="cls-2" d="M492.11,78.42q0,11.17-.53,15.83a17.71,17.71,0,0,1-10.8,14.42,27.33,27.33,0,0,1-11,2.06,27.91,27.91,0,0,1-10.7-2A17.84,17.84,0,0,1,448,94.46a155.7,155.7,0,0,1-.55-16V65.72q0-11.19.53-15.84a17.76,17.76,0,0,1,10.79-14.42,27.4,27.4,0,0,1,11-2.06,28,28,0,0,1,10.71,2,17.84,17.84,0,0,1,11.07,14.32,158.94,158.94,0,0,1,.55,16ZM472.81,54q0-5.18-.57-6.62A2.29,2.29,0,0,0,469.87,46a2.63,2.63,0,0,0-2.31,1.17c-.54.78-.8,3.08-.8,6.9V88.68q0,6.46.52,8a2.31,2.31,0,0,0,2.46,1.51,2.38,2.38,0,0,0,2.52-1.74c.36-1.16.55-3.93.55-8.3Z"></path><path class="cls-2" d="M545.19,35l-9.82,74.21H506.05L494.9,35h20.36q3.54,30.66,5.06,51.89,1.5-21.45,3.18-38.09L524.84,35Z"></path><path class="cls-2" d="M567.74,35v74.21h-19.3V35Z"></path><path class="cls-2" d="M575.49,35h14.44q14,0,18.91,1.28a14.57,14.57,0,0,1,7.49,4.22A13.39,13.39,0,0,1,619.54,47q.65,3.6.64,14.14v26q0,10-.94,13.37a10,10,0,0,1-3.28,5.27,13.62,13.62,0,0,1-5.77,2.66,52.65,52.65,0,0,1-10.36.75H575.49Zm19.3,12.7V96.48q4.17,0,5.13-1.68t1-9.1V56.87a38,38,0,0,0-.32-6.46,3.07,3.07,0,0,0-1.46-2.09A9.6,9.6,0,0,0,594.79,47.66Z"></path><path class="cls-2" d="M649.52,72.36V85.15H625.18V72.36Z"></path><path class="cls-2" d="M683,35v74.21H664.51V69.39q0-8.62-.42-10.36a3.88,3.88,0,0,0-2.26-2.64c-1.24-.6-4-.89-8.28-.89h-1.83V46.84Q665.15,44,672.12,35Z"></path><path class="cls-2" d="M690.22,89.46h18.52c0,3.46,0,5.63.14,6.54A3.48,3.48,0,0,0,710,98.26a3.75,3.75,0,0,0,2.68.92,3.26,3.26,0,0,0,2.34-.87,3.34,3.34,0,0,0,1-2.25c.08-.91.12-2.76.12-5.54V78.69A9.37,9.37,0,0,1,712,83.16a14.23,14.23,0,0,1-6.83,1.49,15.21,15.21,0,0,1-9-2.75,11.89,11.89,0,0,1-5-6.6,41.07,41.07,0,0,1-1.06-10.41V59a79.33,79.33,0,0,1,.62-11.6,15.16,15.16,0,0,1,3.19-7,16.54,16.54,0,0,1,7.1-5,28.51,28.51,0,0,1,10.55-1.79,31,31,0,0,1,12.19,2.06,16.61,16.61,0,0,1,7.38,5.94,17.34,17.34,0,0,1,3,8.13q.42,4.28.42,16.51V76.49q0,13.24-.37,17.72a16.85,16.85,0,0,1-3.18,8.45,17.17,17.17,0,0,1-7.64,6,28.88,28.88,0,0,1-11.14,2q-7.83,0-12.81-2.52A15.22,15.22,0,0,1,692.4,101,26.89,26.89,0,0,1,690.22,89.46Zm18.52-23.15q0,4.68,1.22,5.78a3.73,3.73,0,0,0,2.5,1.1,3.09,3.09,0,0,0,2.81-1.4q.9-1.4.9-5.48V52.88q0-4.91-.85-6.41A3,3,0,0,0,712.5,45,3.75,3.75,0,0,0,710,46.12q-1.29,1.17-1.29,6.3Z"></path><path class="cls-3" d="M316.36,57.68l-4,28.05H301.2l-4.29-28.05h7.63l2.4,20.48q.29-2.25,1-11c.24-3.25.51-6.41.83-9.47Z"></path><path class="cls-3" d="M336.74,66.64h-7.57V65.12a8,8,0,0,0-.22-2.46c-.15-.35-.52-.52-1.11-.52a1.26,1.26,0,0,0-1.08.48A2.32,2.32,0,0,0,326.4,64a7.17,7.17,0,0,0,.18,1.89,3,3,0,0,0,1.08,1.33,23.87,23.87,0,0,0,3.69,2.09q3.72,1.82,4.88,3.42a7.9,7.9,0,0,1,1.17,4.68,11.83,11.83,0,0,1-.89,5.17,5.9,5.9,0,0,1-3,2.68,12.12,12.12,0,0,1-5,.94,13.93,13.93,0,0,1-5.57-1,6.13,6.13,0,0,1-3.19-2.75,12.33,12.33,0,0,1-.86-5.24V75.88h7.57v1.78a9.45,9.45,0,0,0,.28,2.94,1.11,1.11,0,0,0,1.13.67,1.54,1.54,0,0,0,1.27-.45,3.4,3.4,0,0,0,.36-1.92,4.25,4.25,0,0,0-.47-2.51,38.73,38.73,0,0,0-5-3q-3.76-2.11-4.59-3.84a9.38,9.38,0,0,1-.83-4.09,10.64,10.64,0,0,1,.89-5,5.8,5.8,0,0,1,3-2.46,13,13,0,0,1,4.94-.87,14.1,14.1,0,0,1,4.75.71,7.35,7.35,0,0,1,3,1.87,5,5,0,0,1,1.27,2.16,15.49,15.49,0,0,1,.22,3.1Z"></path><path class="cls-3" d="M347.1,78.76v7h-6.45v-7Z"></path><path class="cls-4" d="M320.85,116a45.64,45.64,0,1,1,45.63-45.64A45.69,45.69,0,0,1,320.85,116Zm0-82.62a37,37,0,1,0,37,37A37,37,0,0,0,320.85,33.38Z"></path><path class="cls-4" d="M320.85,20.25A7.13,7.13,0,1,1,328,13.13,7.14,7.14,0,0,1,320.85,20.25Zm0-8.64a1.53,1.53,0,0,0-1.53,1.52c0,1.66,3.05,1.68,3.05,0A1.52,1.52,0,0,0,320.85,11.61Z"></path><path class="cls-4" d="M320.85,32.57a4.32,4.32,0,0,1-4.32-4.33V14.5a4.32,4.32,0,1,1,8.64,0V28.24A4.32,4.32,0,0,1,320.85,32.57Z"></path><path class="cls-4" d="M320.85,135a7.13,7.13,0,1,1,7.12-7.12A7.14,7.14,0,0,1,320.85,135Zm0-8.64a1.53,1.53,0,0,0-1.53,1.52c0,1.65,3.05,1.67,3.05,0A1.52,1.52,0,0,0,320.85,126.36Z"></path><path class="cls-4" d="M320.85,130.82a4.31,4.31,0,0,1-4.32-4.32V112.76a4.32,4.32,0,1,1,8.64,0V126.5A4.31,4.31,0,0,1,320.85,130.82Z"></path><path class="cls-4" d="M292.16,27.94A7.14,7.14,0,0,1,286,24.37a7,7,0,0,1-.72-5.37,7.09,7.09,0,0,1,3.33-4.35,7.31,7.31,0,0,1,9.73,2.61,7.13,7.13,0,0,1-6.17,10.68Zm0-8.65a1.65,1.65,0,0,0-.76.2,1.53,1.53,0,0,0,.76,2.85c1.11-.41,1.36-.74,1.47-1.13a1.53,1.53,0,0,0-1.47-1.92Z"></path><path class="cls-4" d="M299.71,38.23A4.33,4.33,0,0,1,296,36.07L289.1,24.16a4.33,4.33,0,1,1,7.5-4.32l6.86,11.91a4.31,4.31,0,0,1-3.75,6.48Z"></path><path class="cls-4" d="M349.54,127.32h0A7.13,7.13,0,0,1,346,114a7.29,7.29,0,0,1,9.73,2.61,7.11,7.11,0,0,1-2.58,9.72A7.21,7.21,0,0,1,349.54,127.32Zm0-8.65a1.43,1.43,0,0,0-.76.21,1.69,1.69,0,0,0-.55,2.09,1.49,1.49,0,0,0,1.3.74c1.48-.62,1.74-1.54,1.32-2.26A1.51,1.51,0,0,0,349.54,118.67Z"></path><path class="cls-4" d="M348.84,123.33a4.31,4.31,0,0,1-3.74-2.17l-6.86-11.89a4.32,4.32,0,1,1,7.48-4.33l6.86,11.9a4.31,4.31,0,0,1-1.58,5.9A4.23,4.23,0,0,1,348.84,123.33Z"></path><path class="cls-4" d="M271.16,48.94A7.12,7.12,0,0,1,265,38.27a7.29,7.29,0,0,1,9.76-2.61,7.12,7.12,0,0,1-3.58,13.28Zm0-8.65a1.52,1.52,0,0,0-.76,2.84c1.27.22,1.8-.08,2.06-.54a1.52,1.52,0,0,0-.54-2.09Z"></path><path class="cls-4" d="M284.25,53.69a4.34,4.34,0,0,1-2.16-.57l-11.91-6.87a4.33,4.33,0,1,1,4.33-7.49l11.9,6.86a4.32,4.32,0,0,1-2.16,8.07Z"></path><path class="cls-4" d="M370.53,106.32h0a7.13,7.13,0,0,1-6.17-10.67A7.31,7.31,0,0,1,374.08,93a7.13,7.13,0,0,1-3.55,13.31Zm0-8.65a1.52,1.52,0,0,0-.77,2.82c1.36.23,1.82-.07,2.09-.54a1.53,1.53,0,0,0-.55-2.08Z"></path><path class="cls-4" d="M369.35,102.82a4.28,4.28,0,0,1-2.17-.58l-11.89-6.87a4.32,4.32,0,1,1,4.32-7.48l11.9,6.87a4.32,4.32,0,0,1-2.16,8.06Z"></path><path class="cls-4" d="M263.47,77.62a7.12,7.12,0,1,1,7.13-7.11A7.13,7.13,0,0,1,263.47,77.62Zm0-8.64A1.52,1.52,0,0,0,262,70.51c0,1.67,3,1.67,3,0A1.52,1.52,0,0,0,263.47,69Z"></path><path class="cls-4" d="M278.59,74.83H264.85a4.33,4.33,0,1,1,0-8.65h13.74a4.33,4.33,0,0,1,0,8.65Z"></path><path class="cls-4" d="M378.22,77.62a7.12,7.12,0,1,1,7.13-7.11A7.13,7.13,0,0,1,378.22,77.62Zm0-8.64a1.52,1.52,0,0,0-1.52,1.53c0,1.67,3,1.67,3,0A1.52,1.52,0,0,0,378.22,69Z"></path><path class="cls-4" d="M376.84,74.83H363.11a4.33,4.33,0,1,1,0-8.65h13.73a4.33,4.33,0,1,1,0,8.65Z"></path><path class="cls-4" d="M271.16,106.32A7.13,7.13,0,0,1,267.6,93a7.3,7.3,0,0,1,9.73,2.61,7.13,7.13,0,0,1-6.17,10.69Zm0-8.65a1.52,1.52,0,0,0,0,3c1.48-.62,1.73-1.54,1.32-2.26A1.52,1.52,0,0,0,271.16,97.67Z"></path><path class="cls-4" d="M272.35,102.82a4.33,4.33,0,0,1-2.17-8.07l11.91-6.87a4.33,4.33,0,0,1,4.32,7.5l-11.9,6.87A4.37,4.37,0,0,1,272.35,102.82Z"></path><path class="cls-4" d="M370.54,48.94h0A7.12,7.12,0,0,1,367,35.65a7.32,7.32,0,0,1,9.72,2.58A7.15,7.15,0,0,1,374.12,48,7.25,7.25,0,0,1,370.54,48.94Zm0-8.65a1.42,1.42,0,0,0-.75.21,1.51,1.51,0,0,0,.74,2.83c1.49-.61,1.74-1.55,1.32-2.28A1.52,1.52,0,0,0,370.54,40.29Z"></path><path class="cls-4" d="M357.45,53.69a4.32,4.32,0,0,1-2.16-8.06l11.89-6.87a4.33,4.33,0,0,1,4.33,7.49l-11.9,6.86A4.25,4.25,0,0,1,357.45,53.69Z"></path><path class="cls-4" d="M292.16,127.32a7.14,7.14,0,0,1-6.89-5.31,7,7,0,0,1,.73-5.4,7.35,7.35,0,0,1,9.72-2.6,7.13,7.13,0,0,1-3.56,13.31Zm0-8.65a1.52,1.52,0,0,0-.76,2.83c1.3.23,1.79-.07,2.07-.55a1.45,1.45,0,0,0,.16-1.15,1.5,1.5,0,0,0-.71-.92Z"></path><path class="cls-4" d="M292.85,123.33a4.23,4.23,0,0,1-2.16-.59,4.31,4.31,0,0,1-1.58-5.9l6.86-11.9a4.32,4.32,0,1,1,7.48,4.33l-6.86,11.89A4.3,4.3,0,0,1,292.85,123.33Z"></path><path class="cls-4" d="M349.53,27.94h0a7.14,7.14,0,0,1-6.18-10.68,7.34,7.34,0,0,1,9.73-2.62,7.12,7.12,0,0,1-3.55,13.3Zm0-8.65a1.51,1.51,0,0,0-1.31.76,1.69,1.69,0,0,0,.54,2.07c1.35.22,1.82-.07,2.08-.54a1.52,1.52,0,0,0-.54-2.08Z"></path><path class="cls-4" d="M342,38.23a4.32,4.32,0,0,1-3.75-6.48l6.86-11.91a4.33,4.33,0,0,1,7.5,4.32l-6.86,11.91A4.33,4.33,0,0,1,342,38.23Z"></path></svg>
