<svg id="Ebene_1" data-name="Ebene 1" xmlns="http://www.w3.org/2000/svg" viewBox="0 0 192.63 112.83"><defs><style>.cls-1{fill:#00656e;}.cls-2{fill:#46af97;}.cls-3{fill:#f1f2f2;}.cls-4{fill:none;}</style></defs><path class="cls-1" d="M132.91,34.76V77.65h-6.42V44.14h-.12l-6.65,33.51h-3.57L109.5,44.14h-.12V77.65H103V34.76h9.69l5.22,25.07H118l5.22-25.07Z" transform="translate(0 4.3)"/><path class="cls-1" d="M136.63,77.65V34.76h19.73v6.41H144v11h9.51v6.42H144v12.6h13.19v6.41Z" transform="translate(0 4.3)"/><path class="cls-1" d="M160,34.76h10.93c7.61,0,11.65,4.16,11.65,13v17c0,8.79-4,13-11.65,13H160Zm7.36,36.83h2.56c3.92,0,5.29-1.48,5.29-6V46.82c0-4.52-1.37-6-5.29-6h-2.56Z" transform="translate(0 4.3)"/><path class="cls-1" d="M151,83.52h2.12l1.75,9.56h0l1.43-9.56h2.41l-2.64,15h-2.16L152,88.61h0l-1.75,9.92h-2.16l-2.84-15h2.41l1.58,9.56h0Z" transform="translate(0 4.3)"/><path class="cls-1" d="M160.5,98.53v-15h2.58v15Z" transform="translate(0 4.3)"/><path class="cls-1" d="M165.71,98.53v-15h6.9v2.25h-4.32v3.86h3.33v2.25h-3.33v4.41h4.62v2.24Z" transform="translate(0 4.3)"/><path class="cls-1" d="M174.73,98.53v-15h2.4l3.13,8.59h0V83.52h2.33v15h-2.24l-3.29-9.38h0v9.38Z" transform="translate(0 4.3)"/><path class="cls-2" d="M97.47,49.56A43.46,43.46,0,1,1,54,6.11,43.45,43.45,0,0,1,97.47,49.56Z" transform="translate(0 4.3)"/><path class="cls-3" d="M36.46,26.54c-9.36,0-16.95,7.26-16.95,16.21S27.1,59,36.46,59s16.95-7.27,16.95-16.23S45.82,26.54,36.46,26.54m0,23.71a7.5,7.5,0,1,1,7.84-7.5,7.67,7.67,0,0,1-7.84,7.5" transform="translate(0 4.3)"/><path class="cls-3" d="M35.7,19v7.36s13,1.29,17.68,3.11c0,1.33,0,35.2,0,35.2l7.86,3.1V49.6s7.49,2.76,11.09,5.29V72.26L80,77.65V34.74l-7.67-5.3V46.76C68.6,44.61,63.73,43,61.21,41.94V24.37A102,102,0,0,0,35.7,19" transform="translate(0 4.3)"/><rect class="cls-4" width="192.63" height="112.83"/><rect class="cls-4" width="192.63" height="112.83"/></svg>