<svg id="Ebene_1" data-name="Ebene 1" xmlns="http://www.w3.org/2000/svg" xmlns:xlink="http://www.w3.org/1999/xlink" viewBox="0 0 244.63 270.56"><defs><style>.cls-1{fill:url(#Unbenannter_Verlauf_202);}.cls-2{fill:#4a82c3;}.cls-3{fill:#fff;}.cls-4{fill:#010101;}.cls-5{fill:#c2bfbd;}</style><radialGradient id="Unbenannter_Verlauf_202" cx="141.11" cy="141.78" r="125.68" gradientUnits="userSpaceOnUse"><stop offset="0" stop-color="#8cb3df"/><stop offset="1" stop-color="#5e9cd4"/></radialGradient></defs><path class="cls-1" d="M39.4,220.79c-9.66-5.58-17.56-19.27-17.56-30.42V93.2c0-11.16,7.9-24.84,17.56-30.42l84.15-48.59c9.66-5.57,25.46-5.57,35.12,0l84.16,48.59c9.65,5.58,17.56,19.26,17.56,30.42v97.17c0,11.15-7.91,24.84-17.56,30.42l-84.16,48.58c-9.66,5.58-25.46,5.58-35.12,0Z" transform="translate(-18.79 -6.5)"/><path class="cls-2" d="M158.67,10.68c-9.66-5.57-25.46-5.57-35.12,0L36.36,61C26.7,66.6,18.79,80.29,18.79,91.44V192.12c0,11.16,7.91,24.84,17.57,30.42l87.19,50.34c9.66,5.58,25.46,5.58,35.12,0l87.2-50.34c9.66-5.58,17.56-19.26,17.56-30.42V91.44c0-11.15-7.9-24.84-17.56-30.42Zm98.68,177.93c0,11.15-7.91,24.84-17.57,30.42l-81.11,46.83c-9.66,5.57-25.46,5.57-35.12,0L42.44,219c-9.66-5.58-17.56-19.27-17.56-30.42V95c0-11.15,7.9-24.84,17.56-30.41l81.11-46.83c9.66-5.58,25.46-5.58,35.12,0l81.11,46.83c9.66,5.57,17.57,19.26,17.57,30.41Z" transform="translate(-18.79 -6.5)"/><path class="cls-3" d="M158.67,262c-9.66,5.58-25.46,5.58-35.12,0L45.82,217.08c-9.66-5.58-17.56-19.27-17.56-30.42V96.91c0-11.16,7.9-24.84,17.56-30.42l77.73-44.88c9.66-5.57,25.46-5.57,35.12,0L236.4,66.49C246.06,72.07,254,85.75,254,96.91v89.75c0,11.15-7.9,24.84-17.56,30.42ZM32.32,184.32c0,11.15,7.9,24.84,17.56,30.41l73.67,42.54c9.66,5.57,25.46,5.57,35.12,0l73.67-42.54c9.66-5.57,17.57-19.26,17.57-30.41V99.25c0-11.16-7.91-24.84-17.57-30.42L158.67,26.3c-9.66-5.58-25.46-5.58-35.12,0L49.88,68.83c-9.66,5.58-17.56,19.26-17.56,30.42Z" transform="translate(-18.79 -6.5)"/><path class="cls-3" d="M132,190c0,5.35-3.85,9.17-9.39,9.17s-9.38-3.82-9.38-9.17,3.85-9.2,9.38-9.2S132,184.63,132,190Zm-3.54,0a5.85,5.85,0,1,0-5.85,6.06A5.74,5.74,0,0,0,128.5,190Zm-8.8-14.5a1.9,1.9,0,1,1-1.9,1.9A1.93,1.93,0,0,1,119.7,175.48Zm5.9,0a1.9,1.9,0,1,1-1.89,1.9A1.93,1.93,0,0,1,125.6,175.48Z" transform="translate(-18.79 -6.5)"/><path class="cls-3" d="M137.57,188H145v-6.8h3.43v17.58H145v-7.83h-7.43v7.83h-3.43V181.17h3.43Z" transform="translate(-18.79 -6.5)"/><path class="cls-3" d="M156.73,181.17h2.48l4.67,11.18,4.87-11.18h2.48l3,17.58h-3.48l-1.59-10.83-4.71,10.83h-1.16l-4.51-10.83L157,198.75h-3.48Z" transform="translate(-18.79 -6.5)"/><path class="cls-3" d="M186,184.12h-6.32v3.93h6.06V191h-6.06v4.8H186v2.95h-9.75V181.17H186Z" transform="translate(-18.79 -6.5)"/><path class="cls-3" d="M192.85,181.17c2.45,0,4.58.27,6.53,1.72a8.68,8.68,0,0,1,3.38,7.09,8.42,8.42,0,0,1-3.53,7.09c-2.06,1.45-4,1.68-6.44,1.68h-4.53V181.17Zm-1.16,14.63h1.05a7.35,7.35,0,0,0,4.3-1.16,5.7,5.7,0,0,0,2.19-4.66,5.87,5.87,0,0,0-2.17-4.7,7.17,7.17,0,0,0-4.32-1.16h-1.05Z" transform="translate(-18.79 -6.5)"/><path class="cls-3" d="M211.27,181.17v17.58h-3.43V181.17Z" transform="translate(-18.79 -6.5)"/><path class="cls-3" d="M218.57,181.17a6.9,6.9,0,0,1,4.3,1.11,4.56,4.56,0,0,1,1.63,3.64,3.76,3.76,0,0,1-2,3.45,4.11,4.11,0,0,1,2.29,1.11,4.5,4.5,0,0,1,1.27,3.29,4.68,4.68,0,0,1-1.51,3.56,6.44,6.44,0,0,1-4.45,1.42h-5.91V181.17Zm-.92,7.3h1c.52,0,2.66-.05,2.66-2.29,0-1.61-1.24-2.21-2.64-2.21h-1Zm0,7.49h1.48a4.73,4.73,0,0,0,2.34-.47,2.27,2.27,0,0,0,1.08-2,2.1,2.1,0,0,0-1.29-2,5.62,5.62,0,0,0-2.34-.34h-1.27Z" transform="translate(-18.79 -6.5)"/><path class="cls-3" d="M231.62,188.61l6.46-7.44h4.32L235,189.29l7.83,9.46h-4.54L232,190.87l-.4.4v7.48h-3.43V181.17h3.43Z" transform="translate(-18.79 -6.5)"/><path class="cls-3" d="M192.44,154.58a128.81,128.81,0,0,0-2,17.71,161.19,161.19,0,0,0-29.35-3.06l-2.21,0a161.79,161.79,0,0,0-54.09,9.25h0c-4.68,1.64-9.24,3.51-13.71,5.57A162.11,162.11,0,0,0,70,195.7c-.83.54-1.64,1.09-2.46,1.66a161.25,161.25,0,0,0-13.44,10.23,130.26,130.26,0,0,1-2.69-15.78,132.8,132.8,0,0,1-.72-13.75q0-3.93.23-7.81a127.75,127.75,0,0,1,19.94-61.31,129.1,129.1,0,0,1,42.46-41.19,161.09,161.09,0,0,1,28.56-5.6A128.38,128.38,0,0,0,68.79,178.06v.33q3.72-2.49,7.59-4.78a165.28,165.28,0,0,1,15.11-7.9,162.53,162.53,0,0,1,22.21-8.24h0a162.51,162.51,0,0,1,45.15-6.37q3.1,0,6.17.12A162.49,162.49,0,0,1,192.44,154.58Z" transform="translate(-18.79 -6.5)"/><path class="cls-3" d="M235.34,80.39a129.82,129.82,0,0,0-9.71,9.19l0,.07a128.35,128.35,0,0,0-27.48,44.24,161.37,161.37,0,0,0-24.54-4.12,128.93,128.93,0,0,1,29.11-37.83,128.29,128.29,0,0,0-70.36,39.33,161.38,161.38,0,0,0-36.18,10.41,1.27,1.27,0,0,1,.06-.18A162.06,162.06,0,0,1,199.08,81.62a163.84,163.84,0,0,0-64-.48,128.52,128.52,0,0,1,30.47-19.73h0a161.31,161.31,0,0,1,60,14.18c3.18,1.43,6.3,3,9.37,4.61Z" transform="translate(-18.79 -6.5)"/><path class="cls-4" d="M188.22,48.17a.11.11,0,0,1-.08.08c-.11,0-10.76.94-17.95,3a83.19,83.19,0,0,0,15.64,3.18.1.1,0,0,1,0,.19c-1.33,0-2.67,0-4-.12a67.67,67.67,0,0,1-11-1.79c-1.56-.35-3-.68-4.41-.9a51.19,51.19,0,0,0-10,.51,15.46,15.46,0,0,1-2.72.24,1.71,1.71,0,0,1-.69-.16.1.1,0,0,1,0-.07.07.07,0,0,1,0-.08l1.52-1.46.06,0c.11,0,11.9-.49,12.75-.63l.85-.14c1-.15,14.36-2.4,18.92-2.1a3.67,3.67,0,0,1,1.11.21A.12.12,0,0,1,188.22,48.17Z" transform="translate(-18.79 -6.5)"/><path class="cls-5" d="M80.51,157.44a49.57,49.57,0,0,0,4.09-6,50.5,50.5,0,0,0,3.12-6.41,53.66,53.66,0,0,0,3.47-13.44,52.94,52.94,0,0,0-.06-13.72,55.52,55.52,0,0,0-1.33-6.58,61.86,61.86,0,0,0-2-6.17c-.78-2-1.62-3.87-2.54-5.68-.22-.46-.46-.9-.69-1.35l-.35-.66L84,97l-.17-.29-.2-.32-.63-1c-.2-.3-.35-.6-.53-.9a27.72,27.72,0,0,1-2.92-6.85A16.85,16.85,0,0,1,79,84.56a13.86,13.86,0,0,1,0-1.43c0-.24,0-.46,0-.69a4.91,4.91,0,0,1,0-.67c.09-.45.11-.9.24-1.32,0-.22.1-.44.14-.65s.15-.43.22-.63a10.11,10.11,0,0,1,.47-1.26l.13-.32.19-.37.37-.76a28.34,28.34,0,0,1,7.3-9.12,31.77,31.77,0,0,1,8-4.7,45.76,45.76,0,0,1,6.13-2c1.49-.37,2.3-.53,2.3-.53h0c2.33,0,4.79,0,7.37,0l4-.12,2-.08,2.21-.1a130.79,130.79,0,0,0,17-2.16c10.42-2,18.16-4.88,17.73-6.37-.86-3-17-5.28-18-6A29.43,29.43,0,0,0,126,41.81a34.14,34.14,0,0,0-5-.28c-.89,0-1.8.07-2.72.17l-1.49.19c-.51.08-1,.17-1.55.28a27.65,27.65,0,0,0-6.39,2.15,26.52,26.52,0,0,0-6.23,4.17s-1,.11-2.83.43a55.49,55.49,0,0,0-8,2,43.47,43.47,0,0,0-11.7,6A40.62,40.62,0,0,0,68.75,69.82l-.57,1.05-.29.52-.28.59a24.64,24.64,0,0,0-1,2.41c-.16.42-.31.84-.47,1.27L65.74,77a25.84,25.84,0,0,0-.59,2.7A29.43,29.43,0,0,0,65.61,91a41.28,41.28,0,0,0,4.2,10.6c.24.41.46.84.71,1.24l.71,1.17a2.78,2.78,0,0,1,.17.31l.28.54c.18.36.38.73.55,1.1.72,1.46,1.37,3,2,4.48a43.73,43.73,0,0,1,2.52,9.51,39.85,39.85,0,0,1,.14,10A39.12,39.12,0,0,1,69.64,149a32.1,32.1,0,0,1-3.37,3.86c-.65.64-1.27,1.2-2,1.78s-1.48,1.11-2.3,1.66c-1.65,1.1-3.51,2.15-5.56,3.29a69.18,69.18,0,0,0-6.49,4,25.45,25.45,0,0,0-6.22,6.21,23.43,23.43,0,0,0-3,6.28c-.19.71-.41,1.43-.56,2.16a30,30,0,0,0-.65,9.11c0,.77.19,1.55.29,2.33s.33,1.54.51,2.32A25,25,0,0,0,42,196.45a22.68,22.68,0,0,0,6,7.62,21.44,21.44,0,0,0,4.19,2.7,25,25,0,0,0,4.59,1.64,33,33,0,0,0,4.64.83c1.54.19,3.07.27,4.59.32,3,.09,6,0,8.91-.07l34.78-1c22.57-.68,43.28-1.26,58.35-1.9,7.54-.31,13.66-.6,17.9-.86s6.59-.49,6.58-.68-2.35-.5-6.59-.78-10.36-.6-17.89-.92c-15-.62-35.83-1.43-58.35-2.11l-34.72-1c-3-.09-5.82-.16-8.43-.39-1.3-.11-2.57-.25-3.74-.47a25.09,25.09,0,0,1-3.28-.78l-.73-.25-.67-.28a3.24,3.24,0,0,1-.33-.13l-.3-.16c-.2-.1-.41-.19-.59-.3a10.2,10.2,0,0,1-1-.66,9.44,9.44,0,0,1-1-.83,12,12,0,0,1-2.95-4.24,16.34,16.34,0,0,1-.35-10.7c.12-.45.3-.88.43-1.33s.29-.74.46-1.07a9.45,9.45,0,0,1,1.1-1.77,13.43,13.43,0,0,1,3.41-2.95c3-1.94,7.44-3.74,11.94-6.44,1.13-.68,2.25-1.42,3.35-2.23a36,36,0,0,0,3.11-2.55A44.66,44.66,0,0,0,80.51,157.44Z" transform="translate(-18.79 -6.5)"/><path class="cls-4" d="M121.36,46.4A1.68,1.68,0,1,0,119.63,48,1.68,1.68,0,0,0,121.36,46.4Z" transform="translate(-18.79 -6.5)"/><path class="cls-4" d="M124,44.93a8,8,0,0,0-1.35-.75,5.62,5.62,0,0,0-2.82-.7c-2.13,0-5.56,1.41-11.45,4.61a.11.11,0,0,0,0,.14.11.11,0,0,0,.1.06h0c.08,0,7.84-3.3,13.09-3.39a8.7,8.7,0,0,1,2.37.25.1.1,0,0,0,.13-.08C124.05,45,124,45,124,44.93Z" transform="translate(-18.79 -6.5)"/><path class="cls-3" d="M51.4,191.81a130.26,130.26,0,0,0,2.69,15.78,161.25,161.25,0,0,1,13.44-10.23c.31-.22.63-.42.94-.63-5.84-3-12.2-5.32-17.48-9.79C51.1,188.57,51.24,190.2,51.4,191.81Z" transform="translate(-18.79 -6.5)"/><path class="cls-3" d="M70.85,108.94a127.07,127.07,0,0,0-11.23,22c5.12,2.66,9.9,6,15.48,7.29a128.4,128.4,0,0,1,16-32.46c-2.6-4.43-4.69-9.18-8-13A128.48,128.48,0,0,0,70.85,108.94Z" transform="translate(-18.79 -6.5)"/></svg>