<svg id="Layer_1" data-name="Layer 1" xmlns="http://www.w3.org/2000/svg" viewBox="0 0 578.61 752.02"><defs><style>.cls-1{fill:#57a577;}.cls-2{fill:#afceb6;}.cls-3{fill:#d4e5d6;}.cls-4{fill:#d3e4d4;}.cls-5{fill:#89bb96;}.cls-6{fill:#57a578;}.cls-7{fill:#9bc4a4;}.cls-8{fill:#9cc4a4;}.cls-9{fill:#bbd7c1;}.cls-10{fill:#d6e6d8;}.cls-11{fill:#d0e3d1;}.cls-12{fill:#a9ccac;}.cls-13{fill:#c2dbc7;}.cls-14{fill:#b0d1b1;}.cls-15{fill:#c1dac6;}.cls-16{fill:#ecf2eb;}.cls-17{fill:#0f7b3e;}.cls-18{fill:#c7decc;}.cls-19{fill:#fff;}.cls-20{fill:#8ebf3f;}</style></defs><path class="cls-1" d="M20.08,228.54V216.39c.31-.3.29-1.46,1.11-.42a66,66,0,0,1,0,13.41C20.52,229.83,20.52,229.83,20.08,228.54Z" transform="translate(-20.08 -23.98)"/><path class="cls-2" d="M598.36,281.81a.41.41,0,0,1,.34,0V305a.47.47,0,0,1-.65-.23,5.52,5.52,0,0,1-.36-2.67q0-8.65,0-17.32C597.7,283.73,597.49,282.63,598.36,281.81Z" transform="translate(-20.08 -23.98)"/><path class="cls-3" d="M21.28,250.48c-.44-.3-.4-.77-.4-1.22q0-3-.06-6c0-.61-.09-1.16-.74-1.42V235.2c.61-.13.92.22,1.15.71a103.85,103.85,0,0,1,.6,13A2.16,2.16,0,0,1,21.28,250.48Z" transform="translate(-20.08 -23.98)"/><path class="cls-4" d="M20.08,202.29l.82-.38c1.06,2.6.54,5.26.33,7.91-.23.49-.54.83-1.15.69Z" transform="translate(-20.08 -23.98)"/><path class="cls-5" d="M330.74,776H317.42a.45.45,0,0,1,.2-.63c2.87-.76,5.8-.24,8.7-.34a9.15,9.15,0,0,1,4.22.34A.45.45,0,0,1,330.74,776Z" transform="translate(-20.08 -23.98)"/><path class="cls-6" d="M188.54,24h12.92a.45.45,0,0,1-.19.63c-3,.77-6.06.21-9.09.35a6.89,6.89,0,0,1-3.45-.35A.45.45,0,0,1,188.54,24Z" transform="translate(-20.08 -23.98)"/><path class="cls-7" d="M20.85,235.61l-.77-.41v-6.66c.54.21.3.93.78,1.18A6.41,6.41,0,0,1,20.85,235.61Z" transform="translate(-20.08 -23.98)"/><path class="cls-8" d="M20.08,210.51l.74-.41a5.49,5.49,0,0,1,0,5.5l-.77.79Z" transform="translate(-20.08 -23.98)"/><path class="cls-9" d="M208.91,24c.35.36.82.27,1.25.28l3.61.11a1.12,1.12,0,0,1,1,.38c-1.11.94-2.46.61-3.71.58a30.81,30.81,0,0,1-6.69-.73.44.44,0,0,1-.18-.62Z" transform="translate(-20.08 -23.98)"/><path class="cls-10" d="M330.74,776a1,1,0,0,0,0-.34,7,7,0,0,1,6.63-.47,1.15,1.15,0,0,1-1,.42l-2.27,0a1.25,1.25,0,0,0-1,.34Z" transform="translate(-20.08 -23.98)"/><path class="cls-11" d="M317.4,775.65c0,.12,0,.23,0,.35h-1.57c-.51-.52-1.17-.29-1.77-.36s-1,.07-1.36-.44A3.83,3.83,0,0,1,317.4,775.65Z" transform="translate(-20.08 -23.98)"/><path class="cls-12" d="M188.54,24v.4a2.77,2.77,0,0,1-3,.2.43.43,0,0,1-.15-.6Z" transform="translate(-20.08 -23.98)"/><path class="cls-13" d="M185.4,24v.4a2.45,2.45,0,0,1-3.13,0,2.54,2.54,0,0,1,0-.39Z" transform="translate(-20.08 -23.98)"/><path class="cls-14" d="M204.21,24v.39a2,2,0,0,1-2.73,0,2.3,2.3,0,0,1,0-.37Z" transform="translate(-20.08 -23.98)"/><path class="cls-15" d="M598.7,308.48l-.17,0-.17,0a1.42,1.42,0,0,1-.24-1.85.4.4,0,0,1,.58-.12Z" transform="translate(-20.08 -23.98)"/><path class="cls-16" d="M598.7,306.53l-.18,0h-.17a1,1,0,0,1,0-1.54h.35Z" transform="translate(-20.08 -23.98)"/><path class="cls-17" d="M598.35,305a3.8,3.8,0,0,0,0,1.54c0,.67,0,1.33,0,2-.18,3.78-.32,7.56-.54,11.33-.13,2.34-.37,4.68-.57,7-.11,1.24-.23,2.47-.36,3.7-.49,4.59-.91,9.19-1.5,13.77-.41,3.16-.7,6.33-1.33,9.47-.24,1.2-.3,2.44-.48,3.66-.39,2.63-.67,5.29-1.24,7.89-.72,3.31-1.09,6.68-1.78,10-.64,3.06-1,6.16-1.72,9.21-1.11,5.08-2,10.22-3.29,15.25-.67,2.51-1.08,5.09-1.71,7.62a24.75,24.75,0,0,1-1.4,5.05,10.58,10.58,0,0,1-.55,2.85c-.57,3.15-1.59,6.18-2.29,9.3s-1.65,6.3-2.52,9.43c-.77,2.82-1.48,5.66-2.37,8.45a36.5,36.5,0,0,0-1.53,5.83,18.33,18.33,0,0,1-.73,2c-.68,2.24-1.26,4.51-2.07,6.71-1,2.57-1.51,5.26-2.41,7.84-.78,2.28-1.48,4.59-2.23,6.87s-1.59,4.56-2.31,6.86c-1.35,4.36-3.18,8.55-4.42,12.94-.34,1.19-.86,2.33-1.28,3.49-1.76,4.76-3.5,9.53-5.26,14.29-1,2.81-2,5.67-3.22,8.39-1.47,3.27-2.41,6.76-4.08,9.94-.3.57-.37,1.25-.62,1.85-1.24,2.93-2.6,5.82-3.74,8.8-.56,1.44-1.22,2.85-1.73,4.32-.3.86-.7,1.68-1.06,2.52-1,2.2-1.93,4.41-2.91,6.6s-2,4.39-3,6.56a19.25,19.25,0,0,0-1.69,3.9,1.58,1.58,0,0,1-.16.35c-1.31,2.18-2.08,4.61-3.18,6.89a6.66,6.66,0,0,1-.62,1.22,6.89,6.89,0,0,0-1.15,2.43,17.19,17.19,0,0,1-1.34,2.81c-2.33,4.67-4.67,9.32-7,14-.76,1.51-1.48,3-2.23,4.56a21.51,21.51,0,0,1-1,1.88,36.1,36.1,0,0,0-2.89,5.51,18.46,18.46,0,0,1-2.46,4.42,5.27,5.27,0,0,0-.76,1.35,20.17,20.17,0,0,1-2.61,4.78,1.5,1.5,0,0,0-.31.49c-.58,1.89-1.79,3.44-2.68,5.15s-1.79,3.31-2.75,4.92c-.73,1.23-1.38,2.51-2.11,3.74q-3.33,5.64-6.7,11.25c-2.11,3.52-4.25,7-6.57,10.41-.4.59-.74,1.23-1.11,1.84-2.76,4.5-5.77,8.84-8.73,13.21-.73,1.08-1.45,2.17-2.19,3.24-2.13,3.12-4.23,6.25-6.41,9.33-1.35,1.92-2.84,3.73-4.25,5.6-1.65,2.18-3.23,4.42-4.92,6.57-3,3.79-6,7.53-9.07,11.28-1.68,2.08-3.34,4.17-5.11,6.16-2.86,3.21-5.58,6.54-8.62,9.58-1.79,1.79-3.41,3.75-5.15,5.59-1.34,1.41-2.74,2.76-4.13,4.12-1,1-2.08,2-3.12,3-2,1.89-3.86,3.89-5.94,5.64-3.74,3.15-7.29,6.52-11.23,9.42-1.31,1-2.5,2.1-3.79,3.1s-2.89,2.2-4.38,3.24c-3,2.08-6,4.16-9,6.18-1.41.94-2.9,1.75-4.35,2.63-3.16,1.94-6.41,3.73-9.72,5.41a23.1,23.1,0,0,1-4.62,2.08,1.11,1.11,0,0,0-.34.18,37.65,37.65,0,0,1-6.78,3,44.2,44.2,0,0,1-6.06,2.08c-1,.23-2,.65-3,1a99,99,0,0,1-13.5,3.15c-.32,0-.63.16-.94.24a36.79,36.79,0,0,0-6.63.47c-1.22,0-2.45,0-3.68,0l-9.69,0a19.36,19.36,0,0,0-4.68-.45q-5.22-.74-10.39-1.73c-3.4-.64-6.73-1.53-10.06-2.41-2.77-.72-5.45-1.78-8.2-2.6-1.81-.53-3.46-1.47-5.33-1.84a14,14,0,0,1-2.74-1,104.48,104.48,0,0,1-10.67-4.85c-1.13-.65-2.37-1.08-3.53-1.68q-8.34-4.29-16.23-9.39c-2.42-1.56-4.84-3.1-7.16-4.78-3.85-2.79-7.76-5.5-11.43-8.53-2.46-2-5-4-7.47-6-1.51-1.24-3-2.56-4.41-3.87-2.22-2-4.44-4-6.62-6.08s-4.44-4.23-6.61-6.4-4.3-4.37-6.39-6.62c-3.1-3.34-6.2-6.68-9.1-10.2-1.44-1.76-3-3.4-4.56-5.09a14.26,14.26,0,0,1-1-1.18c-2-2.73-4.19-5.34-6.37-7.94-1.9-2.25-3.64-4.6-5.4-7-2.11-2.82-4.28-5.59-6.37-8.42-1.47-2-2.86-4-4.29-6.06-1.08-1.55-2.19-3.08-3.26-4.64-1.48-2.14-2.94-4.3-4.4-6.46s-2.91-4.31-4.32-6.5c-1.09-1.7-2.08-3.46-3.15-5.17a37.38,37.38,0,0,0-2.16-3.25c-1.22-1.62-2.11-3.43-3.18-5.14q-3.66-5.88-7.13-11.87c-1.86-3.21-3.53-6.54-5.42-9.73-1.75-3-3.34-6-5-9.06-1.09-2-2.11-4-3.18-6-.65-1.21-1.36-2.38-2-3.6s-1.38-2.66-2-4c-1.14-2.56-2.62-4.94-3.75-7.49s-2.58-4.94-3.71-7.5c-1.53-3.45-3.23-6.82-4.81-10.25-1.39-3-2.7-6.07-4.07-9.09-.42-1-1-1.85-1.37-2.8-.86-2-1.54-4-2.52-5.92s-1.55-3.69-2.43-5.49c-.76-1.57-1.39-3.22-2-4.85s-1.26-3.11-1.91-4.66q-2.28-5.4-4.45-10.84c-1.13-2.85-2-5.79-3.33-8.57a19.27,19.27,0,0,1-1.06-2.73A66,66,0,0,0,75.08,499a10.83,10.83,0,0,1-.47-1.28,33.87,33.87,0,0,0-1.61-4.6,12.37,12.37,0,0,1-.74-2.43,7.75,7.75,0,0,0-.68-1.81,13.51,13.51,0,0,1-1.39-4,3.37,3.37,0,0,0-.44-1.49c-1.13-1.59-1.41-3.51-2-5.28-.88-2.51-1.71-5-2.68-7.52-.56-1.44-.82-3-1.32-4.48-1.09-3.21-2.35-6.36-3.14-9.66-.52-2.15-1.51-4.16-2-6.33a18.53,18.53,0,0,0-1.1-3.3,43,43,0,0,1-1.36-4.66,4.66,4.66,0,0,0-.16-.76,48.5,48.5,0,0,1-2.21-7.28,3.81,3.81,0,0,0-.22-.75,22.92,22.92,0,0,1-1.42-4.65c-1.05-3.84-2.12-7.67-3.16-11.5-.31-1.13-.52-2.29-.75-3.43a6.23,6.23,0,0,0-.32-1.12,20.6,20.6,0,0,1-1-3.36c-.67-2.86-1.45-5.69-2.12-8.54-.57-2.4-1.26-4.76-1.83-7.15-.83-3.49-1.7-7-2.48-10.47-.89-4-1.68-8-2.55-12-.52-2.42-1.13-4.82-1.63-7.24q-1.39-6.79-2.69-13.6c-.85-4.41-1.69-8.82-2.45-13.24-.65-3.72-1.17-7.46-1.76-11.2-.18-1.21-.3-2.45-.59-3.64-.62-2.61-.79-5.28-1.17-7.91s-.71-5-1.05-7.55-.64-5-1-7.56c-.3-2.12-.46-4.27-.78-6.4-.42-2.76-.66-5.56-.93-8.35-.46-4.67-.91-9.34-1.31-14-.28-3.24-.41-6.5-.72-9.75s-.16-6.77-.62-10.14a29.83,29.83,0,0,0-.07-4.82c0-3.35-.23-6.7-.36-10,0-2,0-3.93,0-5.89q0-7.07,0-14.12l0-5.5q0-4.09.08-8.19a1.87,1.87,0,0,0,.18-.55c.11-2.21.19-4.43.31-6.64s.26-4.68.44-7c.22-2.79.42-5.59.75-8.37.58-4.84,1-9.7,1.72-14.53.55-3.8,1.06-7.61,1.78-11.38a51.56,51.56,0,0,1,1.46-7.26,25.52,25.52,0,0,0,.5-3.07c.32-1.53.67-3.06,1.06-4.57,1.17-4.48,2.33-9,3.57-13.41.48-1.76,1.15-3.47,1.73-5.2.22-.68.42-1.37.62-2a4.13,4.13,0,0,1,.35-1.11A8.58,8.58,0,0,0,36.79,113a8,8,0,0,1,.77-2,3.5,3.5,0,0,0,.59-1.62,1.41,1.41,0,0,1,.14-.57c1.86-3.94,3.62-7.92,5.59-11.81,1.85-3.67,3.83-7.26,5.91-10.79.76-1.29,1.65-2.5,2.48-3.74,2.4-3.58,5.26-6.81,7.89-10.2a46.87,46.87,0,0,1,3.45-3.74c2.37-2.42,4.77-4.81,7.36-7a104,104,0,0,1,10.36-8c2.5-1.64,5-3.38,7.53-4.89a62.64,62.64,0,0,1,7.23-3.87,7.71,7.71,0,0,0,.85-.45,75.11,75.11,0,0,1,8.67-4.06c.9-.38,1.8-.75,2.69-1.16,2.61-1.21,5.34-2.06,8-3,1.22-.43,2.44-.9,3.66-1.33a60.18,60.18,0,0,1,6.93-2c1.16-.25,2.26-.62,3.38-.95,4-1.13,8-1.77,12-2.67,4.39-1,8.84-1.65,13.29-2.25,3.42-.46,6.84-1,10.27-1.31,3-.3,6.11-.43,9.16-.63.59,0,1.17-.11,1.75-.16,1.55-.52,3.19.13,4.73-.37l.76,0a9.14,9.14,0,0,0,3.13,0,13.74,13.74,0,0,0,3.14,0l12.94,0a8.07,8.07,0,0,0,2.73,0c1.6.08,3.2.19,4.81.25,1.92.07,3.85.09,5.77.13,2.08.14,4.16.26,6.24.43,4.61.39,9.22.76,13.82,1.19,6.3.59,12.57,1.38,18.83,2.32,5.27.79,10.53,1.71,15.79,2.64,5.06.89,10.09,2,15.14,2.94,4.14.81,8.22,1.95,12.36,2.79,3.26.67,6.47,1.52,9.69,2.29,2.09.5,4.15,1.12,6.22,1.68l6.78,1.83.2,0c3.25,1.12,6.64,1.78,9.91,2.86,4,1.33,8.08,2.52,12.12,3.74,3.19,1,6.33,2,9.46,3.18,1.77.65,3.57,1.23,5.35,1.84.87.29,1.75.54,2.59.89,3.12,1.31,6.35,2.32,9.53,3.47,2.63,1,5.22,2,7.83,3,1.89.73,3.8,1.38,5.64,2.2,2.74,1.22,5.63,2.06,8.31,3.44.68.35,1.5.45,2.19.81,2.88,1.5,6,2.55,8.9,4,2.16,1,4.43,1.86,6.63,2.83a8.41,8.41,0,0,1,1.9,1,2.11,2.11,0,0,0,.68.36,29.58,29.58,0,0,1,6.52,3c.84.51,1.88.55,2.63,1.23a23.75,23.75,0,0,1,4.62,2.1c4,1.9,7.94,3.91,11.86,6a9.94,9.94,0,0,1,2.86,1.64c2.85,1,5.23,2.85,8,4a31.12,31.12,0,0,1,3.57,2c4,2.31,7.95,4.73,12,6.93,3.15,1.72,6.09,3.78,9.23,5.5a3.82,3.82,0,0,1,.49.33,33.78,33.78,0,0,0,3.63,2.25c2.09,1.19,4.07,2.58,6.08,3.91q5.22,3.44,10.42,6.91c3.67,2.48,7.3,5,10.79,7.72,1.12.88,2.35,1.62,3.48,2.5,2.11,1.65,4.3,3.19,6.42,4.81,1.5,1.15,3,2.35,4.42,3.55,2.87,2.35,5.81,4.63,8.55,7.12s5.49,4.59,8,7.12c1.19,1.18,2.54,2.23,3.75,3.41,2.62,2.56,5.24,5.1,7.82,7.69,2.12,2.12,4.24,4.24,6.25,6.47s4.06,4.41,5.93,6.77c1.62,2,3.38,4,5,6,1.16,1.41,2.27,2.87,3.38,4.31.48.62.89,1.29,1.37,1.91,1.92,2.47,3.59,5.12,5.39,7.68q1.86,2.66,3.49,5.42c1.06,1.79,2.15,3.56,3.16,5.38,1.36,2.46,2.63,5,3.9,7.45,1.56,3.06,2.93,6.21,4.26,9.38a16.37,16.37,0,0,1,.53,1.68c.07.25,0,.57.15.76,1.26,1.74,1.49,3.87,2.14,5.83,1.11,3.34,1.88,6.77,2.69,10.2.74,3.17,1.37,6.36,1.93,9.56a143.28,143.28,0,0,1,1.93,15.89c.16,2.4.39,4.8.56,7.21.09,1.23.12,2.47.18,3.71,0,1-.06,2.07-.07,3.11v18.3C598.3,303.81,598.33,304.39,598.35,305Z" transform="translate(-20.08 -23.98)"/><path class="cls-18" d="M572.45,450.35a3,3,0,0,1,.73-2A2,2,0,0,1,572.45,450.35Z" transform="translate(-20.08 -23.98)"/><path class="cls-13" d="M181.51,24.39a15.05,15.05,0,0,1-4.73.37c.16-.11.31-.31.46-.32A19.06,19.06,0,0,1,181.51,24.39Z" transform="translate(-20.08 -23.98)"/><path class="cls-19" d="M547.48,332.44c0,3.72.06,7.44,0,11.16-.09,4.5-.24,9-.5,13.49-.15,2.74-.35,5.47-.46,8.21-.08,1.88-.35,3.76-.5,5.64-.25,2.93-.43,5.85-.71,8.77-.25,2.73-.59,5.44-.89,8.16-.45,4.09-.89,8.17-1.35,12.25-.06.58-.16,1.16-.24,1.74-.63,4.45-1.21,8.91-1.9,13.35-.83,5.41-1.69,10.81-2.64,16.2-1,5.63-2.11,11.24-3.19,16.87-.85,4.47-1.8,8.92-2.79,13.37-.66,3-1.33,6-2,9-1,4.64-2.27,9.24-3.41,13.86-.71,2.84-1.39,5.69-2.12,8.53-.55,2.14-1.18,4.27-1.76,6.4-.78,2.83-1.53,5.66-2.33,8.49-.26.94-.64,1.84-.91,2.78-1.44,4.94-2.9,9.86-4.52,14.74a17.67,17.67,0,0,0-.52,2.29,10.16,10.16,0,0,1-.79,2.37,28.58,28.58,0,0,0-1.36,4.07,19.05,19.05,0,0,1-1.66,4.58,15.47,15.47,0,0,0-1,2.75c-1.07,3.06-2.21,6.11-3.22,9.19-.77,2.35-1.84,4.6-2.53,7-.6,2-1.58,3.83-2.27,5.79s-1.53,3.75-2.12,5.68c-.36,1.19-1,2.25-1.41,3.39s-.9,2.28-1.4,3.41c-1.41,3.22-2.69,6.49-4.06,9.73-.74,1.73-1.53,3.43-2.31,5.15-1.3,2.84-2.58,5.7-3.9,8.53-.57,1.23-1.18,2.44-1.83,3.64-1,1.88-1.85,3.87-2.77,5.81-1.6,3.35-3.32,6.64-5.13,9.88-1.43,2.56-2.84,5.13-4.2,7.72-2,3.87-4.28,7.61-6.54,11.35-1.21,2-2.33,4.08-3.66,6-2,2.84-3.62,5.88-5.69,8.66s-4.1,6-6.24,9c-1.8,2.47-3.75,4.84-5.65,7.25-1.45,1.83-2.9,3.67-4.41,5.47a198.37,198.37,0,0,1-15.44,16.33c-2.93,2.79-5.95,5.48-9.11,8-2,1.62-4.15,3.15-6.22,4.73s-4.36,2.63-6.32,4.26a4,4,0,0,1-.66.41q-3,1.63-6,3.24c-.86.46-1.75.88-2.61,1.33a73.42,73.42,0,0,1-6.94,3c-1.87.75-3.82,1.25-5.68,2.07a22.4,22.4,0,0,1-4.51,1.13c-2.68.56-5.35,1.17-8,1.58a53.07,53.07,0,0,1-6.43.51c-2.87.09-5.75.1-8.62,0-2.27-.08-4.55-.32-6.81-.57s-4.38-.63-6.58-.84c-1-.09-1.92-.38-2.88-.51a104.76,104.76,0,0,1-14.22-3.31c-5-1.41-9.78-3.17-14.56-5a71.36,71.36,0,0,1-9.56-4.32,2.89,2.89,0,0,0-.71-.34c-2.86-.65-5.11-2.53-7.64-3.84-3.82-2-7.52-4.17-11.18-6.41-1.61-1-3.14-2.05-4.75-3s-3.19-2.05-4.72-3.16c-4.07-2.93-8.18-5.83-12.15-8.89s-7.7-6.24-11.53-9.37-7.28-6.52-10.85-9.86c-2.28-2.13-4.53-4.3-6.8-6.43-1.62-1.53-3.15-3.13-4.65-4.76s-2.85-2.87-4.25-4.32c-1.18-1.22-2.39-2.42-3.46-3.73-1.21-1.47-2.57-2.78-3.85-4.17-1.45-1.58-2.85-3.21-4.26-4.82-1.66-1.92-3.33-3.84-5-5.78-2.66-3.13-5.35-6.24-7.92-9.45q-5.44-6.8-10.74-13.71c-2.33-3-4.5-6.23-6.82-9.3-2.82-3.75-5.48-7.61-8.14-11.48-2.55-3.71-5-7.44-7.61-11.14-1.75-2.51-3.4-5.1-5-7.7-1.74-2.82-3.67-5.52-5.24-8.44-.43-.8-1-1.53-1.44-2.31-2.77-4.57-5.55-9.14-8.29-13.72-2.64-4.41-5.12-8.92-7.65-13.39-1.79-3.17-3.45-6.4-5.28-9.55-1.7-2.92-3.16-6-4.74-9-.65-1.21-1.47-2.33-2-3.58-.75-1.81-1.7-3.51-2.57-5.26-1.58-3.22-3.14-6.44-4.71-9.66-.32-.64-.65-1.27-1-1.89-1.54-2.57-2.47-5.44-3.82-8.11-1.44-2.85-2.84-5.72-4.06-8.67-1.15-2.76-2.58-5.39-3.61-8.21a57.14,57.14,0,0,0-2.63-6.06c-1.07-2.1-1.77-4.35-2.72-6.49-1.13-2.55-2.12-5.16-3.39-7.65-.53-1-.81-2.18-1.24-3.26q-1.33-3.36-2.72-6.71a15.78,15.78,0,0,1-.93-2.57c-.24-1.1-1.12-2-1.3-3a13.84,13.84,0,0,0-1-3.14c-1.13-2.63-2-5.36-3.08-8-.84-2-1.36-4.19-2.27-6.19a45.64,45.64,0,0,1-1.51-4.64,10.63,10.63,0,0,0-1-2.54,9.08,9.08,0,0,1-1.12-2.88,11.15,11.15,0,0,0-1.31-3.66,1.8,1.8,0,0,1-.24-.73,25.53,25.53,0,0,0-1.62-5.41c-.16-.42-.3-.86-.42-1.29-1.12-3.89-2.49-7.69-3.58-11.59-.51-1.8-1-3.59-1.56-5.39s-1.14-3.61-1.65-5.43c-1.35-4.76-2.7-9.52-4-14.3-1.12-4.21-2.13-8.45-3.18-12.69-.29-1.2-.53-2.41-.82-3.62-.73-3.1-1.28-6.24-2-9.34s-1.15-6-1.92-9c-.49-1.89-.64-3.86-1-5.78-.61-2.86-.85-5.79-1.6-8.63a18.77,18.77,0,0,1-.26-2.13q-1.08-7.35-2.17-14.68c-.11-.77-.19-1.55-.28-2.33-.43-3.82-.89-7.63-1.27-11.46-.24-2.46-.31-4.94-.52-7.41-.33-4-.42-7.95-.58-11.92-.11-2.61-.19-5.21-.22-7.82,0-1.17-.2-2.34-.19-3.51,0-2,.2-4,.2-6.06,0-3.92.29-7.82.51-11.72.24-4.29.68-8.58,1.32-12.83.61-4.06,1.15-8.14,2-12.16a59.9,59.9,0,0,1,2.12-8.72,5.72,5.72,0,0,0,.27-1.14,3.7,3.7,0,0,1,.69-2.19,3.11,3.11,0,0,0,.37-1.1c.38-1.38.8-2.75,1.14-4.13.58-2.34,1.87-4.41,2.42-6.75a9.53,9.53,0,0,0,1.42-2.94,67.13,67.13,0,0,1,3.21-6.87c1-2,2.24-3.83,3.42-5.7,1-1.6,2-3.18,3.13-4.72,1.55-2.18,3.21-4.27,4.92-6.32,1.39-1.65,2.89-3.18,4.41-4.7a107.69,107.69,0,0,1,11.21-10c2.48-1.91,5.11-3.61,7.66-5.4a90.1,90.1,0,0,1,9-5.41c3.31-1.8,6.71-3.47,10.18-5,3.83-1.65,7.69-3.23,11.62-4.64,3.31-1.18,6.69-2.17,10-3.2,2.24-.68,4.5-1.31,6.77-1.92,1.31-.36,2.66-.58,4-.93,4.28-1.16,8.64-2,13-2.76,5.12-.9,10.25-1.82,15.44-2.25,2.92-.24,5.81-.73,8.72-1.09.58-.07,1.17-.08,1.76-.11,2.34-.12,4.69-.23,7-.37,1.62-.1,3.24-.29,4.87-.37,8.28-.41,16.56-.41,24.85-.29,2.28,0,4.57,0,6.85.09,4.75.29,9.51.33,14.25.82,2.91.3,5.85.4,8.77.62,1.17.09,2.33.28,3.5.42,5.69.67,11.39,1.27,17.08,2,5.43.72,10.84,1.6,16.25,2.44,2.19.35,4.35.88,6.55,1.18s4.35.8,6.52,1.18c3.47.61,6.89,1.41,10.32,2.18,4.13.92,8.26,1.81,12.38,2.79,3.54.85,7.05,1.78,10.58,2.69,2.76.71,5.52,1.42,8.26,2.19,1.88.52,3.74,1.13,5.61,1.7,2.48.76,5,1.25,7.49,2.11,3.19,1.12,6.43,2.11,9.67,3.09,1.3.4,2.53.95,3.81,1.38l3.89,1.3.19,0c3.83.87,7.2,3.05,11.05,3.83,2.07,1.13,4.35,1.74,6.49,2.68,2.57,1.12,5.2,2.1,7.78,3.17,3.67,1.53,7.34,3.06,11,4.65,2.49,1.09,4.95,2.29,7.42,3.44,1.24.57,2.5,1.12,3.73,1.71,3.68,1.79,7.38,3.55,11,5.42,3.29,1.69,6.53,3.47,9.77,5.26,6.43,3.55,12.78,7.24,18.94,11.27,2.45,1.61,4.95,3.16,7.37,4.8s4.56,3.27,6.86,4.87c3.05,2.13,6,4.39,8.9,6.72,2.43,2,4.88,3.89,7.17,6,1.85,1.73,3.8,3.35,5.66,5.08q6.81,6.33,13,13.3c1.46,1.66,2.82,3.4,4.2,5.13q1.65,2.05,3.24,4.16c2.17,2.86,4,5.95,5.94,9,1.42,2.19,2.6,4.5,3.79,6.81.9,1.74,1.81,3.46,2.57,5.26.35.85.57,1.75,1,2.56,1.49,3,2.22,6.22,3.37,9.31a75.76,75.76,0,0,1,2.77,10.15c.41,1.84.91,3.66,1.31,5.5.5,2.29.91,4.6,1.39,6.89.89,4.26,1.44,8.57,2,12.88.53,3.74.78,7.51,1.23,11.27s.49,7.41.76,11.12C547.55,317.56,547.6,325,547.48,332.44Z" transform="translate(-20.08 -23.98)"/><path class="cls-17" d="M349.4,420.26c0-7.83,0-15.67,0-23.51,0-11.36-.08-22.72-.09-34.08,0-3.86.07-7.71.11-11.56,0-.2,0-.39,0-.59,0-.53.26-.74.73-.63s1,.29,1.49.46c3.07,1.06,6.2,2,9.18,3.25,1.69.72,3.48,1,5.17,1.6a34,34,0,0,0,5,1.58c.76.15,1.37.68,2.14.89,1.76.48,3.46,1.15,5.2,1.71a1,1,0,0,1,.73,1c0,1.05.06,2.09.06,3.14,0,8.16,0,16.32,0,24.49,0,2-.17,3.91-.21,5.87a23.85,23.85,0,0,0,.11,2.93c.08.85.41,1.15,1.29.82a27.36,27.36,0,0,1,4.24-1.5c1.46-.3,2.9-.73,4.37-1,.89-.19,1.8-.26,2.7-.37a47.47,47.47,0,0,1,10.92-.12c3.19.33,6.26,1.13,9.38,1.75a2.76,2.76,0,0,1,.55.19,93.46,93.46,0,0,1,9.87,4.66,43.76,43.76,0,0,1,8.76,6.84,38.66,38.66,0,0,1,4.14,4.44,61.06,61.06,0,0,1,5.53,9,29.93,29.93,0,0,1,2,4.43,7.93,7.93,0,0,1,.37,1.51,2.77,2.77,0,0,0,.45,1.48,4.17,4.17,0,0,1,.69,2c.23,1.73.79,3.4,1,5.15a28.78,28.78,0,0,1,.26,2.92q0,25.08,0,50.16c0,2.7.3,2.4-2.4,2.4H418.43c-.59,0-1.17,0-1.76,0a.6.6,0,0,1-.62-.61c-.07-1.37-.14-2.74-.17-4.11-.21-9.47-.12-18.94-.1-28.41,0-4.7,0-9.41,0-14.11a39.81,39.81,0,0,0-.32-5.46,14.44,14.44,0,0,0-2.31-5.77,18.93,18.93,0,0,0-6.48-6.38,13.6,13.6,0,0,0-4.31-1.78c-1-.18-2.06-.33-3.09-.52a11.16,11.16,0,0,0-4.27.12,16.25,16.25,0,0,0-4.53,1.07c-3.69,1.85-6.86,4.29-8.78,8a21,21,0,0,0-2.34,9.77q0,16.07-.05,32.13c0,4,0,8,0,11.95a18.36,18.36,0,0,1-.09,2c-.11,1.05-.38,1.36-1.44,1.5a14.41,14.41,0,0,1-2.54.11c-4.57-.22-9.14-.08-13.71-.12-3.39,0-6.79,0-10.18,0-.46,0-.92,0-1.37,0a.63.63,0,0,1-.64-.61c0-.45,0-.91,0-1.37q0-22.43,0-44.86c0-7.91.09-15.81.14-23.71Z" transform="translate(-20.08 -23.98)"/><path class="cls-17" d="M329.21,441.24a49.07,49.07,0,0,1-1.49,12.93,45.32,45.32,0,0,1-2.55,7.38c-.48,1.05-1,2.11-1.42,3.17a17.13,17.13,0,0,1-1.31,2.17,66.55,66.55,0,0,1-3.92,5.82,50.84,50.84,0,0,1-9.47,9.24,53.34,53.34,0,0,1-9.95,5.78c-1.67.74-3.38,1.34-5.06,2a36.64,36.64,0,0,1-5.49,1.34c-4.43,1-8.94.91-13.43.76a28.27,28.27,0,0,1-8.08-1.31c-1.22-.41-2.59-.4-3.74-1.05a30.76,30.76,0,0,0-3.47-1.17,51.53,51.53,0,0,1-18.23-12.84,61.37,61.37,0,0,1-6.62-9.17,9.2,9.2,0,0,1-.92-1.72,36.48,36.48,0,0,0-1.72-3.7,12.75,12.75,0,0,1-1.18-3.51,3,3,0,0,0-.24-.94,19.79,19.79,0,0,1-1.48-5.23,44,44,0,0,1-.83-12.27c.15-2.33.43-4.67.76-7a30.21,30.21,0,0,1,.82-3.21,49.2,49.2,0,0,1,7.62-16.35c1.73-2.3,3.65-4.41,5.5-6.6A24.15,24.15,0,0,1,246,403.5a49.31,49.31,0,0,1,9-6.21A45.47,45.47,0,0,1,265.2,393a53.66,53.66,0,0,1,20.74-1.27,58.8,58.8,0,0,1,8.94,2,35.11,35.11,0,0,1,3.63,1.44c1.14.48,2.29,1,3.38,1.53,1.32.71,2.6,1.48,3.86,2.29a51.22,51.22,0,0,1,19.19,22.08,48.47,48.47,0,0,1,2.58,7.16A45.56,45.56,0,0,1,329.21,441.24Z" transform="translate(-20.08 -23.98)"/><path class="cls-20" d="M385.62,282c-.1-2.24-.24-4.38-.27-6.53-.05-3.26,0-6.53-.06-9.8a2.22,2.22,0,0,1,1.26-2.21,26.09,26.09,0,0,0,5.25-3.71,37,37,0,0,0,3.58-3.61,8.72,8.72,0,0,0,1.54-8.65,7.75,7.75,0,0,0-1.87-2.71,31,31,0,0,0-10.16-7.18c-1.59-.75-3.2-1.44-4.83-2.1-2.54-1-5.08-2-7.64-3-1.22-.45-2.49-.75-3.74-1.13-2.55-.79-5.09-1.57-7.63-2.38-3.92-1.25-7.92-2.16-11.9-3.18l-8.71-2.23c-.5-.12-1-.27-1.52-.35-2.32-.37-4.58-1-6.85-1.57a1.65,1.65,0,0,0-2,.79,13.48,13.48,0,0,1-7,4.77,31.34,31.34,0,0,1-10.66.74c-1,0-1.94-.16-2.92-.26a1.25,1.25,0,0,1-1.16-.88,28.41,28.41,0,0,0-2.88-5.31,17.91,17.91,0,0,0-1.45-1.83,29.15,29.15,0,0,0-10.42-8.11,31,31,0,0,0-5.57-2.34c-2.29-1.38-4.87-2.25-7-3.95a9,9,0,0,1-3.18-5.64,6.85,6.85,0,0,1-.07-.78c0-.57-.35-.78-.86-.86-2.32-.35-4.62-.86-6.95-1-3.33-.26-6.57-1-9.86-1.42q-3.58-.5-7.17-1.06c-3.8-.61-7.59-1.26-11.39-1.85-3-.47-5.93-.87-8.89-1.33-1.21-.19-2.41-.47-4-.78.7-.42,1.08-.7,1.5-.89q2.58-1.17,5.18-2.29a4.76,4.76,0,0,0,1.69-1.05c-.52-1.09-1.65-1.66-2.25-2.66a14.45,14.45,0,0,0-2.55-2.69c-.81-.8-2-1.2-2.54-2.43.26,0,.47-.11.62-.05,2.21.8,4.46,1.42,6.72,2.05,2.57.72,5.07,1.65,7.62,2.45,1.8.56,3.63,1.05,5.44,1.59.94.28,1.87.59,2.79.91,1.35.48,2.72.89,4.1,1.29,3.32.95,6.6,2,9.9,3.07,1.18.37,2.37.68,3.54,1.09,2.46.85,5,1.58,7.45,2.35.66.21,1,.15,1.35-.39s1-1.39,1.4-2.12a3.77,3.77,0,0,1,2.1-1.63,26.94,26.94,0,0,1,8-1.42c2.73-.16,5.47-.15,8.2-.39a29.38,29.38,0,0,0,10-2.43,28,28,0,0,0,8.17-5.62,2.55,2.55,0,0,1,3-.71c1.78.63,3.66,1,5.39,1.72a25,25,0,0,1,7.9,5,12.27,12.27,0,0,1,2.68,4.49,9.67,9.67,0,0,1,.79,3.61,1.14,1.14,0,0,0,1,1.24c1.88.55,3.73,1.19,5.59,1.81a4.64,4.64,0,0,1,1.07.47,7.43,7.43,0,0,0,2.54,1c1.8.38,3.49,1.08,5.23,1.6,4.38,1.31,8.56,3.15,12.95,4.43,2.05.6,4,1.49,6,2.26,3.29,1.26,6.59,2.48,9.78,4,2,.94,4,1.88,6,2.78a70.16,70.16,0,0,1,9.95,5.38c2.83,1.85,5.67,3.68,8.33,5.81a53.32,53.32,0,0,1,6.84,6.68,22.39,22.39,0,0,1,2.38,3.33,32.56,32.56,0,0,1,3,5.7,36.14,36.14,0,0,1,2.28,10.45,16.66,16.66,0,0,1-1.26,7.45,27.27,27.27,0,0,1-6.79,9.63,49.84,49.84,0,0,1-8.64,6.34c-2.64,1.54-5.35,3-8.09,4.35-2.56,1.29-5.19,2.43-7.81,3.6A5.11,5.11,0,0,1,385.62,282Z" transform="translate(-20.08 -23.98)"/><path class="cls-17" d="M379.09,287.32q0,21.36,0,42.71c0,2.15-.06,2.17-2,1.35-1.38-.59-2.81-1.06-4.22-1.56l-8.49-3c-3.56-1.25-7.13-2.49-10.68-3.79-1.34-.49-2.63-1.13-3.93-1.72a.7.7,0,0,1-.37-.65c-.05-.84-.12-1.69-.12-2.54,0-24.29,0-48.58,0-72.87,0-3.39-.07-6.79.09-10.18.08-1.84.12-1.87,2-1.47s3.91,1,5.84,1.57c2.54.82,5.15,1.41,7.75,2a39,39,0,0,1,5.22,1.62c2.2.82,4.47,1.41,6.67,2.21l.19.05c2.13.8,2.25,1.47,2.22,3.17-.23,12.87,0,25.73-.08,38.6v4.5Z" transform="translate(-20.08 -23.98)"/><path class="cls-17" d="M250.11,533.56c0,.6,0,1.23,0,1.85q0,11.07,0,22.13c0,3.07-.05,6.14-.07,9.21,0,.32,0,.65,0,1,0,.8-.16.92-.88,1h-.2c-3.45,0-6.91,0-10.37,0-1.7,0-1.72-.07-1.72-1.78q0-25.27,0-50.53c0-1.72-.11-1.8,1.65-1.8s3.39-.06,5.08-.07c2.54,0,5.08,0,7.62,0,.39,0,.78.06,1.17.06a1.29,1.29,0,0,1,1.23.8c.2.41.43.81.61,1.23,1.17,2.69,2.33,5.38,3.51,8.06.68,1.55,1.39,3.09,2.07,4.63.29.66.52,1.34.81,2,.71,1.6,1.44,3.19,2.16,4.8.53,1.19,1.07,2.37,1.53,3.59a8.92,8.92,0,0,0,.65,1.18c.1.18.18.34.4.36s.31-.18.39-.35c.87-1.67,1.47-3.45,2.24-5.17,1.53-3.44,3-6.9,4.57-10.35q1.94-4.36,3.91-8.72c.93-2.06.95-2,3.15-2,3.91,0,7.82,0,11.72-.07h.2c2.23.22,2.14-.29,2.14,2.16q0,24.76-.07,49.55c0,.65,0,1.3-.07,1.95,0,.3-.22.45-.5.5a3.79,3.79,0,0,1-.58.05l-11.16,0a6.37,6.37,0,0,1-1-.07.56.56,0,0,1-.48-.53c0-.58-.06-1.17-.06-1.76q0-15.37,0-30.75c0-.52,0-1,0-1.56,0-.17-.06-.27-.23-.25a.49.49,0,0,0-.31.16,2.36,2.36,0,0,0-.28.52c-1.55,3.65-3,7.34-4.7,10.95-.78,1.71-1.21,3.59-2.35,5.14a17,17,0,0,1-1.14,3.3c-.15.42-.33.84-.5,1.26a.93.93,0,0,1-.87.66c-.85,0-1.7.09-2.54.1-2,0-3.92,0-5.88,0-.58,0-1-.16-1.16-.78-.38-1.45-1.43-2.63-1.63-4.17-.1-.68-.74-1.19-1-1.88-1.17-3.37-2.78-6.56-4.14-9.85-.57-1.37-1.14-2.74-1.72-4.11-.18-.41-.41-.81-.62-1.21C250.55,533.73,250.51,533.52,250.11,533.56Z" transform="translate(-20.08 -23.98)"/><path class="cls-20" d="M385.69,382.4c-.39-.3-.35-.71-.35-1.1,0-3.2,0-6.39,0-9.59a3.18,3.18,0,0,1,1.36-2.84,16.6,16.6,0,0,0,3.41-3.49,4.32,4.32,0,0,0-.12-5.56,8.58,8.58,0,0,0-1.38-1.38,28.33,28.33,0,0,0-6.37-3.76c-5.89-2.49-12-4.49-18-6.47-3.59-1.18-7.1-2.58-10.65-3.87-1-.36-2-.72-3-1a69.16,69.16,0,0,1-8.13-3.3,89.08,89.08,0,0,1-12-6.57,26.49,26.49,0,0,1-2.93-2.25,7.15,7.15,0,0,0-.89-.76,20.56,20.56,0,0,1-5.47-5.8,24.31,24.31,0,0,1-2.81-5.13,18.37,18.37,0,0,1-1-10.93,22.43,22.43,0,0,1,3.56-8.19,30,30,0,0,1,5.35-5.94c1.39-1.17,2.87-2.24,4.32-3.34a55.5,55.5,0,0,1,8.29-5.12c.81-.42,1.55-1,2.33-1.43a3.32,3.32,0,0,1,.89-.38.46.46,0,0,1,.58.38,6.33,6.33,0,0,1,.07,1c0,4.57,0,9.14,0,13.71a2.73,2.73,0,0,1-1.32,2.6,20.91,20.91,0,0,0-2.43,2,15.07,15.07,0,0,0-3.93,5,9.39,9.39,0,0,0,.15,8.3,5.31,5.31,0,0,0,1,1.44,37.51,37.51,0,0,0,4.53,4.29,4.53,4.53,0,0,0,.63.45c1.93.95,3.61,2.3,5.52,3.29,2.78,1.44,5.65,2.67,8.48,4,4.25,2,8.67,3.58,13.05,5.24C375,338.3,381.42,341,387.7,344a62.65,62.65,0,0,1,8.26,4.82,27.09,27.09,0,0,1,4.53,4,13,13,0,0,1,3.42,6.28,15,15,0,0,1-.17,6.4,20.58,20.58,0,0,1-3.22,6.86A18.39,18.39,0,0,1,397,376a53.57,53.57,0,0,1-8.77,5.46A8.14,8.14,0,0,1,385.69,382.4Z" transform="translate(-20.08 -23.98)"/><path class="cls-17" d="M407.39,514.51c3.78.06,7.56.07,11.34.18a36.55,36.55,0,0,1,7.72,1.15,25,25,0,0,1,9.75,4.77,21.63,21.63,0,0,1,4.29,4.51,32.4,32.4,0,0,1,3.63,6.47,18,18,0,0,1,.63,2,39.68,39.68,0,0,1,.78,10.87,14.15,14.15,0,0,1-.33,2.51,26.58,26.58,0,0,1-4.62,10.85,16.23,16.23,0,0,1-2.33,3.1,40.67,40.67,0,0,1-6.6,4.5,26.11,26.11,0,0,1-8.7,2.73,39.67,39.67,0,0,1-5.64.51c-6.92,0-13.83,0-20.75,0-.46,0-.91,0-1.37-.06a.72.72,0,0,1-.75-.72c0-.46,0-.92,0-1.37V516.6c0-2.15-.11-2,2-2h10.94Z" transform="translate(-20.08 -23.98)"/><path class="cls-17" d="M323.28,541.46V516.38c0-1.8,0-1.79,1.87-1.8,4.75,0,9.51-.06,14.27-.06,3.19,0,6.38.06,9.57.06,3.39,0,6.78,0,10.17-.05h.2c3.7.29,3.1-.68,3.15,3.08,0,2.09,0,4.18,0,6.27,0,.87-.17,1-1.06,1-.65,0-1.3,0-2,0H339.29c-2,0-2-.2-2,2.05s0,4.31,0,6.47c0,.64.18.8.83.82,1,0,2.09,0,3.13,0h15.28c1.11,0,2.21.11,3.32.17.45,0,.73.24.73.73,0,2.94,0,5.87,0,8.81,0,.63-.2.81-.84.82-2,0-3.91,0-5.87,0-1.69,0-3.39-.06-5.08,0-2.47.06-4.95.07-7.42,0-1.11,0-2.22.06-3.33.1a.69.69,0,0,0-.74.72c0,.26,0,.52,0,.78q0,4.8,0,9.6c0,.33,0,.66,0,1,.05.9.19,1.07,1,1.08h8.21l5.86,0h5.48l3.91,0c.45,0,.78.18.78.67,0,3,0,6,0,9,0,.65-.21.8-.82.84-.33,0-.66,0-1,0l-33.88,0-1.57,0c-2,0-1.92.08-1.92-1.94q0-12.63,0-25.27Z" transform="translate(-20.08 -23.98)"/><path class="cls-17" d="M303.9,589.39c3.2.07,6.4.08,9.59.24a17.76,17.76,0,0,1,7.2,1.66,9.64,9.64,0,0,1,5.57,6.4,8,8,0,0,1,.26,1.74,35.53,35.53,0,0,1-.07,3.72,9.5,9.5,0,0,1-2.76,5.9,17,17,0,0,1-4.44,3.5.5.5,0,0,0-.23.8c1.4,1.93,2.55,4,4.34,5.72a24.41,24.41,0,0,1,2.33,2.88l4.8,6.14c.29.36.58.7.85,1.08.4.58.24,1-.43,1.09a33.16,33.16,0,0,1-5.08.2c-1.83-.05-3.66-.13-5.49-.1a2,2,0,0,1-1.79-.94c-.95-1.32-2-2.6-2.89-3.93-1.81-2.63-4-5-5.68-7.72-.07-.11-.19-.18-.25-.3-1.26-2.39-3.4-2.26-5.59-2-.53.07-.73.34-.74,1,0,1.76,0,3.53,0,5.29,0,2.42,0,4.83,0,7.25,0,1.23-.07,1.31-1.37,1.33-2.74,0-5.48,0-8.22,0-.74,0-.9-.2-.94-.94,0-.45,0-.91,0-1.37q-.18-18.21,0-36.44c0-2.37-.24-2.15,2.26-2.16h8.81Z" transform="translate(-20.08 -23.98)"/><path class="cls-17" d="M266.6,618.16c0,2.94,0,5.87,0,8.81,0,1.11-.23,1.39-1.23,1.68a64.93,64.93,0,0,1-9.28,2.23,38.12,38.12,0,0,1-10.72,0,21.94,21.94,0,0,1-7.18-2.38,17.68,17.68,0,0,1-8.19-9.1,25.45,25.45,0,0,1-1.71-10.91,23.58,23.58,0,0,1,.73-5,19,19,0,0,1,2.14-5,18.64,18.64,0,0,1,7.51-7.22,22.12,22.12,0,0,1,5.69-1.94,37.93,37.93,0,0,1,13.23-.05,23.11,23.11,0,0,1,6.66,2.12c.46.23,1,.32,1.46.54a1.23,1.23,0,0,1,.83,1.2c0,2.54,0,5.09,0,7.64a2.87,2.87,0,0,1-.12.76c-.09.3-.36.36-.63.35a2.69,2.69,0,0,1-1.53-.8,27.43,27.43,0,0,0-4.47-2.79,17.08,17.08,0,0,0-8.08-1.91,19.46,19.46,0,0,0-5.36,1,3,3,0,0,0-.8.52c-.49.33-1,.7-1.46,1a8.15,8.15,0,0,0-2.88,3.12,12.41,12.41,0,0,0-1.8,5.72,17.9,17.9,0,0,0,1.58,9.88,9.67,9.67,0,0,0,4.21,4.16,14.32,14.32,0,0,0,4.34,1.57,17.46,17.46,0,0,0,5.05.27c1.16-.16,1.38-.36,1.39-1.47,0-1.89,0-3.79,0-5.68,0-.72-.19-.92-1-.93-1.89,0-3.78,0-5.68,0-.26,0-.52.06-.77.05s-.64-.22-.64-.61c0-2.09,0-4.17,0-6.26,0-.6.26-.78.88-.82h.78l15.08,0c.45,0,.91,0,1.37,0a.6.6,0,0,1,.62.61c0,.46,0,.91,0,1.37v8.23Z" transform="translate(-20.08 -23.98)"/><path class="cls-17" d="M379.37,182.51c0,3.4,0,6.79,0,10.19a32.17,32.17,0,0,0,.2,5.28,11.52,11.52,0,0,1,0,2c0,2.38-.07,2.06-2,1.44s-3.69-1.28-5.55-1.85-3.42-1.26-5.23-1.63a23.9,23.9,0,0,1-2.72-1,16.85,16.85,0,0,1-2.07-.44,49.93,49.93,0,0,0-6.63-2.08c-1.54-.46-3.1-.87-4.65-1.28-1.1-.29-1.16-.32-1.19-1.42q-.07-2.94-.12-5.88c0-3.46-.05-6.92-.11-10.38,0-1.69-.17-3.39-.2-5.08,0-.91.06-1.83.13-2.74a.74.74,0,0,1,.77-.72c.26,0,.52,0,.78,0,5.88-.06,11.75-.11,17.62-.18,2.35,0,4.7-.12,7.05-.15.91,0,1.83.06,2.74.13a.76.76,0,0,1,.74.77c.07,1.1.11,2.21.13,3.32.05,3.91.09,7.83.14,11.74Z" transform="translate(-20.08 -23.98)"/><path class="cls-17" d="M370.66,589.47c1.5,0,3,0,4.5,0,.91,0,1.19.16,1.42,1a45.68,45.68,0,0,0,1.88,5.34c1.05,2.66,2.08,5.32,3.07,8,.5,1.34,1,2.71,1.33,4.08.65,2.32,1.79,4.44,2.66,6.67a9.93,9.93,0,0,1,.87,2.77c.08.92.88,1.61.78,2.58.82,1,.85,2.41,1.48,3.57a25.45,25.45,0,0,1,1.66,4.36c.23.74,1,1.55.57,2.19s-1.57.31-2.38.32c-2.35,0-4.7,0-7.05,0-1,0-1-.06-1.33-1a15.32,15.32,0,0,0-1.32-3.24,13,13,0,0,1-.91-2.77c-.33-1.06-.42-1.16-1.48-1.21-4.37-.2-8.74-.19-13.12,0a.93.93,0,0,0-1,.76c-.4,1.44-.84,2.87-1.28,4.3a5.85,5.85,0,0,1-.31.92c-1.05,2.19-1.05,2.2-3.5,2.29-1.76.06-3.53.08-5.29.1a8.86,8.86,0,0,1-1.36-.07c-1.08-.17-1.35-.52-1-1.61q1-2.87,2.1-5.66c.19-.48.4-.95.55-1.45a21.86,21.86,0,0,1,1.65-4.36,1.24,1.24,0,0,0,.18-.34c.28-2.42,1.76-4.45,2.25-6.81a6,6,0,0,1,.57-1.24,9.44,9.44,0,0,0,.68-1.62,44.83,44.83,0,0,1,2.39-6.57c.48-1.2.88-2.43,1.32-3.65.7-2,1.43-3.88,2-5.86a2.37,2.37,0,0,1,2.64-1.8c1.57,0,3.13,0,4.7,0Z" transform="translate(-20.08 -23.98)"/><path class="cls-17" d="M428.18,630.33H413.11c-.46,0-.92,0-1.37,0a.6.6,0,0,1-.64-.59,58,58,0,0,1,0-6.46,2.09,2.09,0,0,1,.56-1.22c2.39-2.75,4.79-5.49,7.15-8.27,3-3.57,6-7.17,9.07-10.75,1.35-1.58,2.74-3.13,4.11-4.69.25-.3.12-.67-.26-.69-1-.07-2.09-.15-3.13-.15-2.61,0-5.22,0-7.82,0s-5.22-.06-7.83-.13c-.76,0-.9-.19-.91-1,0-1.76-.06-3.52,0-5.28s0-1.68,1.82-1.68c9.79,0,19.57,0,29.36,0,2.53,0,2.19-.21,2.24,2.18,0,1.3.08,2.61.08,3.91a4.36,4.36,0,0,1-1.58,3.62,20.8,20.8,0,0,0-2.36,2.59c-3.4,4-6.78,8.09-10.19,12.11-2,2.38-4.09,4.72-6.13,7.09a5.52,5.52,0,0,0-.46.62.45.45,0,0,0,.32.59c.58.06,1.17.13,1.75.14l11.35.06c2,0,3.92,0,5.87,0,1.15,0,1.33.14,1.35,1.18,0,2,0,4,0,6.06a.62.62,0,0,1-.61.64c-.45,0-.91,0-1.37,0Z" transform="translate(-20.08 -23.98)"/><path class="cls-17" d="M288,368.57a15.34,15.34,0,0,1,5.31-11.71,15.57,15.57,0,0,1,10.74-4,16.15,16.15,0,0,1,5.32,1.14,20.26,20.26,0,0,1,4.65,2.82,10,10,0,0,1,2.85,3.44,18,18,0,0,1,1.92,4.42,16.49,16.49,0,0,1,.46,4.64,15.71,15.71,0,0,1-16.48,14.81C293.3,383.57,287.58,375.28,288,368.57Z" transform="translate(-20.08 -23.98)"/><path class="cls-17" d="M238.6,368.23c.22-8.93,7.29-15.19,15.72-15.42,9.55.7,15.66,7.46,15.47,16.29a15.6,15.6,0,0,1-31.19-.87Z" transform="translate(-20.08 -23.98)"/><path class="cls-20" d="M342.78,392.07c0,3.34.28,2.59-2.69,3.36s-5.69,1.33-8.53,2a3.82,3.82,0,0,1-1.9.08c-2.4-.57-4.82-1.08-7.22-1.63a1.28,1.28,0,0,1-.53-.24.33.33,0,0,1,0-.33,1,1,0,0,1,.5-.27c2.74-.55,5.34-1.61,8-2.36,2.31-.64,4.55-1.56,6.82-2.35,1-.33,2-.65,3-.94a11.29,11.29,0,0,1,1.72-.31c.56-.06.83.2.85.8S342.78,391.35,342.78,392.07Z" transform="translate(-20.08 -23.98)"/><path class="cls-19" d="M299.37,440.82A20.52,20.52,0,1,1,261.91,430c3.81-5.6,9.26-8.42,15.91-8.91a19.67,19.67,0,0,1,15,5.41C295.94,429.4,299.47,434.77,299.37,440.82Z" transform="translate(-20.08 -23.98)"/><path class="cls-19" d="M412.92,558.45c-1.24,0-2.48,0-3.72,0-.59,0-.77-.27-.81-.89,0-.39,0-.78,0-1.17V527c0-2.16-.24-2.23,2.28-2.3a32.92,32.92,0,0,1,9.89.88,14.71,14.71,0,0,1,4.71,2.29,10.86,10.86,0,0,1,4.08,5.33c.25.73.62,1.42.92,2.14a14.41,14.41,0,0,1,.68,4.42,26.16,26.16,0,0,1-.14,5.66,15.42,15.42,0,0,1-5.61,10.14,6.27,6.27,0,0,1-1,.61,11.72,11.72,0,0,0-1.08.47c-2.46,1.61-5.27,1.64-8.05,1.83-.72,0-1.44,0-2.15,0Z" transform="translate(-20.08 -23.98)"/><path class="cls-19" d="M306.88,607.87c-.88-.12-2.06.25-3.19-.21a14.62,14.62,0,0,1-.21-3.3,36.46,36.46,0,0,1,.15-6.44c.11-.79.24-1,.95-.94a51.51,51.51,0,0,1,6.8.41,8.72,8.72,0,0,1,1.86.58,3.44,3.44,0,0,1,2.21,2.77,6.15,6.15,0,0,1-.82,4.87,4.18,4.18,0,0,1-.91,1,7.49,7.49,0,0,1-4,1.29C308.84,607.91,308,607.87,306.88,607.87Z" transform="translate(-20.08 -23.98)"/><path class="cls-19" d="M369.39,614.7c-.91-.05-2.15-.1-3.38-.18a.51.51,0,0,1-.49-.68,11,11,0,0,1,.29-1.13l3.36-10.4a2.21,2.21,0,0,1,.16-.35.6.6,0,0,1,1-.13,2.14,2.14,0,0,1,.5.82c.43,2,1.56,3.7,2.16,5.62s1.08,3.61,1.61,5.42a.63.63,0,0,1-.58.82A26.87,26.87,0,0,1,369.39,614.7Z" transform="translate(-20.08 -23.98)"/></svg>