<?xml version="1.0" encoding="utf-8"?>
<!-- Generator: Adobe Illustrator 24.1.0, SVG Export Plug-In . SVG Version: 6.00 Build 0)  -->
<svg version="1.1"
	 id="Layer_1" text-rendering="geometricPrecision" shape-rendering="geometricPrecision" image-rendering="optimizeQuality"
	 xmlns="http://www.w3.org/2000/svg" xmlns:xlink="http://www.w3.org/1999/xlink" x="0px" y="0px" viewBox="0 0 8192 8192"
	 style="enable-background:new 0 0 8192 8192;" xml:space="preserve">
<style type="text/css">
	.st0{fill:#FFFFFF;stroke:#000000;stroke-miterlimit:10;}
	.st1{fill-rule:evenodd;clip-rule:evenodd;fill:#1DA1F2;}
</style>
<circle class="st0" cx="4279.7" cy="4005.7" r="3016.4"/>
<path class="st1" d="M4096,0c2262.2,0,4096,1833.8,4096,4096S6358.2,8192,4096,8192S0,6358.2,0,4096S1833.8,0,4096,0z M6320,2716.6
	c-163.5,73.1-339.7,121.7-523.6,143.4c188.5-112.9,332.6-291.7,401.4-504.7c-176.2,104.2-371.9,180.6-579.4,221.5
	c-166.8-177.2-403.7-287.4-666.1-287.4c-503.9,0-911.9,408.2-911.9,911.8c0,71.1,7.9,140.6,23.3,207.7
	c-758.2-38.4-1430.4-401.4-1880.4-953.7c-80.7,139.2-123.4,297.6-123.4,458.6v0.1c0,316.2,160.5,595.9,405.5,759
	c-149.5-4.4-290.1-46.1-413.6-113.7v11.4c0,442.2,314.3,811.2,731.9,894.6c-76.5,20.8-157.3,32.3-240.5,32.3
	c-58.9,0-115.7-6.1-172.2-16.3c116.6,362.2,453.4,626.1,852.1,633.8c-312.7,244.9-705.3,390.8-1133.4,390.8
	c-73.9,0-145.9-4.5-217.7-13.1c404.7,259.6,884,410,1399.1,410c1677.8,0,2596.1-1390.4,2596.1-2596c0-40.1-0.9-78.9-2.6-118.1
	c178.2-127.5,332.7-288.4,455-471.5L6320,2716.6L6320,2716.6z"/>
</svg>
