<?xml version="1.0" encoding="utf-8"?>
<!-- Generator: Adobe Illustrator 24.1.0, SVG Export Plug-In . SVG Version: 6.00 Build 0)  -->
<svg version="1.1" id="Layer_1" xmlns="http://www.w3.org/2000/svg" xmlns:xlink="http://www.w3.org/1999/xlink" x="0px" y="0px"
	 viewBox="0 0 819 400" style="enable-background:new 0 0 819 400;" xml:space="preserve">
<style type="text/css">
	.st0{fill:#2B2B2A;}
	.st1{fill:none;stroke:#2B2B2A;stroke-width:2;stroke-miterlimit:5.533;}
	.st2{fill:#DE0000;}
	.st3{fill:#FFCF00;}
</style>
<path class="st0" d="M47.3,183.4h8.4l-2.5,8h-8.4L47.3,183.4z M59.3,172l-2.7,8.6h-8.4l2.7-8.6h-2.9l-2.7,8.6h-6.5v2.8h5.6l-2.5,8
	h-6.3v2.8H41l-2.8,9h3l2.8-9h8.4l-2.8,9h2.9l2.8-9h6.6v-2.8h-5.7l2.5-8h6.3v-2.8h-5.5l2.7-8.6H59.3z"/>
<path class="st0" d="M569.6,214.3c9.5,0,16.4-5.3,16.4-14.2c0-7.8-4.4-12.1-12.3-15.2l-7-2.7c-5.3-2.1-7.9-4.2-7.9-9.1
	s4.5-8.1,10.3-8.1c4.8,0,8,2.2,10.8,5.4l4.4-3.6c-2.8-4-8.2-7.2-14.9-7.2c-9.1,0-16.1,5.3-16.1,13.5c0,7.2,3.5,11.3,11.7,14.4l7.8,3
	c4.8,1.9,7.7,5,7.7,9.6c0,5.4-4.8,8.7-10.6,8.7c-6.4,0-10.6-2.8-13.6-7.5l-4.7,3.4C553.8,210.1,560.8,214.3,569.6,214.3z
	 M514.8,214.3c12,0,20.4-8.2,20.4-21.3v-32.3h-5.7v32.5c0,10.2-5.9,15.8-14.7,15.8s-14.7-5.6-14.7-15.8v-32.5h-5.7V193
	C494.4,206.2,502.7,214.3,514.8,214.3z M447.8,183.7v-17.8h10.9c6.7,0,10.5,3.1,10.5,8.9s-3.9,8.9-10.5,8.9H447.8L447.8,183.7z
	 M442.1,213.4h5.7v-24.5h6l20.9,24.5h7.4L461.2,189c8.5-0.7,13.8-6.1,13.8-14.1c0-8.6-6-14.2-15.6-14.2h-17.2V213.4L442.1,213.4z
	 M415.1,213.4h5.6v-52.8h-5.6V213.4z M372.9,213.4h4.6l22.7-52.8H394l-18.7,43.6l-18.7-43.6h-6.3L372.9,213.4z"/>
<path class="st1" d="M324.1,214.3c9.5,0,16.4-5.3,16.4-14.2c0-7.8-4.4-12.1-12.3-15.2l-7-2.7c-5.4-2.1-7.9-4.2-7.9-9.1
	s4.5-8.1,10.3-8.1c4.8,0,8,2.2,10.8,5.4l4.4-3.6c-2.8-4-8.2-7.2-14.9-7.2c-9.1,0-16.1,5.3-16.1,13.5c0,7.2,3.5,11.3,11.7,14.4l7.8,3
	c4.8,1.9,7.7,5,7.7,9.6c0,5.4-4.8,8.7-10.6,8.7c-6.4,0-10.6-2.8-13.6-7.5l-4.7,3.4C308.2,210.1,315.3,214.3,324.1,214.3z M269,213.4
	h4.6l22.7-52.8H290l-18.7,43.6l-18.7-43.6h-6.3L269,213.4z"/>
<path class="st0" d="M207,181.6v-10.1h7.6c3.5,0,6,1.9,6,5.1c0,3.1-2.5,5.1-6,5.1H207z M195.2,213.4H207v-21.8h1.9l17.5,21.8h14.2
	L222,190.2c6.7-2.4,10.3-6.8,10.3-13.6c0-8.8-6.4-15.9-16.3-15.9h-20.8V213.4z M165.5,213.4h11.8v-52.8h-11.8V213.4z M94,213.4h10.6
	l10.6-34.8l10.5,34.8h10.7l16.4-52.8h-12.6l-9.6,33.7l-10.3-33.7h-10.4l-10.3,33.5L90,160.7H77.5L94,213.4z"/>
<path class="st0" d="M575.4,244.2c2.4,0,4.9-0.8,6.5-2.3v-7.3H575v1.7h5v4.9c-1.2,1-3,1.4-4.7,1.4c-4.3,0-7.1-3-7.1-6.9
	c0-3.9,2.9-6.9,6.8-6.9c2.1,0,3.7,0.7,4.9,1.8l1.1-1.3c-1.5-1.4-3.6-2.2-6.1-2.2c-4.9,0-8.6,3.7-8.6,8.6S570.1,244.2,575.4,244.2z
	 M560.9,243.9v-16.6h-1.8v13.6l-10.6-13.6H547v16.6h1.8v-13.6l10.6,13.6H560.9z M534.1,244.2c3.8,0,6.4-2.6,6.4-6.7v-10.2h-1.8v10.2
	c0,3.2-1.8,5-4.6,5c-2.8,0-4.6-1.8-4.6-5v-10.2h-1.8v10.2C527.7,241.7,530.3,244.2,534.1,244.2z M513,234.6V229h3.4
	c2.1,0,3.3,1,3.3,2.8c0,1.8-1.2,2.8-3.3,2.8L513,234.6L513,234.6z M511.2,243.9h1.8v-7.7h1.9l6.6,7.7h2.3l-6.5-7.7
	c2.7-0.2,4.3-1.9,4.3-4.4c0-2.7-1.9-4.5-4.9-4.5h-5.4V243.9L511.2,243.9z M496.2,243.9h9.5v-1.7H498v-6h6.3v-1.7H498V229h7.7v-1.7
	h-9.5V243.9z M487.7,243.9h1.8v-16.6h-1.8V243.9z M475.4,244.2c2.4,0,4.9-0.8,6.5-2.3v-7.3h-6.8v1.7h5v4.9c-1.2,1-3,1.4-4.7,1.4
	c-4.3,0-7.1-3-7.1-6.9c0-3.9,2.9-6.9,6.9-6.9c2.1,0,3.7,0.7,4.9,1.8l1.1-1.3c-1.5-1.4-3.6-2.2-6.1-2.2c-4.9,0-8.7,3.7-8.7,8.6
	C466.5,240.5,470.2,244.2,475.4,244.2z M453.1,243.9h9.5v-1.7h-7.7v-6h6.3v-1.7h-6.3V229h7.7v-1.7h-9.5V243.9z M438.1,234.6V229h3.4
	c2.1,0,3.3,1,3.3,2.8c0,1.8-1.2,2.8-3.3,2.8L438.1,234.6L438.1,234.6z M436.3,243.9h1.8v-7.7h1.9l6.6,7.7h2.3l-6.5-7.7
	c2.7-0.2,4.3-1.9,4.3-4.4c0-2.7-1.9-4.5-4.9-4.5h-5.4V243.9L436.3,243.9z M425.7,244.2c3,0,5.1-1.7,5.1-4.5c0-2.4-1.4-3.8-3.9-4.8
	l-2.2-0.8c-1.7-0.7-2.5-1.3-2.5-2.9s1.4-2.6,3.2-2.6c1.5,0,2.5,0.7,3.4,1.7l1.4-1.1c-0.9-1.3-2.6-2.3-4.7-2.3
	c-2.9,0-5.1,1.7-5.1,4.2c0,2.3,1.1,3.6,3.7,4.5l2.5,0.9c1.5,0.6,2.4,1.6,2.4,3c0,1.7-1.5,2.7-3.3,2.7c-2,0-3.3-0.9-4.3-2.4l-1.5,1.1
	C420.8,242.9,423,244.2,425.7,244.2z M406.4,243.9h9.5v-1.7h-7.7v-6h6.3v-1.7h-6.3V229h7.7v-1.7h-9.5V243.9z M389.1,242.3V229h2.8
	c4.3,0,7.1,2.8,7.1,6.6c0,3.8-2.8,6.6-7.1,6.6L389.1,242.3L389.1,242.3z M387.4,243.9h4.5c5.2,0,8.9-3.5,8.9-8.3
	c0-4.8-3.7-8.3-8.9-8.3h-4.5V243.9z M380.6,243.9v-16.6h-1.8v13.6l-10.6-13.6h-1.6v16.6h1.8v-13.6l10.6,13.6H380.6z M353.8,244.2
	c3.8,0,6.4-2.6,6.4-6.7v-10.2h-1.8v10.2c0,3.2-1.9,5-4.6,5s-4.6-1.8-4.6-5v-10.2h-1.8v10.2C347.4,241.7,350,244.2,353.8,244.2z
	 M332.6,242.3v-6.2h4c2.5,0,3.7,1.3,3.7,3.1c0,1.8-1.2,3.1-3.7,3.1H332.6L332.6,242.3z M332.6,234.6V229h3.6c2,0,3.1,1.3,3.1,2.8
	c0,1.6-1.1,2.8-3.1,2.8H332.6L332.6,234.6z M330.8,243.9h5.6c3.5,0,5.7-2.1,5.7-4.8c0-2.3-1.3-3.4-3-4c1.1-0.6,1.9-1.8,1.9-3.5
	c0-2.2-1.8-4.2-4.9-4.2h-5.2V243.9z M308.4,234.6V229h3.4c2.1,0,3.3,1,3.3,2.8c0,1.8-1.2,2.8-3.3,2.8L308.4,234.6L308.4,234.6z
	 M306.6,243.9h1.8v-7.7h1.9l6.6,7.7h2.3l-6.5-7.7c2.7-0.2,4.3-1.9,4.3-4.4c0-2.7-1.9-4.5-4.9-4.5h-5.4V243.9L306.6,243.9z
	 M291.6,243.9h9.5v-1.7h-7.7v-6h6.3v-1.7h-6.3V229h7.7v-1.7h-9.5V243.9z M274.3,242.3V229h2.8c4.3,0,7.1,2.8,7.1,6.6
	c0,3.8-2.8,6.6-7.1,6.6L274.3,242.3L274.3,242.3z M272.6,243.9h4.5c5.2,0,8.9-3.5,8.9-8.3c0-4.8-3.7-8.3-8.9-8.3h-4.5V243.9z
	 M258,243.9v-16.6h-1.8v13.6l-10.6-13.6h-1.6v16.6h1.8v-13.6l10.6,13.6H258z M230,242.6c-3.9,0-6.8-3-6.8-6.9c0-3.9,2.9-6.9,6.8-6.9
	c3.9,0,6.8,3,6.8,6.9C236.7,239.5,233.8,242.6,230,242.6z M230,244.2c4.8,0,8.6-3.7,8.6-8.6c0-4.8-3.8-8.6-8.6-8.6
	c-4.8,0-8.6,3.7-8.6,8.6C221.4,240.5,225.2,244.2,230,244.2z M202.6,243.9h1.8v-7.7h9.7v7.7h1.8v-16.6h-1.8v7.2h-9.7v-7.2h-1.8
	V243.9z M190.7,243.9h1.8V229h5.4v-1.7h-12.5v1.7h5.4V243.9z M172.7,237.1l3.2-7.3l3.2,7.3H172.7z M167.9,243.9h1.8l2.3-5.2h7.9
	l2.3,5.2h1.9l-7.4-16.6h-1.4L167.9,243.9z M152.4,243.9h1.8v-8l9.3,8h2.6l-10.2-8.7l8.2-7.9h-2.4l-7.6,7.3v-7.3h-1.8L152.4,243.9
	L152.4,243.9z M140,244.2c3.1,0,5.7-1.5,7.2-3.9l-1.5-0.9c-1.2,1.9-3.2,3.1-5.8,3.1c-3.9,0-6.8-3-6.8-6.9c0-3.9,2.9-6.9,6.8-6.9
	c2.5,0,4.6,1.3,5.8,3.1l1.5-0.9c-1.5-2.4-4.2-3.9-7.2-3.9c-4.8,0-8.6,3.7-8.6,8.6C131.4,240.5,135.2,244.2,140,244.2z M117.1,237.1
	l3.2-7.3l3.2,7.3H117.1z M112.2,243.9h1.8l2.3-5.2h7.9l2.3,5.2h1.9l-7.4-16.6h-1.4L112.2,243.9z M94.4,243.9h1.8v-7.7h9.7v7.7h1.8
	v-16.6h-1.8v7.2h-9.7v-7.2h-1.8V243.9z M71.9,234.6V229h3.4c2.1,0,3.3,1,3.3,2.8c0,1.8-1.2,2.8-3.3,2.8L71.9,234.6L71.9,234.6z
	 M70.2,243.9h1.8v-7.7h1.9l6.6,7.7h2.3l-6.5-7.7c2.7-0.2,4.3-1.9,4.3-4.4c0-2.7-1.9-4.5-4.9-4.5h-5.4V243.9L70.2,243.9z M55.1,243.9
	h9.5v-1.7h-7.7v-6h6.3v-1.7h-6.3V229h7.7v-1.7h-9.5V243.9z M37.9,242.3V229h2.8c4.3,0,7.1,2.8,7.1,6.6c0,3.8-2.8,6.6-7.1,6.6
	L37.9,242.3L37.9,242.3z M36.1,243.9h4.5c5.2,0,8.9-3.5,8.9-8.3c0-4.8-3.7-8.3-8.9-8.3h-4.5V243.9z"/>
<path d="M721.6,62.2c3,0.1,5.8,1.3,7.9,3.5c67.1,67.1,67.1,176.2,0,243.3s-176.2,67.1-243.3,0c-4.5-4.4-4.7-11.7-0.2-16.2
	c4.4-4.5,11.7-4.7,16.2-0.2c0.1,0.1,0.2,0.2,0.2,0.2c58.3,58.3,152.5,58.3,210.8,0c58.3-58.3,58.3-152.5,0-210.8
	c-4.5-4.4-4.6-11.7-0.2-16.2C715.3,63.4,718.4,62.1,721.6,62.2z"/>
<path class="st2" d="M607.9,38.2c53.2,0,102.5,28.4,129,74.5c26.6,46.1,26.6,103,0,149.1c-26.6,46.1-75.9,74.5-129,74.5
	c-6.3,0.1-11.6-5-11.7-11.3c-0.1-6.3,5-11.6,11.3-11.7c0.1,0,0.2,0,0.4,0c45,0,86.7-24,109.1-63v0l0,0c22.5-39,22.5-87.1,0-126.1
	l0,0v0c-22.5-39-64.1-63-109.1-63c-6.3,0.1-11.6-5-11.7-11.3c-0.1-6.3,5-11.6,11.3-11.7C607.7,38.2,607.8,38.2,607.9,38.2z"/>
<path class="st3" d="M607.9,61.3c32.3,0,64.6,12.3,89.2,36.9c49.1,49.1,49.1,129.1,0,178.3c-4.4,4.5-11.7,4.6-16.2,0.2
	c-4.5-4.4-4.6-11.7-0.2-16.2c0-0.1,0.1-0.1,0.2-0.2c40.3-40.4,40.3-105.6,0-145.9c-40.4-40.4-105.5-40.4-146,0
	c-4.4,4.6-11.7,4.7-16.2,0.2c-4.5-4.4-4.7-11.7-0.2-16.2c0.1-0.1,0.2-0.2,0.2-0.2C543.3,73.6,575.6,61.3,607.9,61.3z"/>
</svg>
