<?xml version="1.0" encoding="utf-8"?>
<!-- Generator: Adobe Illustrator 24.1.0, SVG Export Plug-In . SVG Version: 6.00 Build 0)  -->
<svg version="1.1"
	 id="Layer_1" text-rendering="geometricPrecision" shape-rendering="geometricPrecision" image-rendering="optimizeQuality"
	 xmlns="http://www.w3.org/2000/svg" xmlns:xlink="http://www.w3.org/1999/xlink" x="0px" y="0px" viewBox="0 0 8192 8192"
	 style="enable-background:new 0 0 8192 8192;" xml:space="preserve">
<style type="text/css">
	.st0{fill:#FFFFFF;stroke:#000000;stroke-miterlimit:10;}
	.st1{fill-rule:evenodd;clip-rule:evenodd;fill:#FF0000;}
</style>
<ellipse class="st0" cx="4238.4" cy="4076.2" rx="2798.5" ry="2292.8"/>
<path class="st1" d="M4096,0c2262.2,0,4096,1833.8,4096,4096S6358.2,8192,4096,8192S0,6358.2,0,4096S1833.8,0,4096,0z
	 M6165.2,3251.3c0,0-41.2-291.2-168.2-419.1c-160.9-168.2-340.9-169.3-423.3-179c-590.7-43-1478-43-1478-43h-1.5
	c0,0-886.8,0-1477.9,43c-82.6,10.1-262.5,10.7-423.3,179c-127,127.9-167.4,419.1-167.4,419.1s-42,341.7-42,684.1v320.2
	c0,341.7,42,684.1,42,684.1s41.2,291.2,167.4,419.3c160.8,168.2,372.1,162.7,466.4,180.6c338.2,32.3,1436.6,42,1436.6,42
	s888-1.6,1478.7-43.8c82.6-9.8,262.4-10.8,423.3-179c127-127.8,168.2-419.4,168.2-419.4s42-341.7,42-684.1v-320.2
	c-0.9-341.7-42.9-684.1-42.9-684.1L6165.2,3251.3L6165.2,3251.3L6165.2,3251.3z M3658.2,4644.2V3456.8l1141.2,595.6L3658.2,4644.2z"
	/>
</svg>
