<?xml version="1.0" encoding="utf-8"?>
<!-- Generator: Adobe Illustrator 19.1.1, SVG Export Plug-In . SVG Version: 6.00 Build 0)  -->
<svg version="1.1" id="Ebene_1" xmlns="http://www.w3.org/2000/svg" xmlns:xlink="http://www.w3.org/1999/xlink" x="0px" y="0px"
	 viewBox="-150 402.4 291.1 36.1" style="enable-background:new -150 402.4 291.1 36.1;" xml:space="preserve">
<style type="text/css">
	.st0{fill:none;}
	.st1{enable-background:new    ;}
	.st2{fill:#334D97;}
</style>
<rect x="-151.9" y="402.4" class="st0" width="296.5" height="36.5"/>
<g class="st1">
	<path class="st2" d="M-148.4,414.2c1.3-0.8,2.7-1.3,4.4-1.7c1.7-0.4,3.4-0.6,5.3-0.6c1.7,0,3.1,0.2,4.2,0.7c1,0.5,1.8,1.1,2.4,1.8
		c0.5,0.8,0.9,1.6,1.1,2.5c0.2,0.9,0.3,1.8,0.3,2.7c0,2-0.1,4-0.1,5.9c-0.1,1.9-0.2,3.7-0.2,5.4c0,1.2,0.1,2.4,0.2,3.5
		c0.1,1.1,0.3,2.1,0.5,3h-3l-1-3.5h-0.3c-0.3,0.5-0.7,0.9-1.1,1.4c-0.5,0.5-1,0.9-1.6,1.2c-0.6,0.4-1.4,0.6-2.2,0.9
		c-0.8,0.2-1.8,0.4-2.8,0.4c-1.1,0-2.1-0.2-3-0.5s-1.7-0.8-2.4-1.4s-1.2-1.4-1.6-2.2c-0.4-0.9-0.6-1.8-0.6-3c0-1.5,0.3-2.7,0.9-3.7
		c0.6-1,1.4-1.8,2.5-2.3c1.1-0.6,2.4-1,3.9-1.3s3.2-0.4,5-0.4c0.5,0,0.9,0,1.4,0s0.9,0,1.4,0.1c0.1-1,0.2-1.9,0.2-2.7
		c0-1.8-0.4-3.1-1.1-3.8c-0.7-0.7-2.1-1.1-4-1.1c-0.6,0-1.2,0-1.8,0.1s-1.3,0.2-2,0.4c-0.7,0.2-1.3,0.3-1.9,0.6
		c-0.6,0.2-1.2,0.5-1.6,0.7L-148.4,414.2z M-141.4,434.3c0.9,0,1.8-0.1,2.5-0.4s1.4-0.6,1.9-1s1-0.8,1.3-1.3
		c0.4-0.5,0.6-0.9,0.8-1.3v-4.2c-0.5,0-0.9-0.1-1.4-0.1s-1,0-1.4,0c-1,0-2,0.1-3,0.2s-1.8,0.3-2.6,0.7s-1.4,0.8-1.8,1.3
		c-0.4,0.5-0.7,1.2-0.7,2.1c0,1.2,0.4,2.1,1.3,2.9C-143.7,433.9-142.7,434.3-141.4,434.3z"/>
	<path class="st2" d="M-105,435.4c-1,0.8-2.3,1.4-3.8,1.9s-3.1,0.7-4.8,0.7c-1.9,0-3.5-0.3-5-0.9c-1.4-0.6-2.5-1.5-3.4-2.6
		c-0.9-1.2-1.6-2.5-2-4.1s-0.6-3.4-0.6-5.4c0-4.3,0.9-7.5,2.8-9.8c1.9-2.2,4.6-3.3,8.2-3.3c1.1,0,2.3,0.1,3.4,0.4s2.1,0.7,3,1.4
		s1.6,1.7,2.2,3s0.9,3,0.9,5.1c0,1.1-0.1,2.3-0.3,3.7h-16c0,1.5,0.1,2.8,0.4,3.9s0.8,2.1,1.4,2.9s1.5,1.4,2.5,1.8s2.3,0.6,3.7,0.6
		c1.1,0,2.3-0.2,3.4-0.6s2-0.9,2.6-1.4L-105,435.4z M-113.6,415.3c-2,0-3.5,0.5-4.7,1.5s-1.9,2.8-2.1,5.3h12.4
		c0-2.5-0.5-4.3-1.4-5.3C-110.5,415.8-111.8,415.3-113.6,415.3z"/>
	<path class="st2" d="M-86.1,416.2c-1-0.3-1.9-0.5-2.9-0.5c-1.4,0-2.6,0.4-3.4,1.2c-0.8,0.8-1.4,1.8-1.5,3v17.5h-4v-25h2.8l0.8,3
		h0.2c0.6-1.1,1.4-2,2.3-2.6s2-0.9,3.4-0.9c1,0,2,0.2,3.3,0.5L-86.1,416.2z"/>
	<path class="st2" d="M-82.6,433.9l11.5-15.9l2.1-2.1h-13.6v-3.5h17.8v3.5L-76.4,432l-2,2h13.6v3.5h-17.8V433.9z"/>
	<path class="st2" d="M-61.8,412.4h3.9v-5l4-1.1v6.1h6.8v3.5h-6.8v13.9c0,1.7,0.2,3,0.6,3.7c0.4,0.7,1.2,1.1,2.2,1.1
		c0.9,0,1.6-0.1,2.2-0.3c0.6-0.2,1.3-0.4,2-0.7l0.9,3.1c-0.9,0.4-1.9,0.8-2.9,1c-1.1,0.3-2.2,0.4-3.5,0.4c-2,0-3.5-0.6-4.3-1.7
		c-0.8-1.2-1.3-3.1-1.3-5.8V416h-3.9L-61.8,412.4L-61.8,412.4z"/>
	<path class="st2" d="M-23.9,435.4c-1,0.8-2.3,1.4-3.8,1.9s-3.1,0.7-4.8,0.7c-1.9,0-3.5-0.3-5-0.9c-1.4-0.6-2.5-1.5-3.4-2.6
		c-0.9-1.2-1.6-2.5-2-4.1s-0.6-3.4-0.6-5.4c0-4.3,0.9-7.5,2.8-9.8c1.9-2.2,4.6-3.3,8.2-3.3c1.1,0,2.3,0.1,3.4,0.4s2.1,0.7,3,1.4
		s1.6,1.7,2.2,3s0.9,3,0.9,5.1c0,1.1-0.1,2.3-0.3,3.7h-16c0,1.5,0.1,2.8,0.4,3.9c0.3,1.1,0.8,2.1,1.4,2.9c0.6,0.8,1.5,1.4,2.5,1.8
		s2.3,0.6,3.7,0.6c1.1,0,2.3-0.2,3.4-0.6s2-0.9,2.6-1.4L-23.9,435.4z M-32.5,415.3c-2,0-3.5,0.5-4.7,1.5s-1.9,2.8-2.1,5.3h12.4
		c0-2.5-0.5-4.3-1.4-5.3C-29.3,415.8-30.7,415.3-32.5,415.3z"/>
	<path class="st2" d="M-16.7,402.4h4v12.5h0.2c0.8-1,1.7-1.7,2.9-2.3c1.2-0.5,2.5-0.8,3.9-0.8c3.2,0,5.7,1,7.3,3.1s2.4,5.3,2.4,9.6
		c0,4.4-1.1,7.7-3.2,10s-5.1,3.4-9,3.4c-1.9,0-3.6-0.2-5.1-0.6s-2.7-0.8-3.4-1.3C-16.7,436-16.7,402.4-16.7,402.4z M-6.4,415.3
		c-1.7,0-3,0.5-4,1.4s-1.8,2.3-2.3,4v12.6c0.6,0.4,1.4,0.6,2.3,0.8c0.9,0.2,1.8,0.3,2.8,0.3c2.3,0,4.1-0.8,5.4-2.4
		c1.4-1.6,2-4.1,2-7.5c0-1.3-0.1-2.5-0.3-3.6s-0.6-2.1-1.1-2.9s-1.1-1.4-1.9-1.9C-4.3,415.5-5.3,415.3-6.4,415.3z"/>
	<path class="st2" d="M14.7,431.2c0,1.2,0.2,2,0.6,2.5s1,0.8,1.7,0.8c0.4,0,0.9,0,1.4-0.1s1.1-0.2,1.7-0.5l0.4,3.2
		c-0.5,0.3-1.3,0.5-2.2,0.6c-1,0.2-1.8,0.3-2.5,0.3c-1.5,0-2.7-0.4-3.7-1.3s-1.4-2.3-1.4-4.3v-30h4
		C14.7,402.4,14.7,431.2,14.7,431.2z"/>
	<path class="st2" d="M24.5,414.2c1.3-0.8,2.7-1.3,4.4-1.7c1.7-0.4,3.4-0.6,5.3-0.6c1.7,0,3.1,0.2,4.2,0.7c1,0.5,1.8,1.1,2.4,1.8
		s0.9,1.6,1.1,2.5c0.2,0.9,0.3,1.8,0.3,2.7c0,2,0,4-0.1,5.9s-0.2,3.7-0.2,5.4c0,1.2,0,2.4,0.2,3.5c0.1,1.1,0.3,2.1,0.5,3h-2.9
		l-1.1-3.5h-0.3c-0.3,0.5-0.7,0.9-1.1,1.4c-0.4,0.5-1,0.9-1.6,1.2c-0.6,0.4-1.4,0.6-2.2,0.9c-0.8,0.2-1.8,0.4-2.8,0.4
		c-1.1,0-2.1-0.2-3-0.5s-1.7-0.8-2.4-1.4c-0.7-0.6-1.2-1.4-1.6-2.2c-0.4-0.9-0.6-1.8-0.6-3c0-1.5,0.3-2.7,0.9-3.7s1.4-1.8,2.5-2.3
		c1.1-0.6,2.4-1,3.9-1.3c1.5-0.3,3.2-0.4,5-0.4c0.5,0,0.9,0,1.4,0c0.4,0,0.9,0,1.4,0.1c0.1-1,0.2-1.9,0.2-2.7c0-1.8-0.4-3.1-1.1-3.8
		s-2.1-1.1-4-1.1c-0.6,0-1.2,0-1.8,0.1s-1.3,0.2-2,0.4c-0.7,0.2-1.3,0.3-1.9,0.6c-0.6,0.2-1.2,0.5-1.6,0.7L24.5,414.2z M31.6,434.3
		c0.9,0,1.8-0.1,2.5-0.4s1.4-0.6,1.9-1s1-0.8,1.3-1.3s0.6-0.9,0.8-1.3v-4.2c-0.5,0-0.9-0.1-1.4-0.1s-1,0-1.4,0c-1,0-2,0.1-3,0.2
		s-1.8,0.3-2.6,0.7s-1.4,0.8-1.8,1.3s-0.7,1.2-0.7,2.1c0,1.2,0.4,2.1,1.3,2.9S30.3,434.3,31.6,434.3z"/>
	<path class="st2" d="M46.4,412.4h3.9v-5l4-1.1v6.1h6.8v3.5h-6.8v13.9c0,1.7,0.2,3,0.7,3.7c0.4,0.7,1.2,1.1,2.2,1.1
		c0.9,0,1.6-0.1,2.2-0.3c0.6-0.2,1.3-0.4,2-0.7l0.9,3.1c-0.9,0.4-1.9,0.8-2.9,1c-1.1,0.3-2.2,0.4-3.5,0.4c-2,0-3.5-0.6-4.3-1.7
		c-0.8-1.2-1.3-3.1-1.3-5.8V416h-3.9C46.4,416,46.4,412.4,46.4,412.4z"/>
	<path class="st2" d="M63.3,412.4h3.9v-5l4-1.1v6.1H78v3.5h-6.8v13.9c0,1.7,0.2,3,0.7,3.7c0.4,0.7,1.2,1.1,2.2,1.1
		c0.9,0,1.6-0.1,2.2-0.3c0.6-0.2,1.3-0.4,2-0.7l0.9,3.1c-0.9,0.4-1.9,0.8-2.9,1c-1.1,0.3-2.2,0.4-3.5,0.4c-2,0-3.5-0.6-4.3-1.7
		c-0.8-1.2-1.3-3.1-1.3-5.8V416h-3.9L63.3,412.4L63.3,412.4z"/>
	<path class="st2" d="M83,435.1c0-0.9,0.3-1.6,0.8-2.1s1.2-0.8,2.1-0.8s1.6,0.3,2.2,0.8c0.5,0.5,0.8,1.2,0.8,2.1s-0.3,1.6-0.8,2.1
		s-1.3,0.8-2.2,0.8c-0.9,0-1.6-0.3-2.1-0.8C83.3,436.7,83,436,83,435.1z"/>
	<path class="st2" d="M114.3,428.8c0,1.7,0,3.2,0,4.6s0.2,2.7,0.5,4.1h-2.7l-1-3.5h-0.2c-0.7,1.2-1.6,2.1-2.9,2.9s-2.8,1.1-4.4,1.1
		c-3.3,0-5.8-1-7.4-3.1s-2.4-5.4-2.4-9.9c0-4.3,1-7.5,3-9.7s4.8-3.3,8.3-3.3c1.2,0,2.2,0.1,2.9,0.2c0.7,0.1,1.5,0.3,2.3,0.7v-10.4h4
		C114.3,402.5,114.3,428.8,114.3,428.8z M104.2,434.5c1.7,0,3-0.4,4-1.3s1.7-2.2,2.1-4v-12.4c-0.6-0.5-1.3-0.8-2.1-1
		c-0.8-0.2-1.8-0.3-3-0.3c-2.3,0-4.1,0.8-5.4,2.3s-2,3.9-2,7.3c0,1.4,0.1,2.6,0.3,3.8s0.6,2.2,1.1,3s1.2,1.5,2,2
		C102,434.2,103,434.5,104.2,434.5z"/>
	<path class="st2" d="M140.2,435.4c-1,0.8-2.3,1.4-3.8,1.9s-3.1,0.7-4.8,0.7c-1.9,0-3.5-0.3-5-0.9c-1.4-0.6-2.5-1.5-3.5-2.6
		c-0.9-1.2-1.6-2.5-2-4.1s-0.6-3.4-0.6-5.4c0-4.3,1-7.5,2.8-9.8c1.9-2.2,4.6-3.3,8.2-3.3c1.1,0,2.3,0.1,3.4,0.4s2.2,0.7,3.1,1.4
		c0.9,0.7,1.6,1.7,2.2,3c0.6,1.3,0.9,3,0.9,5.1c0,1.1-0.1,2.3-0.3,3.7h-16.1c0,1.5,0.2,2.8,0.5,3.9s0.8,2.1,1.4,2.9
		c0.6,0.8,1.5,1.4,2.5,1.8s2.3,0.6,3.7,0.6c1.1,0,2.3-0.2,3.4-0.6c1.1-0.4,2-0.9,2.5-1.4L140.2,435.4z M131.6,415.3
		c-2,0-3.5,0.5-4.7,1.5s-1.9,2.8-2.1,5.3h12.4c0-2.5-0.5-4.3-1.5-5.3C134.8,415.8,133.4,415.3,131.6,415.3z"/>
</g>
</svg>
