<svg id="Layer_1" data-name="Layer 1" xmlns="http://www.w3.org/2000/svg" viewBox="0 0 611.15 222.09"><defs><style>.cls-1{fill:#101441;}.cls-2{fill:#ed1171;}</style></defs><path class="cls-1" d="M593.18,3.64V92h9.61V115.1h-9.61v23.81H559.42V115.1h-40.1V92l29.16-88.4ZM559.42,92V34.47L544.51,92Z"/><path class="cls-2" d="M242.94,146.48v15.06a15,15,0,0,1,4.65-3,14.27,14.27,0,0,1,5.36-1,12.35,12.35,0,0,1,7.46,2.24,8.94,8.94,0,0,1,3.77,5.15,55.25,55.25,0,0,1,.68,10.65v37.85H248.15V174.81a23.79,23.79,0,0,0-.48-6.16,2.27,2.27,0,0,0-4.19,0,18.58,18.58,0,0,0-.54,5.59v39.17H226.23v-67Z"/><path class="cls-2" d="M308.46,187H286.83v11.88a13.47,13.47,0,0,0,.53,4.8,2.1,2.1,0,0,0,2.07,1.07,2.51,2.51,0,0,0,2.55-1.43,15.78,15.78,0,0,0,.64-5.52v-7.24h15.84v4.06a36.08,36.08,0,0,1-.64,7.81,16,16,0,0,1-3,5.84,14.5,14.5,0,0,1-6,4.65,23.17,23.17,0,0,1-9.08,1.55,26.42,26.42,0,0,1-9.35-1.53,14.92,14.92,0,0,1-6.3-4.2,15.08,15.08,0,0,1-3.13-5.87,38,38,0,0,1-.86-9.33v-16q0-7.2,1.94-11.35a13.27,13.27,0,0,1,6.37-6.37,22.4,22.4,0,0,1,10.18-2.22,22.76,22.76,0,0,1,11.6,2.67,14.7,14.7,0,0,1,6.41,7.07q1.85,4.41,1.84,12.39ZM291.71,178v-4a19.83,19.83,0,0,0-.46-5.5,1.8,1.8,0,0,0-1.86-1.25c-1.16,0-1.87.36-2.15,1.06a22.32,22.32,0,0,0-.41,5.69v4Z"/><path class="cls-2" d="M328.86,179.82H313.18v-3.68q0-6.37,1.47-9.83a13.61,13.61,0,0,1,5.89-6.1q4.43-2.64,11.5-2.65,8.47,0,12.78,3a11.66,11.66,0,0,1,5.17,7.37q.87,4.35.87,18v27.55H334.61v-4.89a10.22,10.22,0,0,1-9.73,5.88,14.11,14.11,0,0,1-8-2.46q-3.66-2.46-3.66-10.78v-4.5q0-6.16,1.94-8.4t9.64-5.21c5.49-2.16,8.42-3.6,8.81-4.35a11.44,11.44,0,0,0,.58-4.55q0-4.31-.64-5.6a2.21,2.21,0,0,0-2.13-1.31c-1.13,0-1.84.37-2.11,1.1a22.16,22.16,0,0,0-.41,5.69Zm5.29,7.53q-4,2.93-4.65,4.92a19.47,19.47,0,0,0-.64,5.71q0,4.26.55,5.5a2.19,2.19,0,0,0,2.22,1.24,2,2,0,0,0,2-1c.32-.65.48-2.35.48-5.11Z"/><path class="cls-2" d="M373.82,146.48v67H356.61v-67Z"/><path class="cls-2" d="M397.44,151.23v8.65H402v8.69h-4.51v29.37q0,5.42.56,6c.37.41,1.92.62,4.65.62v8.85h-6.74a47.86,47.86,0,0,1-8.15-.48,8.64,8.64,0,0,1-4.3-2.19,7.31,7.31,0,0,1-2.32-3.93,70.33,70.33,0,0,1-.45-10.4V168.57h-3.6v-8.69h3.6v-8.65Z"/><path class="cls-2" d="M422.34,146.48v15.06a15.12,15.12,0,0,1,4.66-3,14.22,14.22,0,0,1,5.35-1,12.36,12.36,0,0,1,7.47,2.24,8.94,8.94,0,0,1,3.77,5.15,55.25,55.25,0,0,1,.68,10.65v37.85H427.56V174.81a23.79,23.79,0,0,0-.48-6.16,2.28,2.28,0,0,0-4.2,0,18.58,18.58,0,0,0-.54,5.59v39.17H405.63v-67Z"/><path class="cls-2" d="M487,179.28H471.2V173a12.38,12.38,0,0,0-.54-4.49,2,2,0,0,0-2-1.18,1.94,1.94,0,0,0-1.94,1,13.31,13.31,0,0,0-.49,4.63v25.9a10,10,0,0,0,.74,4.4,2.35,2.35,0,0,0,2.19,1.47,2.26,2.26,0,0,0,2.3-1.53,18.41,18.41,0,0,0,.6-5.79v-6.54H487a86.43,86.43,0,0,1-.48,9.87,15.78,15.78,0,0,1-2.77,6.74,14.81,14.81,0,0,1-6.1,5.21,22,22,0,0,1-9.31,1.76q-7.07,0-11.21-2.42a13.31,13.31,0,0,1-5.85-6.78q-1.73-4.37-1.72-12.39v-15.6c0-4.66.47-8.17,1.41-10.55s2.94-4.48,6-6.34a21,21,0,0,1,11.17-2.8,21.47,21.47,0,0,1,11.17,2.77,13.63,13.63,0,0,1,6.16,7Q487,171.54,487,179.28Z"/><path class="cls-2" d="M506.86,179.82H491.18v-3.68q0-6.37,1.47-9.83a13.61,13.61,0,0,1,5.89-6.1q4.43-2.64,11.5-2.65,8.48,0,12.78,3a11.71,11.71,0,0,1,5.18,7.37q.86,4.35.86,18v27.55H512.61v-4.89a10.2,10.2,0,0,1-9.73,5.88,14.11,14.11,0,0,1-8-2.46q-3.66-2.46-3.66-10.78v-4.5q0-6.16,1.94-8.4t9.64-5.21c5.49-2.16,8.42-3.6,8.81-4.35a11.44,11.44,0,0,0,.58-4.55q0-4.31-.64-5.6a2.21,2.21,0,0,0-2.13-1.31c-1.13,0-1.83.37-2.11,1.1a22.16,22.16,0,0,0-.41,5.69Zm5.29,7.53q-4,2.93-4.65,4.92a19.47,19.47,0,0,0-.64,5.71c0,2.84.18,4.67.56,5.5a2.18,2.18,0,0,0,2.21,1.24,2,2,0,0,0,2.05-1c.31-.65.47-2.35.47-5.11Z"/><path class="cls-2" d="M551.32,158.56l-.66,7.21q3.65-7.76,10.55-8.21v19.32q-4.59,0-6.74,1.24a5.2,5.2,0,0,0-2.65,3.46,61.75,61.75,0,0,0-.5,10.19v21.68H534.61V158.56Z"/><path class="cls-2" d="M602.79,187H581.15v11.88a13.16,13.16,0,0,0,.54,4.8,2.1,2.1,0,0,0,2.07,1.07,2.5,2.5,0,0,0,2.54-1.43,15.54,15.54,0,0,0,.64-5.52v-7.24h15.85v4.06a36,36,0,0,1-.65,7.81,15.83,15.83,0,0,1-3,5.84,14.63,14.63,0,0,1-6,4.65,23.24,23.24,0,0,1-9.08,1.55,26.38,26.38,0,0,1-9.35-1.53,15,15,0,0,1-6.31-4.2,15.19,15.19,0,0,1-3.12-5.87,37.91,37.91,0,0,1-.87-9.33v-16q0-7.2,1.94-11.35a13.31,13.31,0,0,1,6.37-6.37,22.43,22.43,0,0,1,10.18-2.22,22.71,22.71,0,0,1,11.6,2.67A14.72,14.72,0,0,1,601,167.3q1.83,4.41,1.84,12.39ZM586,178v-4a20.39,20.39,0,0,0-.45-5.5,1.81,1.81,0,0,0-1.86-1.25c-1.16,0-1.88.36-2.16,1.06a22.32,22.32,0,0,0-.41,5.69v4Z"/><path class="cls-1" d="M248.05,66.7l-.38,6.87a17.68,17.68,0,0,1,6.09-6.13,15.82,15.82,0,0,1,8.05-2q8.82,0,13.88,8.17A19.76,19.76,0,0,1,282,67.44a15,15,0,0,1,7.72-2A15.13,15.13,0,0,1,299,68.12a12,12,0,0,1,4.71,6.66q1,3.94,1,12.82v51.31H283.36V91.84q0-9.24-.63-11.45a2.75,2.75,0,0,0-2.91-2.21,2.88,2.88,0,0,0-3,2.18q-.68,2.17-.68,11.48v47.07H254.79V93q0-10.61-.51-12.73a2.62,2.62,0,0,0-2.86-2.13,3.28,3.28,0,0,0-2.5,1.12A4.34,4.34,0,0,0,247.77,82q-.11,1.61-.1,6.83v50.06H226.34V66.7Z"/><path class="cls-1" d="M331.9,94.67H311.27V89.83q0-8.39,1.94-12.93t7.75-8q5.82-3.48,15.13-3.48,11.15,0,16.81,3.94T359.7,79q1.14,5.75,1.15,23.64v36.24H339.46v-6.44a13.4,13.4,0,0,1-12.79,7.74A18.63,18.63,0,0,1,316.09,137q-4.81-3.24-4.82-14.18v-5.93c0-5.4.85-9.09,2.56-11s5.93-4.25,12.68-6.86q10.83-4.25,11.59-5.72c.51-1,.76-3,.76-6q0-5.65-.84-7.37a2.9,2.9,0,0,0-2.8-1.72c-1.49,0-2.42.48-2.78,1.44s-.54,3.46-.54,7.49Zm7,9.9q-5.28,3.87-6.12,6.48a25.79,25.79,0,0,0-.84,7.51c0,3.73.24,6.15.73,7.24a2.88,2.88,0,0,0,2.91,1.63,2.71,2.71,0,0,0,2.7-1.28q.61-1.28.62-6.72Z"/><path class="cls-1" d="M391.59,57.07V68.44h5.93V79.87h-5.93V118.5c0,4.76.24,7.4.73,8s2.53.81,6.12.81v11.65h-8.86a63.17,63.17,0,0,1-10.73-.63,11.37,11.37,0,0,1-5.65-2.88,9.57,9.57,0,0,1-3.05-5.17q-.6-2.91-.6-13.69V79.87h-4.73V68.44h4.73V57.07Z"/><path class="cls-1" d="M451,94H430.22V85.64a16.42,16.42,0,0,0-.71-5.91,2.61,2.61,0,0,0-2.61-1.55,2.57,2.57,0,0,0-2.56,1.36q-.64,1.36-.65,6.1V119.7a13.35,13.35,0,0,0,1,5.8,3.11,3.11,0,0,0,2.89,1.93,3,3,0,0,0,3-2q.8-2,.79-7.61v-8.6H451a112.53,112.53,0,0,1-.62,13,20.82,20.82,0,0,1-3.65,8.87,19.5,19.5,0,0,1-8,6.85,28.92,28.92,0,0,1-12.25,2.31q-9.3,0-14.74-3.18a17.47,17.47,0,0,1-7.7-8.92q-2.27-5.75-2.26-16.3V91.3q0-9.19,1.85-13.88t7.89-8.35a27.75,27.75,0,0,1,14.69-3.67A28.11,28.11,0,0,1,440.83,69q6.09,3.64,8.11,9.2T451,94Z"/><path class="cls-1" d="M479.47,50.81V70.63a19.83,19.83,0,0,1,6.12-3.93,18.9,18.9,0,0,1,7-1.3,16.31,16.31,0,0,1,9.83,2.94,11.75,11.75,0,0,1,5,6.77q.9,3.84.9,14v49.79h-22V88.09q0-6.32-.62-8.11a3,3,0,0,0-5.53,0q-.71,1.86-.7,7.35v51.53h-22V50.81Z"/><path class="cls-2" d="M191.2,55.6a57.83,57.83,0,0,0-81.73,0l-2,2-2-2a57.81,57.81,0,0,0-81.8,81.7l2,2L77.72,191.4h0l12.09,12.09.2.22,5.15,5.17a17.38,17.38,0,0,0,24.52,0l4.77-4.77h0l12.65-12.65h0l52-52.07,2-2a57.69,57.69,0,0,0,.26-81.58Z"/><path class="cls-1" d="M120.72,97.77a12,12,0,0,0-12.47,0,12.36,12.36,0,0,0-4.88,5.3A61.58,61.58,0,0,1,99,110.45l-19.22-19L61,110.4a61.69,61.69,0,0,1-4.5-7.34,12.35,12.35,0,0,0-4.94-5.25A12.48,12.48,0,0,0,39.11,98a12.35,12.35,0,0,0-2.25,19.3,13.18,13.18,0,0,0,3.2,2.26,61.58,61.58,0,0,1,7.39,4.41L29,142.64,80.82,194.5l18.51-18.73a54.19,54.19,0,0,0-6.93-4.14,11.87,11.87,0,0,1-3.2-2.26,12.35,12.35,0,0,1,2.25-19.3,12,12,0,0,1,12.46-.16,12.38,12.38,0,0,1,5,5.25A55.67,55.67,0,0,0,113,162l18.81-19L112.68,124a61.69,61.69,0,0,1,7.34-4.5,12.11,12.11,0,0,0,3.17-2.29A12.47,12.47,0,0,0,120.72,97.77Z"/></svg>