<?xml version="1.0" encoding="UTF-8" standalone="no"?>
<svg
   xmlns:dc="http://purl.org/dc/elements/1.1/"
   xmlns:cc="http://creativecommons.org/ns#"
   xmlns:rdf="http://www.w3.org/1999/02/22-rdf-syntax-ns#"
   xmlns:svg="http://www.w3.org/2000/svg"
   xmlns="http://www.w3.org/2000/svg"
   version="1.1"
   id="Capa_1"
   x="0px"
   y="0px"
   width="95"
   height="95"
   viewBox="0 0 95.000003 95.000003"
   xml:space="preserve"><metadata
   id="metadata41"><rdf:RDF><cc:Work
       rdf:about=""><dc:format>image/svg+xml</dc:format><dc:type
         rdf:resource="http://purl.org/dc/dcmitype/StillImage" /><dc:title></dc:title></cc:Work></rdf:RDF></metadata><defs
   id="defs39">
	
<filter
   style="color-interpolation-filters:sRGB"
   id="filter5149"
   x="-0.06390393"
   width="1.1278079"
   y="-0.34842857"
   height="1.6968571"><feGaussianBlur
     stdDeviation="2.4417128"
     id="feGaussianBlur5151" /></filter></defs>

<g
   id="g6"
   transform="translate(0,0.49500275)">
</g>
<g
   id="g8"
   transform="translate(0,0.49500275)">
</g>
<g
   id="g10"
   transform="translate(0,0.49500275)">
</g>
<g
   id="g12"
   transform="translate(0,0.49500275)">
</g>
<g
   id="g14"
   transform="translate(0,0.49500275)">
</g>
<g
   id="g16"
   transform="translate(0,0.49500275)">
</g>
<g
   id="g18"
   transform="translate(0,0.49500275)">
</g>
<g
   id="g20"
   transform="translate(0,0.49500275)">
</g>
<g
   id="g22"
   transform="translate(0,0.49500275)">
</g>
<g
   id="g24"
   transform="translate(0,0.49500275)">
</g>
<g
   id="g26"
   transform="translate(0,0.49500275)">
</g>
<g
   id="g28"
   transform="translate(0,0.49500275)">
</g>
<g
   id="g30"
   transform="translate(0,0.49500275)">
</g>
<g
   id="g32"
   transform="translate(0,0.49500275)">
</g>
<g
   id="g34"
   transform="translate(0,0.49500275)">
</g>
<path
   id="path2"
   d="m 74.09839,59.620218 c 0.07036,-0.210432 0.110287,-0.436076 0.110287,-0.670593 V 34.320863 c 0,-1.167517 -0.946943,-2.113826 -2.114458,-2.113826 H 60.325882 v 26.214607 c 0,0.420863 -0.07606,0.823346 -0.210431,1.198574 h -1.380483 c 0.07036,-0.210432 0.110286,-0.436076 0.110286,-0.670593 V 25.123978 c 0,-1.167516 -0.946943,-2.113825 -2.11446,-2.113825 H 38.267937 c -1.167516,0 -2.113825,0.946309 -2.113825,2.113825 v 33.825647 c 0,0.234517 0.03993,0.460161 0.110286,0.670593 H 34.884549 C 34.750176,59.24499 34.674117,58.842507 34.674117,58.421644 V 32.207037 H 23.187835 c -1.167516,0 -2.113826,0.946309 -2.113826,2.113826 v 24.628762 c 0,0.234517 0.03993,0.460161 0.109653,0.670593 h -3.633751 v 4.369629 H 77.450088 V 59.620218 Z M 27.415486,50.986175 h -3.030344 v -3.029711 h 3.030344 z m 0,-5.319742 h -3.030344 v -3.030345 h 3.030344 z m 0,-5.14417 h -3.030344 v -3.030345 h 3.030344 z m 4.72204,10.463912 h -3.030345 v -3.029711 h 3.030345 z m 0,-5.319742 h -3.030345 v -3.030345 h 3.030345 z m 0,-5.14417 h -3.030345 v -3.030345 h 3.030345 z M 52.203975,59.478874 H 43.306892 V 48.379229 h 8.897083 z M 47.499682,38.865429 c -4.115463,0 -7.451948,-3.336485 -7.451948,-7.451948 0,-4.116098 3.337119,-7.452583 7.451948,-7.452583 4.116098,0 7.452583,3.336485 7.452583,7.452583 0,4.116097 -3.336485,7.451948 -7.452583,7.451948 z m 19.238666,12.120746 h -3.029712 v -3.029711 h 3.029712 z m 0,-5.319742 h -3.029712 v -3.030345 h 3.029712 z m 0,-5.14417 h -3.029712 v -3.030345 h 3.029712 z m 4.721406,10.463912 h -3.029712 v -3.029711 h 3.029712 z m 0,-5.319742 h -3.029712 v -3.030345 h 3.029712 z m 0,-5.14417 h -3.029712 v -3.030345 h 3.029712 z M 49.349201,29.563962 h 2.85414 v 3.699037 h -2.85414 v 2.855407 h -3.699037 v -2.855407 h -2.85414 v -3.699037 h 2.85414 v -2.85414 h 3.699037 z"
   style="fill:#ffffff;fill-opacity:1;stroke:none;stroke-width:0.63383073;stroke-opacity:1" /><circle
   style="fill:#ed0a71;fill-opacity:1;stroke-width:1.05852151"
   id="path4552"
   cx="47.5"
   cy="47.5"
   r="40.692436" /></svg>