<?xml version="1.0" encoding="utf-8"?>
<!-- Generator: Adobe Illustrator 24.1.0, SVG Export Plug-In . SVG Version: 6.00 Build 0)  -->
<svg version="1.1" id="Layer_1" xmlns="http://www.w3.org/2000/svg" xmlns:xlink="http://www.w3.org/1999/xlink" x="0px" y="0px"
	 viewBox="0 0 1130 175.3" style="enable-background:new 0 0 1130 175.3;" xml:space="preserve">
<style type="text/css">
	.st0{fill:#161342;}
	.st1{fill:#ED0875;}
	.st2{fill:#121444;}
	.st3{fill:#39BFBC;}
	.st4{fill:#FFFFFF;}
	.st5{fill:#161442;}
	.st6{fill:#ED0775;}
	.st7{fill:#161543;}
	.st8{fill:#1E2A5D;}
	.st9{fill:#2DBEC0;}
	.st10{fill:#BF1E45;}
	.st11{fill:#00BDD1;}
	.st12{fill:#101441;}
	.st13{fill:#ED1171;}
</style>
<g>
	<path class="st12" d="M468.1,3.8V115h12.1v29h-12.1v29.9h-42.5V144h-50.4v-29L411.9,3.8H468.1z M425.6,115V42.6L406.9,115H425.6z"
		/>
</g>
<g>
	<path class="st13" d="M531.9,63v24.9c2.4-2.2,4.9-3.8,7.7-4.9c2.8-1.1,5.7-1.6,8.9-1.6c4.8,0,9,1.2,12.4,3.7s5.5,5.3,6.2,8.5
		c0.8,3.2,1.1,9.1,1.1,17.6v62.6h-27.7v-63.9c0-5.3-0.3-8.7-0.8-10.2c-0.5-1.5-1.7-2.3-3.5-2.3c-1.7,0-2.8,0.8-3.4,2.3
		c-0.6,1.6-0.9,4.6-0.9,9.2v64.8h-27.7V63H531.9z"/>
	<path class="st13" d="M640.3,130h-35.8v19.6c0,4.1,0.3,6.8,0.9,7.9c0.6,1.2,1.7,1.8,3.4,1.8c2.1,0,3.5-0.8,4.2-2.4
		c0.7-1.6,1.1-4.6,1.1-9.1v-12h26.2v6.7c0,5.6-0.4,9.9-1.1,12.9c-0.7,3-2.4,6.2-5,9.7c-2.6,3.4-5.9,6-9.9,7.7c-4,1.7-9,2.6-15,2.6
		c-5.8,0-11-0.8-15.5-2.5s-8-4-10.4-6.9c-2.5-2.9-4.2-6.2-5.2-9.7c-1-3.5-1.4-8.7-1.4-15.4v-26.5c0-7.9,1.1-14.2,3.2-18.8
		c2.1-4.6,5.7-8.1,10.5-10.5c4.9-2.4,10.5-3.7,16.8-3.7c7.8,0,14.2,1.5,19.2,4.4c5,2.9,8.6,6.8,10.6,11.7s3,11.7,3,20.5V130z
		 M612.6,115.2v-6.6c0-4.7-0.2-7.7-0.8-9.1c-0.5-1.4-1.5-2.1-3.1-2.1c-1.9,0-3.1,0.6-3.6,1.7c-0.5,1.2-0.7,4.3-0.7,9.4v6.6H612.6z"
		/>
	<path class="st13" d="M674.1,118.1h-25.9V112c0-7,0.8-12.4,2.4-16.3c1.6-3.8,4.9-7.2,9.8-10.1c4.9-2.9,11.2-4.4,19-4.4
		c9.4,0,16.4,1.7,21.2,5c4.7,3.3,7.6,7.4,8.6,12.2c1,4.8,1.4,14.7,1.4,29.7v45.6h-26.9v-8.1c-1.7,3.2-3.9,5.7-6.5,7.3
		c-2.7,1.6-5.9,2.4-9.5,2.4c-4.8,0-9.3-1.4-13.3-4.1s-6.1-8.7-6.1-17.8v-7.5c0-6.8,1.1-11.4,3.2-13.9c2.1-2.5,7.5-5.3,16-8.6
		c9.1-3.6,13.9-6,14.6-7.2c0.6-1.2,1-3.7,1-7.5c0-4.7-0.4-7.8-1.1-9.3c-0.7-1.4-1.9-2.2-3.5-2.2c-1.9,0-3,0.6-3.5,1.8
		c-0.5,1.2-0.7,4.3-0.7,9.4V118.1z M682.8,130.6c-4.4,3.2-7,6-7.7,8.1c-0.7,2.2-1.1,5.3-1.1,9.4c0,4.7,0.3,7.7,0.9,9.1
		c0.6,1.4,1.8,2.1,3.7,2.1c1.7,0,2.9-0.5,3.4-1.6c0.5-1.1,0.8-3.9,0.8-8.5V130.6z"/>
	<path class="st13" d="M748.5,63v110.8H720V63H748.5z"/>
	<path class="st13" d="M787.6,70.8v14.3h7.5v14.4h-7.5v48.6c0,6,0.3,9.3,0.9,10c0.6,0.7,3.2,1,7.7,1v14.7H785
		c-6.3,0-10.8-0.3-13.5-0.8c-2.7-0.5-5.1-1.7-7.1-3.6c-2.1-1.9-3.3-4.1-3.8-6.5c-0.5-2.4-0.8-8.2-0.8-17.2V99.5h-6V85.1h6V70.8
		H787.6z"/>
	<path class="st13" d="M828.8,63v24.9c2.4-2.2,4.9-3.8,7.7-4.9c2.8-1.1,5.7-1.6,8.9-1.6c4.8,0,9,1.2,12.4,3.7s5.5,5.3,6.2,8.5
		c0.8,3.2,1.1,9.1,1.1,17.6v62.6h-27.7v-63.9c0-5.3-0.3-8.7-0.8-10.2c-0.5-1.5-1.7-2.3-3.5-2.3c-1.7,0-2.8,0.8-3.4,2.3
		c-0.6,1.6-0.9,4.6-0.9,9.2v64.8h-27.7V63H828.8z"/>
	<path class="st13" d="M935.7,117.3h-26.1v-10.5c0-3.6-0.3-6.1-0.9-7.4c-0.6-1.3-1.7-2-3.3-2c-1.6,0-2.7,0.6-3.2,1.7
		c-0.5,1.1-0.8,3.7-0.8,7.7v42.9c0,3.2,0.4,5.7,1.2,7.3c0.8,1.6,2,2.4,3.6,2.4c1.9,0,3.1-0.8,3.8-2.5c0.7-1.7,1-4.9,1-9.6v-10.8
		h24.6c0,7.3-0.3,12.7-0.8,16.3c-0.5,3.6-2,7.3-4.6,11.2c-2.6,3.8-5.9,6.7-10.1,8.6c-4.2,1.9-9.3,2.9-15.4,2.9c-7.8,0-14-1.3-18.6-4
		c-4.6-2.7-7.8-6.4-9.7-11.2c-1.9-4.8-2.8-11.6-2.8-20.5v-25.8c0-7.7,0.8-13.5,2.3-17.5s4.9-7.4,9.9-10.5c5.1-3.1,11.2-4.6,18.5-4.6
		c7.2,0,13.4,1.5,18.5,4.6c5.1,3.1,8.5,6.9,10.2,11.6C934.9,102.1,935.7,108.7,935.7,117.3z"/>
	<path class="st13" d="M968.6,118.1h-25.9V112c0-7,0.8-12.4,2.4-16.3c1.6-3.8,4.9-7.2,9.8-10.1c4.9-2.9,11.2-4.4,19-4.4
		c9.4,0,16.4,1.7,21.2,5c4.7,3.3,7.6,7.4,8.6,12.2c1,4.8,1.4,14.7,1.4,29.7v45.6h-26.9v-8.1c-1.7,3.2-3.9,5.7-6.5,7.3
		c-2.7,1.6-5.9,2.4-9.5,2.4c-4.8,0-9.3-1.4-13.3-4.1s-6.1-8.7-6.1-17.8v-7.5c0-6.8,1.1-11.4,3.2-13.9c2.1-2.5,7.5-5.3,16-8.6
		c9.1-3.6,13.9-6,14.6-7.2c0.6-1.2,1-3.7,1-7.5c0-4.7-0.4-7.8-1.1-9.3c-0.7-1.4-1.9-2.2-3.5-2.2c-1.9,0-3,0.6-3.5,1.8
		c-0.5,1.2-0.7,4.3-0.7,9.4V118.1z M977.4,130.6c-4.4,3.2-7,6-7.7,8.1c-0.7,2.2-1.1,5.3-1.1,9.4c0,4.7,0.3,7.7,0.9,9.1
		c0.6,1.4,1.8,2.1,3.7,2.1c1.7,0,2.9-0.5,3.4-1.6c0.5-1.1,0.8-3.9,0.8-8.5V130.6z"/>
	<path class="st13" d="M1042.2,83l-1.1,11.9c4-8.6,9.8-13.1,17.5-13.6v32c-5.1,0-8.8,0.7-11.2,2.1c-2.4,1.4-3.8,3.3-4.4,5.7
		s-0.8,8.1-0.8,16.9v35.9h-27.7V83H1042.2z"/>
	<path class="st13" d="M1127.4,130h-35.8v19.6c0,4.1,0.3,6.8,0.9,7.9c0.6,1.2,1.7,1.8,3.4,1.8c2.1,0,3.5-0.8,4.2-2.4
		c0.7-1.6,1.1-4.6,1.1-9.1v-12h26.2v6.7c0,5.6-0.4,9.9-1.1,12.9c-0.7,3-2.4,6.2-5,9.7c-2.6,3.4-5.9,6-9.9,7.7c-4,1.7-9,2.6-15,2.6
		c-5.8,0-11-0.8-15.5-2.5c-4.5-1.7-8-4-10.4-6.9c-2.5-2.9-4.2-6.2-5.2-9.7c-1-3.5-1.4-8.7-1.4-15.4v-26.5c0-7.9,1.1-14.2,3.2-18.8
		c2.1-4.6,5.7-8.1,10.5-10.5c4.9-2.4,10.5-3.7,16.8-3.7c7.8,0,14.2,1.5,19.2,4.4c5,2.9,8.6,6.8,10.6,11.7c2,4.9,3,11.7,3,20.5V130z
		 M1099.7,115.2v-6.6c0-4.7-0.3-7.7-0.8-9.1c-0.5-1.4-1.5-2.1-3.1-2.1c-1.9,0-3.1,0.6-3.6,1.7c-0.5,1.2-0.7,4.3-0.7,9.4v6.6H1099.7z
		"/>
</g>
<g>
	<path class="st12" d="M34,83.1l-0.5,8.6c2.1-3.4,4.7-6,7.7-7.7c3-1.7,6.3-2.6,10.1-2.6c7.4,0,13.2,3.4,17.4,10.3
		c2.3-3.4,5-6,7.9-7.7c2.9-1.7,6.2-2.6,9.7-2.6c4.7,0,8.6,1.1,11.7,3.4c3.1,2.3,5.1,5.1,5.9,8.4c0.9,3.3,1.3,8.7,1.3,16.1v64.5H78.5
		v-59.2c0-7.8-0.3-12.6-0.8-14.4c-0.5-1.8-1.7-2.8-3.7-2.8c-2,0-3.2,0.9-3.8,2.7c-0.6,1.8-0.9,6.6-0.9,14.4v59.2H42.5v-57.7
		c0-8.9-0.2-14.2-0.6-16c-0.4-1.8-1.6-2.7-3.6-2.7C37,97.6,36,98,35.1,99c-0.9,0.9-1.3,2.1-1.4,3.4c-0.1,1.3-0.1,4.2-0.1,8.6v63H6.7
		V83.1H34z"/>
	<path class="st12" d="M139.5,118.3h-25.9v-6.1c0-7,0.8-12.4,2.4-16.3c1.6-3.8,4.9-7.2,9.8-10.1c4.9-2.9,11.2-4.4,19-4.4
		c9.4,0,16.4,1.7,21.1,5c4.7,3.3,7.6,7.4,8.6,12.2c1,4.8,1.4,14.7,1.4,29.7v45.6H149v-8.1c-1.7,3.2-3.9,5.7-6.5,7.3
		c-2.7,1.6-5.8,2.4-9.5,2.4c-4.8,0-9.3-1.4-13.3-4.1c-4-2.7-6.1-8.7-6.1-17.8v-7.5c0-6.8,1.1-11.4,3.2-13.9
		c2.1-2.5,7.5-5.3,15.9-8.6c9.1-3.6,13.9-6,14.6-7.2c0.6-1.2,1-3.7,1-7.5c0-4.7-0.4-7.8-1.1-9.3c-0.7-1.4-1.9-2.2-3.5-2.2
		c-1.9,0-3,0.6-3.5,1.8c-0.5,1.2-0.7,4.3-0.7,9.4V118.3z M148.3,130.8c-4.4,3.2-7,6-7.7,8.1c-0.7,2.2-1.1,5.3-1.1,9.4
		c0,4.7,0.3,7.7,0.9,9.1c0.6,1.4,1.8,2.1,3.7,2.1c1.7,0,2.9-0.5,3.4-1.6c0.5-1.1,0.8-3.9,0.8-8.5V130.8z"/>
	<path class="st12" d="M214.6,71v14.3h7.5v14.4h-7.5v48.6c0,6,0.3,9.3,0.9,10c0.6,0.7,3.2,1,7.7,1v14.6H212
		c-6.3,0-10.8-0.3-13.5-0.8c-2.7-0.5-5.1-1.7-7.1-3.6c-2.1-1.9-3.3-4.1-3.8-6.5c-0.5-2.4-0.8-8.2-0.8-17.2V99.7h-6V85.3h6V71H214.6z
		"/>
	<path class="st12" d="M289.2,117.4h-26.1v-10.5c0-3.6-0.3-6.1-0.9-7.4c-0.6-1.3-1.7-1.9-3.3-1.9c-1.6,0-2.7,0.6-3.2,1.7
		c-0.5,1.1-0.8,3.7-0.8,7.7v42.8c0,3.2,0.4,5.7,1.2,7.3s2,2.4,3.6,2.4c1.9,0,3.1-0.8,3.8-2.5c0.7-1.7,1-4.9,1-9.6v-10.8h24.6
		c0,7.3-0.3,12.7-0.8,16.3c-0.5,3.6-2,7.3-4.6,11.2c-2.6,3.8-5.9,6.7-10.1,8.6c-4.2,1.9-9.3,2.9-15.4,2.9c-7.8,0-14-1.3-18.5-4
		c-4.6-2.7-7.8-6.4-9.7-11.2c-1.9-4.8-2.8-11.6-2.8-20.5v-25.8c0-7.7,0.8-13.5,2.3-17.4c1.6-3.9,4.9-7.4,9.9-10.5
		c5.1-3.1,11.2-4.6,18.5-4.6c7.2,0,13.4,1.5,18.5,4.6c5.1,3.1,8.5,6.9,10.2,11.6C288.4,102.3,289.2,108.9,289.2,117.4z"/>
	<path class="st12" d="M325.1,63.1v24.9c2.4-2.2,4.9-3.8,7.7-4.9c2.8-1.1,5.7-1.6,8.9-1.6c4.8,0,9,1.2,12.4,3.7
		c3.4,2.5,5.5,5.3,6.2,8.5c0.8,3.2,1.1,9.1,1.1,17.6v62.6h-27.6V110c0-5.3-0.3-8.7-0.8-10.2c-0.5-1.5-1.7-2.3-3.5-2.3
		c-1.7,0-2.8,0.8-3.4,2.3c-0.6,1.6-0.9,4.6-0.9,9.2v64.8h-27.6V63.1H325.1z"/>
</g>
</svg>
